<svg width="142" height="252" viewBox="0 0 142 252" fill="none" xmlns="http://www.w3.org/2000/svg">
<g clip-path="url(#clip0_1826_11045)">
<path d="M103.449 0H24.3584C12.0574 0 2.08545 9.97192 2.08545 22.2729V203.003C2.08545 215.304 12.0574 225.276 24.3584 225.276H103.449C115.75 225.276 125.722 215.304 125.722 203.003V22.2729C125.722 9.97192 115.75 0 103.449 0Z" fill="#3F3D56"/>
<path d="M123.637 22.275V203.004C123.63 208.356 121.501 213.488 117.717 217.272C113.932 221.057 108.801 223.186 103.449 223.192H24.3595C19.0073 223.186 13.8761 221.057 10.0915 217.272C6.30696 213.488 4.17807 208.356 4.17188 203.004V22.275C4.17807 16.9228 6.30696 11.7916 10.0915 8.00707C13.8761 4.22249 19.0073 2.0936 24.3595 2.0874H34.7017V5.65997C34.7018 7.27733 35.3444 8.82843 36.488 9.97208C37.6317 11.1157 39.1828 11.7583 40.8001 11.7584C54.1896 15.803 69.9065 15.1717 87.0083 11.7584C88.6257 11.7583 90.1768 11.1157 91.3204 9.97208C92.4641 8.82843 93.1066 7.27733 93.1067 5.65997V2.0874H103.449C108.801 2.0936 113.932 4.22249 117.717 8.00707C121.501 11.7916 123.63 16.9228 123.637 22.275Z" fill="white"/>
<path d="M1.51701 45.7009C1.11482 45.7004 0.729226 45.5404 0.444831 45.256C0.160436 44.9716 0.000460726 44.586 0 44.1838V41.1498C0 40.7475 0.159826 40.3616 0.444321 40.0771C0.728816 39.7926 1.11468 39.6328 1.51701 39.6328C1.91935 39.6328 2.30521 39.7926 2.5897 40.0771C2.8742 40.3616 3.03402 40.7475 3.03402 41.1498V44.1838C3.03356 44.586 2.87359 44.9716 2.58919 45.256C2.3048 45.5404 1.91921 45.7004 1.51701 45.7009Z" fill="#3F3D56"/>
<path d="M1.51701 61.2578C1.11482 61.2573 0.729226 61.0974 0.444831 60.813C0.160435 60.5286 0.000459725 60.143 0 59.7408V51.3891C0 50.9867 0.159826 50.6009 0.444321 50.3164C0.728816 50.0319 1.11468 49.8721 1.51701 49.8721C1.91935 49.8721 2.30521 50.0319 2.5897 50.3164C2.8742 50.6009 3.03402 50.9867 3.03402 51.3891V59.7408C3.03356 60.143 2.87359 60.5286 2.58919 60.813C2.3048 61.0974 1.91921 61.2573 1.51701 61.2578Z" fill="#3F3D56"/>
<path d="M1.51701 73.7646C1.11482 73.7642 0.729226 73.6042 0.444831 73.3198C0.160435 73.0354 0.000459725 72.6498 0 72.2476V63.8959C0 63.4936 0.159826 63.1077 0.444321 62.8232C0.728816 62.5387 1.11468 62.3789 1.51701 62.3789C1.91935 62.3789 2.30521 62.5387 2.5897 62.8232C2.8742 63.1077 3.03402 63.4936 3.03402 63.8959V72.2476C3.03356 72.6498 2.87359 73.0354 2.58919 73.3198C2.3048 73.6042 1.91921 73.7642 1.51701 73.7646Z" fill="#3F3D56"/>
<path d="M125.912 43.5278C125.51 43.5275 125.125 43.6867 124.841 43.9705C124.556 44.2542 124.396 44.6393 124.395 45.0411V65.4221C124.395 65.8244 124.555 66.2103 124.84 66.4948C125.124 66.7793 125.51 66.9391 125.912 66.9391C126.315 66.9391 126.7 66.7793 126.985 66.4948C127.269 66.2103 127.429 65.8244 127.429 65.4221V45.0411C127.428 44.6395 127.268 44.2548 126.983 43.9712C126.699 43.6876 126.314 43.5282 125.912 43.5278Z" fill="#3F3D56"/>
<path d="M30.1835 11.0254H19.9436C19.4407 11.0254 18.9584 10.8257 18.6028 10.47C18.2472 10.1144 18.0474 9.6321 18.0474 9.12918C18.0474 8.62625 18.2472 8.14393 18.6028 7.78831C18.9584 7.43269 19.4407 7.23291 19.9436 7.23291H30.1835C30.6864 7.23291 31.1687 7.43269 31.5243 7.78831C31.8799 8.14393 32.0797 8.62625 32.0797 9.12918C32.0797 9.6321 31.8799 10.1144 31.5243 10.47C31.1687 10.8257 30.6864 11.0254 30.1835 11.0254Z" fill="#0062B0"/>
<path d="M89.6775 200.9C86.8238 201.079 85.2467 197.534 87.4057 195.467C87.4847 195.153 87.5414 194.928 87.6205 194.613C87.5922 194.545 87.5638 194.477 87.5351 194.408C84.6493 187.527 78.8059 191.39 72.0075 194.466C66.4003 197.003 60.7488 200.308 65.4384 213.177C66.4235 215.88 65.2421 218.94 65.8756 221.742C59.9107 208.73 56.8133 194.588 56.7933 180.274C56.7921 176.682 56.9916 173.093 57.3911 169.524C57.7212 166.597 58.1792 163.692 58.7651 160.807C61.2256 148.802 65.8407 137.341 72.3868 126.981C71.5536 126.992 70.7189 127.001 69.8829 127.008C68.3786 129.464 66.9767 131.978 65.6772 134.551C65.9748 132.053 66.0237 129.531 65.8232 127.023C55.6855 127.02 45.5552 126.696 36.5986 126.051C36.9383 153.501 47.071 159.225 59.4965 146.078C59.8445 146.256 60.1836 146.435 60.5315 146.604C57.5386 155.086 55.6612 163.921 54.9466 172.887C54.5421 178.177 54.5659 183.491 55.018 188.776C55.009 188.714 55.0001 188.651 54.9912 188.589C53.8492 182.711 50.7137 177.408 46.1142 173.574C39.2829 167.962 29.6315 165.896 22.2617 161.385C18.7141 159.214 14.1681 162.02 14.7873 166.133C14.7972 166.198 14.8072 166.264 14.8174 166.33C15.9161 166.777 16.9857 167.293 18.0203 167.873C18.6123 168.207 19.1918 168.562 19.7588 168.937C22.9903 171.074 21.8735 176.083 18.0445 176.674L17.9577 176.688C17.8953 176.697 17.8418 176.706 17.7794 176.714C19.6565 181.196 22.2911 185.322 25.5679 188.91C26.4815 217.103 41.3151 213.468 57.1859 202.783H57.1948C58.8065 209.787 61.1416 216.604 64.1626 223.124H89.0537C89.143 222.848 89.2232 222.562 89.3036 222.286C86.9996 222.431 84.6866 222.293 82.4161 221.876C84.2629 219.609 86.1096 217.325 87.9564 215.059C87.9976 215.017 88.0363 214.972 88.0724 214.926C89.0091 213.766 89.9548 212.615 90.8916 211.455L90.8921 211.454C90.942 207.899 90.534 204.352 89.6782 200.901L89.6775 200.9Z" fill="#0062B0"/>
<path d="M63.1549 114.925C60.7402 109.1 56.2141 104.193 52.2283 99.1575C47.4407 93.1085 37.6234 95.7484 36.7799 103.416C36.7718 103.491 36.7638 103.565 36.756 103.639C37.3481 103.973 37.9276 104.328 38.4946 104.703C41.7261 106.84 40.6093 111.849 36.7803 112.44L36.6936 112.454C36.9045 114.587 37.2773 116.702 37.8088 118.779C37.1732 121.159 36.7681 123.594 36.5991 126.052C45.5557 126.697 55.686 127.021 65.8238 127.025C65.4951 122.566 64.5036 118.176 63.1549 114.925Z" fill="#0062B0"/>
<path d="M89.2143 107.541C90.1029 105.773 90.731 103.886 91.0789 101.938C90.5347 102.009 89.0269 93.7211 89.4374 93.2126C88.679 92.0618 87.3215 91.4897 86.4932 90.3667C82.3738 84.7816 76.6982 85.7568 73.7354 93.3465C67.4059 96.5409 67.3447 101.839 71.2284 106.934C73.6992 110.176 74.0387 114.562 76.2067 118.032C75.9836 118.318 75.7516 118.594 75.5286 118.88C73.2215 121.845 71.0834 124.939 69.1245 128.145C69.9605 128.138 70.7951 128.129 71.6284 128.118C73.5945 125.007 75.7335 122.009 78.0355 119.139C82.8599 116.506 86.7614 112.459 89.2143 107.541Z" fill="#0062B0"/>
<path d="M75.013 32.6245H71.5998C70.2926 32.626 69.0394 33.1459 68.1151 34.0702C67.1908 34.9945 66.6709 36.2477 66.6695 37.5548V41.3473H60.6014C59.2943 41.3488 58.0411 41.8687 57.1168 42.793C56.1925 43.7173 55.6726 44.9705 55.6711 46.2776V53.8627C55.6726 55.1698 56.1925 56.423 57.1168 57.3473C58.0411 58.2716 59.2943 58.7915 60.6014 58.793H68.1865C69.4936 58.7915 70.7468 58.2716 71.6711 57.3473C72.5954 56.423 73.1153 55.1698 73.1168 53.8627V46.2776C73.1153 44.9705 72.5954 43.7173 71.6711 42.793C70.7468 41.8687 69.4936 41.3488 68.1865 41.3473H67.428V37.5548C67.4292 36.4488 67.8692 35.3884 68.6513 34.6063C69.4333 33.8242 70.4937 33.3843 71.5998 33.383H75.013C76.1191 33.3843 77.1795 33.8242 77.9616 34.6063C78.7437 35.3884 79.1836 36.4488 79.1848 37.5548V41.7266H79.9433V37.5548C79.9419 36.2477 79.422 34.9945 78.4977 34.0702C77.5734 33.1459 76.3202 32.626 75.013 32.6245ZM72.3583 46.2776V53.8627C72.357 54.9687 71.9171 56.0291 71.135 56.8112C70.3529 57.5933 69.2925 58.0332 68.1865 58.0345H60.6014C59.4954 58.0332 58.435 57.5933 57.6529 56.8112C56.8708 56.0291 56.4309 54.9687 56.4296 53.8627V46.2776C56.4309 45.1716 56.8708 44.1112 57.6529 43.3291C58.435 42.547 59.4954 42.1071 60.6014 42.1058C64.1927 44.1953 66.1713 43.1146 68.1865 42.1058C69.2925 42.1071 70.3529 42.547 71.135 43.3291C71.9171 44.1112 72.357 45.1716 72.3583 46.2776Z" fill="white"/>
<path d="M64.394 53.4838C65.0691 53.4838 65.729 53.2836 66.2903 52.9085C66.8516 52.5335 67.2891 52.0004 67.5475 51.3767C67.8058 50.753 67.8734 50.0667 67.7417 49.4046C67.61 48.7425 67.2849 48.1343 66.8075 47.657C66.3302 47.1796 65.722 46.8545 65.0599 46.7228C64.3978 46.5911 63.7115 46.6587 63.0878 46.917C62.4641 47.1754 61.931 47.6129 61.556 48.1742C61.1809 48.7355 60.9807 49.3954 60.9807 50.0705C60.9818 50.9754 61.3417 51.843 61.9816 52.4829C62.6215 53.1228 63.4891 53.4827 64.394 53.4838ZM64.394 49.312C65.8579 49.312 67.0488 48.6066 67.0488 50.0705C67.0488 50.7746 66.7691 51.4498 66.2712 51.9477C65.7733 52.4456 65.0981 52.7253 64.394 52.7253C63.6899 52.7253 63.0147 52.4456 62.5168 51.9477C62.0189 51.4498 61.7392 50.7746 61.7392 50.0705C61.7392 48.6066 62.9301 49.312 64.394 49.312Z" fill="white"/>
<path d="M64.3941 51.2072C65.0225 51.2072 65.5319 50.6978 65.5319 50.0694C65.5319 49.441 65.0225 48.9316 64.3941 48.9316C63.7657 48.9316 63.2563 49.441 63.2563 50.0694C63.2563 50.6978 63.7657 51.2072 64.3941 51.2072Z" fill="white"/>
<path d="M127.429 54.6206H124.695V55.3791H127.429V54.6206Z" fill="white"/>
<path d="M109.612 143.972C110.353 143.82 111.007 143.386 111.433 142.76C111.86 142.134 112.025 141.367 111.894 140.621C111.865 140.469 111.824 140.321 111.77 140.177L119.541 133.66L117.621 128.554L107.942 138.632C107.361 138.9 106.884 139.353 106.588 139.92C106.291 140.487 106.19 141.137 106.301 141.767C106.436 142.491 106.853 143.131 107.46 143.547C108.066 143.963 108.813 144.121 109.537 143.987C109.562 143.982 109.587 143.977 109.612 143.972Z" fill="#A0616A"/>
<path d="M113.27 105.519L110.189 107.976C110.189 107.976 106.507 114.671 109.146 116.059C111.786 117.448 119.992 122.066 119.992 122.066C119.992 122.066 116.6 125.442 116.2 127.082C115.8 128.722 116.686 130.179 115.28 129.836C113.875 129.493 113.835 130.61 113.492 132.015C113.149 133.421 110.863 134.715 110.863 134.715L115.232 137.939C115.232 137.939 117.254 138.653 117.42 136.956C117.586 135.259 117.125 135.498 118.531 135.841C119.937 136.184 121.121 133.985 121.869 131.933C122.618 129.882 130.256 120.335 130.256 120.335L122.265 111.442C119.826 108.728 116.728 106.687 113.27 105.519V105.519Z" fill="#0062B0"/>
<path d="M112.568 244.874L109.387 244.847L107.979 232.29L112.674 232.329L112.568 244.874Z" fill="#A0616A"/>
<path d="M102.377 249.933C102.375 250.31 102.522 250.673 102.786 250.942C103.05 251.211 103.411 251.364 103.788 251.367L110.113 251.42L111.22 249.176L111.627 251.432L114.014 251.453L113.411 243.407L112.581 243.352L109.194 243.118L108.101 243.045L108.082 245.322L103.001 248.768C102.81 248.897 102.654 249.071 102.546 249.274C102.437 249.476 102.379 249.703 102.377 249.933Z" fill="#2F2E41"/>
<path d="M83.3592 244.874L80.1781 244.847L78.7695 232.29L83.4651 232.329L83.3592 244.874Z" fill="#A0616A"/>
<path d="M73.1692 249.933C73.1664 250.31 73.3133 250.673 73.5776 250.942C73.842 251.211 74.2023 251.364 74.5794 251.367L80.9049 251.42L82.0122 249.176L82.4189 251.432L84.8056 251.453L84.203 243.407L83.3726 243.352L79.9856 243.118L78.8929 243.045L78.8737 245.322L73.7925 248.768C73.6021 248.897 73.446 249.071 73.3374 249.274C73.2289 249.476 73.1711 249.703 73.1692 249.933Z" fill="#2F2E41"/>
<path d="M91.5904 138.536C91.5904 138.536 85.4815 141.545 87.0741 143.356C88.6667 145.168 87.3577 146.192 85.3726 147.894C83.3876 149.595 79.3914 169.526 79.3914 169.526L74.2168 200.401C74.2168 200.401 75.5897 227.36 76.5111 228.32C77.4325 229.28 78.8504 227.862 77.4325 229.28C76.0146 230.698 74.8803 229.564 76.0146 230.698C77.1489 231.832 77.4325 234.952 77.4325 234.952L84.7809 234.332C84.7809 234.332 89.5641 213.61 86.3341 204.431L99.0057 170.85L102.837 203.252C102.837 203.252 104.939 229.564 106.357 230.414C107.775 231.265 108.797 231.322 107.577 232.428C106.357 233.534 106.357 231.832 106.357 233.534V236.356L113.217 237.297C113.217 237.297 116.403 212.073 114.925 200.401L119.402 161.222L115.914 143.566L112.312 138.819L91.5904 138.536Z" fill="#2F2E41"/>
<path d="M62.1115 128.986C62.7231 129.433 63.4847 129.623 64.2344 129.516C64.9841 129.41 65.6627 129.015 66.1258 128.416C66.218 128.293 66.2999 128.162 66.3705 128.025L76.421 129.379L78.9023 124.521L64.9339 124.155C64.3441 123.906 63.6884 123.859 63.0692 124.022C62.4501 124.185 61.9022 124.548 61.5111 125.055C61.2913 125.345 61.1309 125.676 61.0391 126.029C60.9472 126.381 60.9257 126.749 60.9758 127.109C61.0258 127.47 61.1465 127.818 61.3308 128.132C61.5152 128.446 61.7596 128.721 62.0502 128.941C62.0704 128.956 62.0909 128.971 62.1115 128.986Z" fill="#A0616A"/>
<path d="M92.9967 105.79L89.105 105.167C89.105 105.167 84.434 107.718 85.1856 110.604C85.9373 113.49 85.2937 121.904 85.2937 121.904C85.2937 121.904 80.5138 121.671 79.0323 122.48C77.5509 123.289 77.0704 124.925 76.3772 123.655C75.6839 122.385 76.4149 121.711 75.145 122.405C73.8752 123.098 69.7957 123.677 69.7957 123.677L68.1558 129.261C68.1558 129.261 70.4343 132.394 71.8002 131.374C73.1661 130.353 73.4349 128.833 74.1282 130.103C74.8215 131.372 75.0148 133.739 77.0351 132.911C79.0554 132.083 93.4869 128.324 93.4869 128.324L95.2311 110.889L92.9967 105.79Z" fill="#0062B0"/>
<path d="M89.1982 142.841C89.1982 142.841 86.4505 138.456 86.9736 137.813C87.4967 137.17 88.1519 138.281 86.9736 137.158C85.7953 136.035 92.4033 128.541 92.8373 127.437C93.2713 126.334 86.2229 107.059 86.2229 107.059L92.226 103.444L97.2996 96.3057L106.374 97.7573L109.566 104.229L114.075 105.82L114.455 106.199V117.956C114.455 117.956 116.462 127.991 112.046 131.446C112.046 131.446 114.153 136.035 113.586 136.886C113.019 137.737 123.216 148.916 115.213 150.193C106.447 151.591 87.7488 142.345 89.1982 142.841Z" fill="#0062B0"/>
<path d="M44.1917 251.549C44.1915 251.608 44.203 251.667 44.2256 251.722C44.2483 251.777 44.2815 251.827 44.3235 251.869C44.3654 251.91 44.4152 251.944 44.4701 251.966C44.5249 251.989 44.5837 252 44.643 252H140.704C140.824 252 140.938 251.953 141.023 251.868C141.108 251.783 141.155 251.669 141.155 251.549C141.155 251.429 141.108 251.314 141.023 251.23C140.938 251.145 140.824 251.098 140.704 251.098H44.643C44.5837 251.097 44.5249 251.109 44.4701 251.132C44.4152 251.154 44.3654 251.187 44.3235 251.229C44.2815 251.271 44.2483 251.321 44.2257 251.376C44.203 251.431 44.1915 251.49 44.1917 251.549Z" fill="#CCCCCC"/>
<path d="M103.174 98.092C108.277 98.092 112.413 93.9552 112.413 88.8521C112.413 83.7491 108.277 79.6123 103.174 79.6123C98.0707 79.6123 93.9338 83.7491 93.9338 88.8521C93.9338 93.9552 98.0707 98.092 103.174 98.092Z" fill="#A0616A"/>
<path d="M110.313 82.0215C110.218 81.1899 109.648 80.1622 109.252 79.4251C108.855 78.6879 108.09 78.086 107.255 78.1373C106.913 78.1769 106.586 78.2984 106.302 78.4916C106.018 78.6847 105.785 78.9438 105.622 79.2466C105.303 79.8562 105.13 80.5313 105.115 81.2192C105.027 82.7539 105.284 84.2888 105.865 85.7119C106.446 87.135 107.337 88.4105 108.474 89.4454C109.122 90.0262 109.901 90.5431 110.771 90.5628C111.166 90.5533 111.555 90.465 111.915 90.3029C112.275 90.1409 112.599 89.9084 112.869 89.6192C114.276 88.2094 114.489 85.8918 113.737 84.0468C112.985 82.2019 112.65 81.484 110.931 80.4762" fill="#2F2E41"/>
<path d="M97.3336 95.3109C97.4882 96.1329 96.0665 100.042 96.5208 100.747C96.5208 100.747 101.225 102.381 103.024 102.498C105.221 102.641 106.988 101.739 109.044 100.382C109.081 99.6463 109.294 98.93 109.665 98.2932C109.634 98.7864 109.734 99.2791 109.955 99.721C117.652 97.8088 115.768 90.9014 111.119 87.6652L108.029 80.5571C108.956 80.8662 106.157 76.0911 103.206 79.5494C99.5125 75.7882 92.358 81.2027 91.4617 86.0394C92.3242 84.9477 92.7735 85.0764 92.9947 85.8293C93.249 85.196 93.6517 84.6332 94.169 84.1882C93.9117 84.6966 93.7803 85.2594 93.7858 85.8292C99.6113 86.1908 98.5271 90.1209 93.7522 96.0083C95.5179 94.9091 94.3264 99.6457 95.2692 100.778C95.3155 99.9867 97.1668 96.0804 97.3336 95.3109Z" fill="#2F2E41"/>
<path d="M105.74 87.7407C105.815 87.7406 105.887 87.7136 105.943 87.6646C105.999 87.6157 106.036 87.5481 106.046 87.4742C106.056 87.4004 106.039 87.3254 105.999 87.2629C105.958 87.2005 105.896 87.1548 105.825 87.1344C105.758 86.7541 105.751 86.3658 105.803 85.9833C105.904 84.2762 106.072 81.419 103.298 79.4903C103.231 79.4438 103.148 79.4259 103.068 79.4405C102.987 79.4551 102.916 79.501 102.869 79.5681C102.822 79.6352 102.804 79.7181 102.819 79.7986C102.833 79.8792 102.878 79.9507 102.945 79.9976C105.435 81.7286 105.285 84.2672 105.186 85.947C105.13 86.9073 105.089 87.601 105.672 87.733C105.694 87.7382 105.717 87.7408 105.74 87.7407Z" fill="#0062B0"/>
<path d="M105.596 80.9859C107.482 80.2031 109.492 79.7579 111.532 79.6705C113.15 79.6019 115.081 79.9628 115.739 81.443C116.138 82.341 115.926 83.3936 115.561 84.3059C115.195 85.2183 113.489 87.0601 114.472 87.04C116.939 86.9895 117.993 89.1961 116.741 92.625C116.015 94.6137 120.52 94.5371 122.62 94.8033C121.042 95.3887 119.44 95.9798 117.763 96.1202C116.086 96.2606 114.294 95.896 113.042 94.7715C111.687 93.5546 111.166 91.6646 110.936 89.858C110.705 88.0514 110.694 86.1907 110.081 84.4755C109.469 82.7603 108.062 81.1629 106.247 81.0108" fill="#2F2E41"/>
<g clip-path="url(#clip1_1826_11045)">
<rect x="18" y="29" width="91.6364" height="36" rx="4" fill="#173552"/>
<path fill-rule="evenodd" clip-rule="evenodd" d="M49.7509 55.5339C48.9766 55.9743 48.0887 56.1945 47.0873 56.1945C46.2805 56.1945 45.548 56.0392 44.8896 55.7286C44.2313 55.4179 43.6703 54.9613 43.2066 54.3585C42.743 53.7558 42.386 53.0047 42.1356 52.1053C41.8853 51.2058 41.7601 50.1719 41.7601 49.0035C41.7601 47.965 41.8992 46.9983 42.1774 46.1035C42.4555 45.2087 42.8566 44.4321 43.3805 43.7737C43.9044 43.1154 44.5419 42.5984 45.293 42.2229C46.0441 41.8473 46.8972 41.6595 47.8523 41.6595C48.7146 41.6595 49.4518 41.8056 50.0638 42.0977C50.6758 42.3898 51.2229 42.8001 51.7051 43.3286V35.5117H54.1809V55.9998H52.7065C52.3542 55.9998 52.1316 55.8283 52.0389 55.4852L51.8164 53.7744C51.2136 54.5069 50.5251 55.0934 49.7509 55.5339ZM33.9293 56.1945C34.4393 56.1945 34.9539 56.1505 35.4732 56.0624C35.9925 55.9743 36.4955 55.8422 36.9823 55.666C37.4691 55.4898 37.9258 55.2649 38.3524 54.9914C38.7789 54.7179 39.1452 54.3956 39.4512 54.0247L38.7557 53.1206C38.6445 52.963 38.4868 52.8842 38.2828 52.8842C38.1252 52.8842 37.9374 52.956 37.7195 53.0998C37.5016 53.2435 37.2304 53.3988 36.9058 53.5657C36.5813 53.7326 36.1941 53.8879 35.7444 54.0317C35.2947 54.1754 34.7592 54.2473 34.1379 54.2473C33.4703 54.2473 32.8675 54.1383 32.3297 53.9204C31.7919 53.7025 31.3283 53.3733 30.9388 52.9329C30.5494 52.4924 30.2434 51.943 30.0208 51.2846C29.7983 50.6263 29.6777 49.852 29.6592 48.9618H39.0339C39.2657 48.9618 39.4234 48.8969 39.5068 48.7671C39.5903 48.6373 39.632 48.3776 39.632 47.9882C39.632 46.9867 39.486 46.0942 39.1939 45.3107C38.9018 44.5271 38.4961 43.8688 37.9768 43.3356C37.4575 42.8024 36.8409 42.3944 36.1269 42.1116C35.4129 41.8288 34.634 41.6874 33.7902 41.6874C32.7702 41.6874 31.8522 41.8659 31.0362 42.2229C30.2202 42.5799 29.5294 43.0713 28.9637 43.6972C28.3981 44.3231 27.9646 45.0626 27.6632 45.9157C27.3619 46.7688 27.2112 47.6868 27.2112 48.6697C27.2112 49.8844 27.3781 50.9601 27.7119 51.8966C28.0457 52.8332 28.5117 53.619 29.1098 54.2542C29.7079 54.8894 30.4172 55.3716 31.2379 55.7008C32.0585 56.0299 32.9556 56.1945 33.9293 56.1945ZM37.4065 47.4179H29.7426C29.9095 46.1939 30.3361 45.2365 31.0223 44.5457C31.7085 43.8549 32.6496 43.5094 33.8458 43.5094C34.4115 43.5094 34.9145 43.6045 35.355 43.7946C35.7954 43.9847 36.1686 44.2536 36.4746 44.6013C36.7806 44.949 37.0125 45.3617 37.1701 45.8392C37.3277 46.3168 37.4065 46.843 37.4065 47.4179ZM47.9079 54.1916C47.333 54.1916 46.823 54.0943 46.3779 53.8995C45.9328 53.7048 45.5573 53.3965 45.2513 52.9746C44.9453 52.5527 44.7135 52.0149 44.5558 51.3611C44.3982 50.7074 44.3194 49.9215 44.3194 49.0035C44.3194 47.2695 44.6717 45.9343 45.3765 44.9977C46.0812 44.0612 47.0919 43.5929 48.4086 43.5929C49.067 43.5929 49.6674 43.7158 50.2099 43.9615C50.7523 44.2072 51.2507 44.6361 51.7051 45.2481V52.0635C51.1951 52.7404 50.6364 53.2644 50.029 53.6353C49.4217 54.0062 48.7146 54.1916 47.9079 54.1916ZM65.336 55.6034C64.5756 56.016 63.704 56.2224 62.7211 56.2224C61.9515 56.2224 61.2722 56.0949 60.6834 55.8399C60.0946 55.5849 59.6008 55.2255 59.2021 54.7619C58.8034 54.2983 58.5043 53.7373 58.305 53.0789C58.1056 52.4205 58.0059 51.6926 58.0059 50.8952V41.9099H60.4817V50.8952C60.4817 51.9615 60.7275 52.7868 61.2189 53.371C61.7104 53.9552 62.4522 54.2473 63.4444 54.2473C64.1676 54.2473 64.8492 54.0757 65.489 53.7326C66.1288 53.3895 66.7176 52.912 67.2555 52.3V41.9099H69.7313V55.9998H68.2569C67.9045 55.9998 67.682 55.8283 67.5893 55.4852L67.3945 53.9691C66.7825 54.646 66.0964 55.1908 65.336 55.6034Z" fill="white"/>
<path fill-rule="evenodd" clip-rule="evenodd" d="M77.3951 55.9996V36.0679H74.6968V55.9996H77.3951ZM90.1915 55.9996C91.6566 55.9996 92.9919 55.7608 94.1973 55.2833C95.4028 54.8057 96.4367 54.1311 97.299 53.2595C98.1614 52.3879 98.8291 51.3401 99.302 50.1161C99.7749 48.8921 100.011 47.5336 100.011 46.0407C100.011 44.5478 99.7749 43.1893 99.302 41.9653C98.8291 40.7413 98.1614 39.6912 97.299 38.8149C96.4367 37.9386 95.4028 37.2617 94.1973 36.7842C92.9919 36.3066 91.6566 36.0679 90.1915 36.0679H82.7362V55.9996H90.1915ZM85.4485 53.8159H90.1915C91.2579 53.8159 92.2269 53.6397 93.0985 53.2873C93.9701 52.935 94.712 52.4273 95.324 51.7643C95.936 51.1013 96.4089 50.2876 96.7427 49.3232C97.0765 48.3589 97.2434 47.2647 97.2434 46.0407C97.2434 44.8167 97.0765 43.7225 96.7427 42.7581C96.4089 41.7938 95.936 40.9778 95.324 40.3101C94.712 39.6425 93.9701 39.1325 93.0985 38.7801C92.2269 38.4278 91.2579 38.2516 90.1915 38.2516H85.4485V53.8159Z" fill="#5BA5FB"/>
</g>
</g>
<defs>
<clipPath id="clip0_1826_11045">
<rect width="141.155" height="252" fill="white"/>
</clipPath>
<clipPath id="clip1_1826_11045">
<rect width="92" height="36" fill="white" transform="translate(18 29)"/>
</clipPath>
</defs>
</svg>
