<svg width="76" height="89" viewBox="0 0 76 89" fill="none" xmlns="http://www.w3.org/2000/svg">
<path d="M0.000129698 12.5071V42.5107C0.000209621 51.9943 2.84259 61.2552 8.1526 69.0728C13.4626 76.8903 20.991 82.8975 29.7453 86.3024L33.8025 87.8786C36.5043 88.9294 39.4957 88.9294 42.1975 87.8786L46.2547 86.3024C55.009 82.8975 62.5374 76.8903 67.8474 69.0728C73.1574 61.2552 75.9998 51.9943 75.9999 42.5107V12.5071C76.0073 11.3781 75.692 10.2709 75.0919 9.31876C74.4917 8.36661 73.6323 7.61005 72.6169 7.14007C61.7035 2.32385 49.9072 -0.107997 38 0.00367916C26.0928 -0.107997 14.2965 2.32385 3.38309 7.14007C2.36773 7.61005 1.50828 8.36661 0.908126 9.31876C0.307969 10.2709 -0.00733976 11.3781 0.000129698 12.5071Z" fill="#0062B0"/>
<path d="M51.8784 31.2441L36.8911 51.2273C36.6483 51.5506 36.3388 51.818 35.9837 52.0114C35.6286 52.2048 35.2361 52.3196 34.8327 52.3482C34.4294 52.3768 34.0246 52.3183 33.6458 52.1769C33.267 52.0355 32.9229 51.8143 32.637 51.5284L23.6431 42.5383" stroke="white" stroke-width="8.44444" stroke-linecap="round" stroke-linejoin="round"/>
</svg>

