<?xml version="1.0" encoding="UTF-8" standalone="no"?>
<!DOCTYPE svg PUBLIC "-//W3C//DTD SVG 1.1//EN" "http://www.w3.org/Graphics/SVG/1.1/DTD/svg11.dtd">
<!-- Created with Vectornator (http://vectornator.io/) -->
<svg height="100%" stroke-miterlimit="10" style="fill-rule:nonzero;clip-rule:evenodd;stroke-linecap:round;stroke-linejoin:round;" version="1.1" viewBox="0 0 46 46" width="100%" xml:space="preserve" xmlns="http://www.w3.org/2000/svg" xmlns:vectornator="http://vectornator.io" xmlns:xlink="http://www.w3.org/1999/xlink">
<defs/>
<g id="Untitled" vectornator:layerName="Untitled">
<g opacity="1">
<clipPath id="ClipPath">
<path d="M0.372559 23L23 0.372583L23 0.372583L45.6274 23L45.6274 23L23 45.6274L23 45.6274L0.372559 23L0.372559 23Z"/>
</clipPath>
<g clip-path="url(#ClipPath)">
<path d="M26.6826 41.4693C26.1207 42.0312 25.374 42.3442 24.5811 42.349L21.2709 42.348C19.6172 42.348 18.2718 41.0026 18.2709 39.348L18.2709 28.6792L17.4487 28.6792C17.1819 28.6801 16.9302 28.5755 16.7416 28.3869C16.5531 28.1983 16.4484 27.9466 16.4494 27.6798C16.4484 27.413 16.5531 27.1612 16.7416 26.9727C16.9302 26.7841 17.1819 26.6795 17.4487 26.6804L18.2709 26.6804L18.2699 22.0578C17.181 21.5911 16.4494 20.5069 16.4494 19.302L16.4484 15.0132C16.4484 14.4795 16.6568 13.977 17.0349 13.5989C17.4129 13.2209 17.9154 13.0125 18.4472 13.0125L27.3822 13.0135C27.9158 13.0134 28.4183 13.2218 28.7955 13.5989C29.1707 13.9742 29.3791 14.471 29.3809 15.0009C29.3809 15.0047 29.3847 19.3058 29.3847 19.3058C29.3847 20.1071 29.0717 20.8595 28.5041 21.4271C28.2335 21.6977 27.9111 21.9145 27.5575 22.0644L27.5623 39.3489C27.5623 40.1484 27.2502 40.9017 26.6826 41.4693ZM24.5745 40.3493C24.8291 40.3493 25.0798 40.2455 25.2693 40.056C25.4589 39.8665 25.5626 39.6158 25.5635 39.3489L25.5626 22.3058L20.2725 22.3029L20.2734 39.3499C20.2734 39.9005 20.7222 40.3493 21.2737 40.3502L24.5462 40.3511C24.5556 40.3493 24.567 40.3493 24.5745 40.3493ZM18.45 19.302C18.45 19.8526 18.8988 20.3014 19.4494 20.3014L26.3875 20.3061C26.6534 20.3061 26.9032 20.2014 27.0927 20.0119C27.2822 19.8224 27.386 19.5716 27.3869 19.3048L27.3831 15.0131L18.4481 15.0122L18.45 19.302Z" fill="#fafafa" fill-rule="nonzero" opacity="1" stroke="none"/>
</g>
</g>
</g>
</svg>
