<svg width="293" height="276" viewBox="0 0 293 276" fill="none" xmlns="http://www.w3.org/2000/svg">
<line x1="44" y1="3.5" x2="1" y2="3.5" stroke="white" stroke-width="5"/>
<line x1="44" y1="3.5" x2="1" y2="3.5" stroke="white" stroke-width="5"/>
<line x1="3" y1="44.5" x2="3" y2="1.5" stroke="white" stroke-width="5"/>
<line x1="3" y1="44.5" x2="3" y2="1.5" stroke="white" stroke-width="5"/>
<line x1="249.25" y1="273" x2="292.25" y2="273" stroke="white" stroke-width="5"/>
<line x1="249.25" y1="273" x2="292.25" y2="273" stroke="white" stroke-width="5"/>
<line x1="290.25" y1="232" x2="290.25" y2="275" stroke="white" stroke-width="5"/>
<line x1="290.25" y1="232" x2="290.25" y2="275" stroke="white" stroke-width="5"/>
<line x1="289.75" y1="44.25" x2="289.75" y2="1.25" stroke="white" stroke-width="5"/>
<line x1="289.75" y1="44.25" x2="289.75" y2="1.25" stroke="white" stroke-width="5"/>
<line x1="248.75" y1="3.25" x2="291.75" y2="3.25" stroke="white" stroke-width="5"/>
<line x1="248.75" y1="3.25" x2="291.75" y2="3.25" stroke="white" stroke-width="5"/>
<line x1="3.5" y1="232.25" x2="3.49999" y2="275.25" stroke="white" stroke-width="5"/>
<line x1="3.5" y1="232.25" x2="3.49999" y2="275.25" stroke="white" stroke-width="5"/>
<line x1="44.5" y1="273.25" x2="1.5" y2="273.25" stroke="white" stroke-width="5"/>
<line x1="44.5" y1="273.25" x2="1.5" y2="273.25" stroke="white" stroke-width="5"/>
</svg>
