<?xml version="1.0" encoding="UTF-8"?>
<svg id="Layer_1" data-name="Layer 1" xmlns="http://www.w3.org/2000/svg" viewBox="0 0 51 51">
  <defs>
    <style>
      .cls-1 {
        fill: #008939;
      }

      .cls-2 {
        fill: #fff;
      }
    </style>
  </defs>
  <rect class="cls-1" width="51" height="51" rx="6" ry="6"/>
  <g>
    <path class="cls-2" d="m12.71,28.91c-.47,0-.85-.38-.85-.85v-1.7c0-.47.38-.85.85-.85s.85.38.85.85v.85h.85c.47,0,.85.38.85.85s-2.56.85-2.56.85Z"/>
    <path class="cls-2" d="m18.68,18.68v-5.11h-5.11v5.11h5.11Zm-5.97,1.7c-.47,0-.85-.38-.85-.85v-6.82c0-.47.38-.85.85-.85h6.82c.47,0,.85.38.85.85v6.82c0,.47-.38.85-.85.85h-6.82Z"/>
    <path class="cls-2" d="m37.43,18.68v-5.11h-5.11v5.11h5.11Zm-5.97,1.7c-.47,0-.85-.38-.85-.85v-6.82c0-.47.38-.85.85-.85h6.82c.47,0,.85.38.85.85v6.82c0,.47-.38.85-.85.85h-6.82Z"/>
    <path class="cls-2" d="m18.68,37.43v-5.11h-5.11v5.11h5.11Zm-5.97,1.7c-.47,0-.85-.38-.85-.85v-6.82c0-.47.38-.85.85-.85h6.82c.47,0,.85.38.85.85v6.82c0,.47-.38.85-.85.85h-6.82Z"/>
    <path class="cls-2" d="m25.5,13.57c-.47,0-.85-.38-.85-.85s.38-.85.85-.85h2.56c.47,0,.85.38.85.85s-.38.85-.85.85h-2.56Z"/>
    <path class="cls-2" d="m22.94,16.98c-.47,0-.85-.38-.85-.85v-3.41c0-.47.38-.85.85-.85s.85.38.85.85v2.56h1.7c.47,0,.85.38.85.85s-.38.85-.85.85h-2.56Z"/>
    <path class="cls-2" d="m22.94,20.39c-.47,0-.85-.38-.85-.85s.38-.85.85-.85h4.26v-2.56c0-.47.38-.85.85-.85s.85.38.85.85v3.41c0,.47-.38.85-.85.85h-5.11Z"/>
    <path class="cls-2" d="m19.53,25.5c-.47,0-.85-.38-.85-.85v-.85h-5.97c-.47,0-.85-.38-.85-.85s.38-.85.85-.85h6.82c.47,0,.85.38.85.85v1.7c0,.47-.38.85-.85.85Z"/>
    <path class="cls-2" d="m17.83,28.91c-.47,0-.85-.38-.85-.85s.38-.85.85-.85h1.7c.47,0,.85.38.85.85s-2.56.85-2.56.85Z"/>
    <path class="cls-2" d="m34.88,39.14c-.47,0-.85-.38-.85-.85v-3.41c0-.47.38-.85.85-.85h2.56v-1.7h-2.56c-.47,0-.85-.38-.85-.85s.38-.85.85-.85h3.41c.47,0,.85.38.85.85v3.41c0,.47-.38.85-.85.85h-2.56v1.7h2.56c.47,0,.85.38.85.85s-.38.85-.85.85h-3.41Z"/>
    <path class="cls-2" d="m22.94,39.14c-.47,0-.85-.38-.85-.85v-6.82c0-.47.38-.85.85-.85s.85.38.85.85v5.97h4.26c.47,0,.85.38.85.85s-.38.85-.85.85h-5.11Z"/>
    <path class="cls-2" d="m31.47,39.14c-.47,0-.85-.38-.85-.85v-6.82c0-.47.38-.85.85-.85s.85.38.85.85v6.82c0,.47-.38.85-.85.85Z"/>
    <path class="cls-2" d="m26.35,35.73c-.47,0-.85-.38-.85-.85s.38-.85.85-.85h.85v-1.7h-.85c-.47,0-.85-.38-.85-.85s.38-.85.85-.85h1.7c.47,0,.85.38.85.85v3.41c0,.47-.38.85-.85.85h-1.7Z"/>
    <path class="cls-2" d="m22.94,28.91c-.47,0-.85-.38-.85-.85v-1.7c0-.47.38-.85.85-.85s.85.38.85.85v.85h.85c.47,0,.85.38.85.85s-.38.85-.85.85h-1.7Z"/>
    <path class="cls-2" d="m28.06,28.91c-.47,0-.85-.38-.85-.85s.38-.85.85-.85h.85v-2.56c0-.47.38-.85.85-.85s.85.38.85.85v2.56h.85c.47,0,.85.38.85.85s-.38.85-.85.85h-3.41Z"/>
    <path class="cls-2" d="m26.35,25.5c-.47,0-.85-.38-.85-.85v-.85h-2.56c-.47,0-.85-.38-.85-.85s.38-.85.85-.85h3.41c.47,0,.85.38.85.85v1.7c0,.47-.38.85-.85.85Z"/>
    <path class="cls-2" d="m38.29,25.5c-.47,0-.85-.38-.85-.85v-1.7c0-.47.38-.85.85-.85s.85.38.85.85v1.7c0,.47-.38.85-.85.85Z"/>
    <path class="cls-2" d="m38.29,28.91c-.47,0-.85-.38-.85-.85v-.85c0-.47.38-.85.85-.85s.85.38.85.85v.85c0,.47-.38.85-.85.85Z"/>
    <path class="cls-2" d="m34.88,28.06c-.47,0-.85-.38-.85-.85v-1.7h-.85c-.47,0-.85-.38-.85-.85v-1.7c0-.47.38-.85.85-.85s.85.38.85.85v.85h.85c.47,0,.85.38.85.85v2.56c0,.47-.38.85-.85.85Z"/>
  </g>
</svg>