<svg width="51" height="51" viewBox="0 0 51 51" fill="none" xmlns="http://www.w3.org/2000/svg">
<rect width="51" height="51" rx="6" fill="#008939"/>
<g clip-path="url(#clip0_1134_9703)">
<path d="M26 36.25C19.797 36.25 14.75 31.203 14.75 25C14.75 18.797 19.797 13.75 26 13.75C32.203 13.75 37.25 18.797 37.25 25C37.25 31.203 32.203 36.25 26 36.25ZM26 15.25C20.624 15.25 16.25 19.624 16.25 25C16.25 30.376 20.624 34.75 26 34.75C31.376 34.75 35.75 30.376 35.75 25C35.75 19.624 31.376 15.25 26 15.25Z" fill="white"/>
<path d="M30.687 30.438C30.487 30.438 30.298 30.36 30.157 30.218L25.47 25.53C25.4 25.46 25.345 25.378 25.307 25.285C25.304 25.277 25.301 25.268 25.298 25.26C25.266 25.174 25.251 25.088 25.251 25V21.25C25.251 20.836 25.587 20.5 26.001 20.5C26.415 20.5 26.751 20.836 26.751 21.25V24.689L31.218 29.157C31.36 29.299 31.438 29.487 31.438 29.687C31.438 29.887 31.36 30.076 31.218 30.217C31.076 30.358 30.887 30.438 30.687 30.438Z" fill="white"/>
</g>
<defs>
<clipPath id="clip0_1134_9703">
<rect width="24" height="24" fill="white" transform="translate(14 13)"/>
</clipPath>
</defs>
</svg>
