<svg width="225" height="88" viewBox="0 0 225 88" fill="none" xmlns="http://www.w3.org/2000/svg">
<rect x="0.555557" width="224" height="88" rx="9.77778" fill="#173552"/>
<path fill-rule="evenodd" clip-rule="evenodd" d="M78.1745 64.8605C76.2818 65.9371 74.1115 66.4755 71.6635 66.4755C69.6915 66.4755 67.9008 66.0958 66.2915 65.3365C64.6822 64.5771 63.3108 63.4608 62.1775 61.9875C61.0442 60.5141 60.1715 58.6781 59.5595 56.4795C58.9475 54.2808 58.6415 51.7535 58.6415 48.8975C58.6415 46.3588 58.9815 43.9958 59.6615 41.8085C60.3415 39.6211 61.3218 37.7228 62.6025 36.1135C63.8832 34.5041 65.4415 33.2405 67.2775 32.3225C69.1135 31.4045 71.1988 30.9455 73.5335 30.9455C75.6415 30.9455 77.4435 31.3025 78.9395 32.0165C80.4355 32.7305 81.7728 33.7335 82.9515 35.0255V15.9175H89.0035V65.9995H85.3995C84.5382 65.9995 83.9942 65.5802 83.7675 64.7415L83.2235 60.5595C81.7502 62.3501 80.0672 63.7838 78.1745 64.8605ZM39.4949 66.4758C40.7416 66.4758 41.9996 66.3682 43.2689 66.1528C44.5383 65.9375 45.7679 65.6145 46.9579 65.1838C48.1479 64.7532 49.2643 64.2035 50.3069 63.5348C51.3496 62.8662 52.2449 62.0785 52.9929 61.1718L51.2929 58.9618C51.0209 58.5765 50.6356 58.3838 50.1369 58.3838C49.7516 58.3838 49.2926 58.5595 48.7599 58.9108C48.2273 59.2622 47.5643 59.6418 46.7709 60.0498C45.9776 60.4578 45.0313 60.8375 43.9319 61.1888C42.8326 61.5402 41.5236 61.7158 40.0049 61.7158C38.3729 61.7158 36.8996 61.4495 35.5849 60.9168C34.2703 60.3842 33.1369 59.5795 32.1849 58.5028C31.2329 57.4262 30.4849 56.0832 29.9409 54.4738C29.3969 52.8645 29.1023 50.9718 29.0569 48.7958H51.9729C52.5396 48.7958 52.9249 48.6372 53.1289 48.3198C53.3329 48.0025 53.4349 47.3678 53.4349 46.4158C53.4349 43.9678 53.0779 41.7862 52.3639 39.8708C51.6499 37.9555 50.6583 36.3462 49.3889 35.0428C48.1196 33.7395 46.6123 32.7422 44.8669 32.0508C43.1216 31.3595 41.2176 31.0138 39.1549 31.0138C36.6616 31.0138 34.4176 31.4502 32.4229 32.3228C30.4283 33.1955 28.7396 34.3968 27.3569 35.9268C25.9743 37.4568 24.9146 39.2645 24.1779 41.3498C23.4413 43.4352 23.0729 45.6792 23.0729 48.0818C23.0729 51.0512 23.4809 53.6805 24.2969 55.9698C25.1129 58.2592 26.2519 60.1802 27.7139 61.7328C29.1759 63.2855 30.9099 64.4642 32.9159 65.2688C34.9219 66.0735 37.1149 66.4758 39.4949 66.4758ZM47.9944 45.0211H29.2604C29.6684 42.0291 30.7111 39.6887 32.3884 38.0001C34.0658 36.3114 36.3664 35.4671 39.2904 35.4671C40.6731 35.4671 41.9028 35.6994 42.9794 36.1641C44.0561 36.6287 44.9684 37.2861 45.7164 38.1361C46.4644 38.9861 47.0311 39.9947 47.4164 41.1621C47.8018 42.3294 47.9944 43.6157 47.9944 45.0211ZM73.6678 61.5792C72.2625 61.5792 71.0158 61.3412 69.9278 60.8652C68.8398 60.3892 67.9218 59.6355 67.1738 58.6042C66.4258 57.5728 65.8592 56.2582 65.4738 54.6602C65.0885 53.0622 64.8958 51.1412 64.8958 48.8972C64.8958 44.6585 65.7572 41.3945 67.4798 39.1052C69.2025 36.8158 71.6732 35.6712 74.8918 35.6712C76.5012 35.6712 77.9688 35.9715 79.2948 36.5722C80.6208 37.1728 81.8392 38.2212 82.9498 39.7172V56.3772C81.7032 58.0318 80.3375 59.3125 78.8528 60.2192C77.3682 61.1258 75.6398 61.5792 73.6678 61.5792ZM116.263 65.0299C114.404 66.0386 112.273 66.5429 109.871 66.5429C107.989 66.5429 106.329 66.2312 104.89 65.6079C103.45 64.9846 102.243 64.1062 101.269 62.9729C100.294 61.8396 99.563 60.4682 99.0756 58.8589C98.5883 57.2496 98.3446 55.4702 98.3446 53.5209V31.5569H104.397V53.5209C104.397 56.1276 104.997 58.1449 106.199 59.5729C107.4 61.0009 109.213 61.7149 111.639 61.7149C113.407 61.7149 115.073 61.2956 116.637 60.4569C118.201 59.6182 119.64 58.4509 120.955 56.9549V31.5569H127.007V65.9989H123.403C122.541 65.9989 121.997 65.5796 121.771 64.7409L121.295 61.0349C119.799 62.6896 118.121 64.0212 116.263 65.0299Z" fill="white"/>
<path fill-rule="evenodd" clip-rule="evenodd" d="M145.741 65.9989V17.2769H139.145V65.9989H145.741ZM177.02 65.9989C180.601 65.9989 183.865 65.4152 186.812 64.2479C189.758 63.0805 192.286 61.4315 194.394 59.3009C196.502 57.1702 198.134 54.6089 199.29 51.6169C200.446 48.6249 201.024 45.3042 201.024 41.6549C201.024 38.0055 200.446 34.6849 199.29 31.6929C198.134 28.7009 196.502 26.1339 194.394 23.9919C192.286 21.8499 189.758 20.1952 186.812 19.0279C183.865 17.8605 180.601 17.2769 177.02 17.2769H158.796V65.9989H177.02ZM165.422 60.6605H177.016C179.623 60.6605 181.992 60.2299 184.122 59.3685C186.253 58.5072 188.066 57.2662 189.562 55.6455C191.058 54.0249 192.214 52.0359 193.03 49.6785C193.846 47.3212 194.254 44.6465 194.254 41.6545C194.254 38.6625 193.846 35.9879 193.03 33.6305C192.214 31.2732 191.058 29.2785 189.562 27.6465C188.066 26.0145 186.253 24.7679 184.122 23.9065C181.992 23.0452 179.623 22.6145 177.016 22.6145H165.422V60.6605Z" fill="#5BA5FB"/>
</svg>
