<svg width="32" height="32" viewBox="0 0 32 32" fill="none" xmlns="http://www.w3.org/2000/svg">
<g clip-path="url(#clip0_1134_9679)">
<path d="M7 12C6.448 12 6 11.552 6 11V7C6 6.448 6.448 6 7 6H11C11.552 6 12 6.448 12 7V11C12 11.552 11.552 12 11 12H7ZM10 10V8H8V10H10Z" fill="#0062B0"/>
<path d="M7 26C6.448 26 6 25.552 6 25V21C6 20.448 6.448 20 7 20H11C11.552 20 12 20.448 12 21V25C12 25.552 11.552 26 11 26H7ZM10 24V22H8V24H10Z" fill="#0062B0"/>
<path d="M21 12C20.448 12 20 11.552 20 11V7C20 6.448 20.448 6 21 6H25C25.552 6 26 6.448 26 7V11C26 11.552 25.552 12 25 12H21ZM24 10V8H22V10H24Z" fill="#0062B0"/>
<path d="M15 20C14.448 20 14 19.552 14 19V18H7C6.448 18 6 17.552 6 17C6 16.448 6.448 16 7 16H15C15.552 16 16 16.448 16 17V19C16 19.552 15.552 20 15 20Z" fill="#0062B0"/>
<path d="M19 26C18.448 26 18 25.552 18 25V19C18 18.448 18.448 18 19 18C19.552 18 20 18.448 20 19V24H24V20H23C22.448 20 22 19.552 22 19C22 18.448 22.448 18 23 18H25C25.552 18 26 18.448 26 19V25C26 25.552 25.552 26 25 26H19Z" fill="#0062B0"/>
<path d="M15 26C14.448 26 14 25.552 14 25V23C14 22.448 14.448 22 15 22C15.552 22 16 22.448 16 23V25C16 25.552 15.552 26 15 26Z" fill="#0062B0"/>
<path d="M15 14C14.448 14 14 13.552 14 13V7C14 6.448 14.448 6 15 6C15.552 6 16 6.448 16 7V12H17C17.552 12 18 12.448 18 13C18 13.552 17.552 14 17 14H15Z" fill="#0062B0"/>
<path d="M21 16C20.448 16 20 15.552 20 15C20 14.448 20.448 14 21 14H25C25.552 14 26 14.448 26 15C26 15.552 25.552 16 25 16H21Z" fill="#0062B0"/>
<path d="M1 9C0.448 9 0 8.552 0 8V3C0 1.34533 1.34533 0 3 0H8C8.552 0 9 0.448 9 1C9 1.552 8.552 2 8 2H3C2.448 2 2 2.448 2 3V8C2 8.552 1.552 9 1 9Z" fill="#0062B0"/>
<path d="M31 9C30.448 9 30 8.552 30 8V3C30 2.448 29.552 2 29 2H24C23.448 2 23 1.552 23 1C23 0.448 23.448 0 24 0H29C30.6547 0 32 1.34533 32 3V8C32 8.552 31.552 9 31 9Z" fill="#0062B0"/>
<path d="M24 32C23.448 32 23 31.552 23 31C23 30.448 23.448 30 24 30H29C29.552 30 30 29.552 30 29V24C30 23.448 30.448 23 31 23C31.552 23 32 23.448 32 24V29C32 30.6547 30.6547 32 29 32H24Z" fill="#0062B0"/>
<path d="M3 32C1.34533 32 0 30.6547 0 29V24C0 23.448 0.448 23 1 23C1.552 23 2 23.448 2 24V29C2 29.552 2.448 30 3 30H8C8.552 30 9 30.448 9 31C9 31.552 8.552 32 8 32H3Z" fill="#0062B0"/>
</g>
<defs>
<clipPath id="clip0_1134_9679">
<rect width="32" height="32" fill="white"/>
</clipPath>
</defs>
</svg>
