<svg width="375" height="812" viewBox="0 0 375 812" fill="none" xmlns="http://www.w3.org/2000/svg">
<g clip-path="url(#clip0_1161_11978)">
<rect width="375" height="812" fill="#0062B0"/>
<g clip-path="url(#clip1_1161_11978)">
<rect x="75.5555" y="258" width="224" height="88" rx="9.77778" fill="#173552"/>
<path fill-rule="evenodd" clip-rule="evenodd" d="M153.174 322.861C151.282 323.938 149.111 324.476 146.663 324.476C144.691 324.476 142.901 324.096 141.291 323.337C139.682 322.578 138.311 321.461 137.177 319.988C136.044 318.515 135.171 316.679 134.559 314.48C133.947 312.281 133.641 309.754 133.641 306.898C133.641 304.359 133.981 301.996 134.661 299.809C135.341 297.622 136.322 295.723 137.602 294.114C138.883 292.505 140.441 291.241 142.277 290.323C144.113 289.405 146.199 288.946 148.533 288.946C150.641 288.946 152.443 289.303 153.939 290.017C155.435 290.731 156.773 291.734 157.951 293.026V273.918H164.003V324H160.399C159.538 324 158.994 323.581 158.767 322.742L158.223 318.56C156.75 320.351 155.067 321.784 153.174 322.861ZM114.495 324.476C115.742 324.476 117 324.369 118.269 324.153C119.538 323.938 120.768 323.615 121.958 323.184C123.148 322.754 124.264 322.204 125.307 321.535C126.35 320.867 127.245 320.079 127.993 319.172L126.293 316.962C126.021 316.577 125.636 316.384 125.137 316.384C124.752 316.384 124.293 316.56 123.76 316.911C123.227 317.263 122.564 317.642 121.771 318.05C120.978 318.458 120.031 318.838 118.932 319.189C117.833 319.541 116.524 319.716 115.005 319.716C113.373 319.716 111.9 319.45 110.585 318.917C109.27 318.385 108.137 317.58 107.185 316.503C106.233 315.427 105.485 314.084 104.941 312.474C104.397 310.865 104.102 308.972 104.057 306.796H126.973C127.54 306.796 127.925 306.638 128.129 306.32C128.333 306.003 128.435 305.368 128.435 304.416C128.435 301.968 128.078 299.787 127.364 297.871C126.65 295.956 125.658 294.347 124.389 293.043C123.12 291.74 121.612 290.743 119.867 290.051C118.122 289.36 116.218 289.014 114.155 289.014C111.662 289.014 109.418 289.451 107.423 290.323C105.428 291.196 103.74 292.397 102.357 293.927C100.974 295.457 99.9145 297.265 99.1779 299.35C98.4412 301.436 98.0729 303.68 98.0729 306.082C98.0729 309.052 98.4809 311.681 99.2969 313.97C100.113 316.26 101.252 318.181 102.714 319.733C104.176 321.286 105.91 322.465 107.916 323.269C109.922 324.074 112.115 324.476 114.495 324.476ZM122.994 303.022H104.26C104.668 300.03 105.711 297.689 107.388 296.001C109.066 294.312 111.366 293.468 114.29 293.468C115.673 293.468 116.903 293.7 117.979 294.165C119.056 294.629 119.968 295.287 120.716 296.137C121.464 296.987 122.031 297.995 122.416 299.163C122.802 300.33 122.994 301.616 122.994 303.022ZM148.668 319.58C147.262 319.58 146.016 319.342 144.928 318.866C143.84 318.39 142.922 317.636 142.174 316.605C141.426 315.573 140.859 314.259 140.474 312.661C140.088 311.063 139.896 309.142 139.896 306.898C139.896 302.659 140.757 299.395 142.48 297.106C144.202 294.816 146.673 293.672 149.892 293.672C151.501 293.672 152.969 293.972 154.295 294.573C155.621 295.173 156.839 296.222 157.95 297.718V314.378C156.703 316.032 155.337 317.313 153.853 318.22C152.368 319.126 150.64 319.58 148.668 319.58ZM191.263 323.03C189.404 324.039 187.273 324.543 184.871 324.543C182.989 324.543 181.329 324.232 179.89 323.608C178.45 322.985 177.243 322.107 176.269 320.973C175.294 319.84 174.563 318.469 174.076 316.859C173.588 315.25 173.345 313.471 173.345 311.521V289.557H179.397V311.521C179.397 314.128 179.997 316.145 181.199 317.573C182.4 319.001 184.213 319.715 186.639 319.715C188.407 319.715 190.073 319.296 191.637 318.457C193.201 317.619 194.64 316.451 195.955 314.955V289.557H202.007V323.999H198.403C197.541 323.999 196.997 323.58 196.771 322.741L196.295 319.035C194.799 320.69 193.121 322.022 191.263 323.03Z" fill="white"/>
<path fill-rule="evenodd" clip-rule="evenodd" d="M220.741 323.999V275.277H214.145V323.999H220.741ZM252.02 323.999C255.601 323.999 258.865 323.416 261.812 322.248C264.758 321.081 267.286 319.432 269.394 317.301C271.502 315.171 273.134 312.609 274.29 309.617C275.446 306.625 276.024 303.305 276.024 299.655C276.024 296.006 275.446 292.685 274.29 289.693C273.134 286.701 271.502 284.134 269.394 281.992C267.286 279.85 264.758 278.196 261.812 277.028C258.865 275.861 255.601 275.277 252.02 275.277H233.796V323.999H252.02ZM240.422 318.661H252.016C254.623 318.661 256.992 318.23 259.122 317.369C261.253 316.508 263.066 315.267 264.562 313.646C266.058 312.025 267.214 310.036 268.03 307.679C268.846 305.322 269.254 302.647 269.254 299.655C269.254 296.663 268.846 293.988 268.03 291.631C267.214 289.274 266.058 287.279 264.562 285.647C263.066 284.015 261.253 282.768 259.122 281.907C256.992 281.046 254.623 280.615 252.016 280.615H240.422V318.661Z" fill="#5BA5FB"/>
</g>
<path fill-rule="evenodd" clip-rule="evenodd" d="M228.853 768.143C229.482 768.143 229.791 767.823 229.791 767.208C229.791 766.582 229.482 766.263 228.853 766.263H226.506V764.438H230.26C230.889 764.438 231.198 764.119 231.198 763.493C231.198 762.877 230.889 762.558 230.26 762.558H225.523C224.882 762.558 224.539 762.888 224.539 763.538V770.263C224.539 770.912 224.882 771.243 225.523 771.243C226.176 771.243 226.506 770.912 226.506 770.263V768.143H228.853ZM219.001 764.438C219.756 764.438 220.351 764.78 220.351 765.59C220.351 766.387 219.756 766.729 219.001 766.729H217.33V764.438H219.001ZM220.122 770.616C220.306 771.026 220.569 771.243 220.935 771.243C221.427 771.243 222.079 770.878 222.079 770.308C222.079 770.137 222.044 769.966 221.953 769.784L221.038 767.961C221.884 767.516 222.388 766.684 222.388 765.59C222.388 763.8 221.072 762.558 219.173 762.558H216.335C215.695 762.558 215.351 762.888 215.351 763.538V770.263C215.351 770.912 215.695 771.243 216.335 771.243C216.987 771.243 217.33 770.912 217.33 770.263V768.519H219.139L220.122 770.616ZM211.049 767.219C211.049 768.553 210.237 769.351 209.104 769.351C207.983 769.351 207.171 768.553 207.171 767.219V763.458C207.171 762.809 206.827 762.478 206.175 762.478C205.535 762.478 205.191 762.809 205.191 763.458V767.219C205.191 769.693 206.85 771.288 209.104 771.288C211.37 771.288 213.029 769.693 213.029 767.219V763.458C213.029 762.809 212.685 762.478 212.034 762.478C211.393 762.478 211.049 762.809 211.049 763.458V767.219ZM199.848 769.442C199.081 769.442 198.566 769.271 198.131 769.123C197.822 769.02 197.547 768.94 197.25 768.94C196.678 768.94 196.346 769.294 196.346 769.864C196.346 770.787 198.234 771.288 199.848 771.288C201.77 771.288 203.269 770.263 203.269 768.667C203.269 767.174 202.273 766.524 201.186 766.193L199.573 765.703C198.898 765.498 198.589 765.316 198.589 764.929C198.589 764.495 199.275 764.279 199.825 764.279C200.5 764.279 200.991 764.45 201.392 764.598C201.667 764.689 201.907 764.78 202.181 764.78C202.708 764.78 202.994 764.427 202.994 763.857C202.994 762.934 201.278 762.433 199.825 762.433C197.949 762.433 196.564 763.481 196.564 765.02C196.564 766.296 197.479 767.026 198.52 767.333L199.962 767.767C200.683 767.983 201.243 768.166 201.243 768.61C201.243 769.146 200.5 769.442 199.848 769.442ZM248.729 776.44C251.367 776.44 253.508 778.571 253.508 781.2V784.24C253.508 786.869 251.367 788.999 248.729 788.999H241.596C238.957 788.999 236.818 786.869 236.818 784.24V782.363C236.818 779.092 234.156 776.44 230.872 776.44H196.946C193.662 776.44 191 773.789 191 770.517V763.193C191 759.921 193.662 757.27 196.946 757.27H230.872C234.156 757.27 236.818 759.921 236.818 763.193V770.517C236.818 773.789 239.481 776.44 242.765 776.44H248.729Z" fill="white"/>
<path d="M124.357 770V762.128H126.601C127.041 762.128 127.441 762.168 127.801 762.248C128.169 762.328 128.481 762.46 128.737 762.644C128.993 762.82 129.193 763.056 129.337 763.352C129.481 763.648 129.553 764.012 129.553 764.444C129.553 764.86 129.481 765.22 129.337 765.524C129.201 765.828 129.005 766.08 128.749 766.28C128.493 766.48 128.185 766.632 127.825 766.736C127.473 766.832 127.081 766.88 126.649 766.88H125.353V770H124.357ZM125.353 766.064H126.529C127.217 766.064 127.725 765.936 128.053 765.68C128.389 765.416 128.557 765.004 128.557 764.444C128.557 763.876 128.381 763.484 128.029 763.268C127.685 763.044 127.169 762.932 126.481 762.932H125.353V766.064ZM133.033 770.144C132.673 770.144 132.329 770.076 132.001 769.94C131.681 769.804 131.397 769.608 131.149 769.352C130.901 769.088 130.701 768.768 130.549 768.392C130.405 768.008 130.333 767.576 130.333 767.096C130.333 766.608 130.405 766.176 130.549 765.8C130.701 765.416 130.901 765.092 131.149 764.828C131.397 764.564 131.681 764.364 132.001 764.228C132.329 764.092 132.673 764.024 133.033 764.024C133.393 764.024 133.733 764.092 134.053 764.228C134.381 764.364 134.669 764.564 134.917 764.828C135.165 765.092 135.361 765.416 135.505 765.8C135.657 766.176 135.733 766.608 135.733 767.096C135.733 767.576 135.657 768.008 135.505 768.392C135.361 768.768 135.165 769.088 134.917 769.352C134.669 769.608 134.381 769.804 134.053 769.94C133.733 770.076 133.393 770.144 133.033 770.144ZM133.033 769.328C133.281 769.328 133.509 769.276 133.717 769.172C133.925 769.06 134.101 768.908 134.245 768.716C134.397 768.516 134.513 768.28 134.593 768.008C134.673 767.736 134.713 767.432 134.713 767.096C134.713 766.76 134.673 766.456 134.593 766.184C134.513 765.904 134.397 765.664 134.245 765.464C134.101 765.264 133.925 765.112 133.717 765.008C133.509 764.896 133.281 764.84 133.033 764.84C132.785 764.84 132.557 764.896 132.349 765.008C132.141 765.112 131.961 765.264 131.809 765.464C131.665 765.664 131.553 765.904 131.473 766.184C131.393 766.456 131.353 766.76 131.353 767.096C131.353 767.432 131.393 767.736 131.473 768.008C131.553 768.28 131.665 768.516 131.809 768.716C131.961 768.908 132.141 769.06 132.349 769.172C132.557 769.276 132.785 769.328 133.033 769.328ZM138.146 770L136.526 764.168H137.534L138.398 767.54C138.462 767.82 138.522 768.092 138.578 768.356C138.634 768.62 138.69 768.888 138.746 769.16H138.794C138.858 768.888 138.922 768.62 138.986 768.356C139.05 768.084 139.118 767.812 139.19 767.54L140.09 764.168H141.05L141.962 767.54C142.034 767.82 142.102 768.092 142.166 768.356C142.238 768.62 142.306 768.888 142.37 769.16H142.418C142.482 768.888 142.542 768.62 142.598 768.356C142.654 768.092 142.714 767.82 142.778 767.54L143.63 764.168H144.566L143.006 770H141.806L140.966 766.868C140.894 766.588 140.826 766.312 140.762 766.04C140.706 765.768 140.642 765.484 140.57 765.188H140.522C140.458 765.484 140.394 765.772 140.33 766.052C140.266 766.324 140.194 766.6 140.114 766.88L139.298 770H138.146ZM148.153 770.144C147.761 770.144 147.393 770.076 147.049 769.94C146.713 769.796 146.417 769.596 146.161 769.34C145.913 769.076 145.717 768.756 145.573 768.38C145.429 768.004 145.357 767.576 145.357 767.096C145.357 766.616 145.429 766.188 145.573 765.812C145.725 765.428 145.921 765.104 146.161 764.84C146.409 764.576 146.689 764.376 147.001 764.24C147.313 764.096 147.637 764.024 147.973 764.024C148.341 764.024 148.669 764.088 148.957 764.216C149.253 764.344 149.497 764.528 149.689 764.768C149.889 765.008 150.041 765.296 150.145 765.632C150.249 765.968 150.301 766.344 150.301 766.76C150.301 766.864 150.297 766.968 150.289 767.072C150.289 767.168 150.281 767.252 150.265 767.324H146.329C146.369 767.948 146.561 768.444 146.905 768.812C147.257 769.172 147.713 769.352 148.273 769.352C148.553 769.352 148.809 769.312 149.041 769.232C149.281 769.144 149.509 769.032 149.725 768.896L150.073 769.544C149.817 769.704 149.533 769.844 149.221 769.964C148.909 770.084 148.553 770.144 148.153 770.144ZM146.317 766.616H149.437C149.437 766.024 149.309 765.576 149.053 765.272C148.805 764.96 148.453 764.804 147.997 764.804C147.789 764.804 147.589 764.844 147.397 764.924C147.213 765.004 147.045 765.124 146.893 765.284C146.741 765.436 146.613 765.624 146.509 765.848C146.413 766.072 146.349 766.328 146.317 766.616ZM151.742 770V764.168H152.558L152.642 765.224H152.678C152.878 764.856 153.118 764.564 153.398 764.348C153.686 764.132 153.998 764.024 154.334 764.024C154.566 764.024 154.774 764.064 154.958 764.144L154.766 765.008C154.67 764.976 154.582 764.952 154.502 764.936C154.422 764.92 154.322 764.912 154.202 764.912C153.954 764.912 153.694 765.012 153.422 765.212C153.158 765.412 152.926 765.76 152.726 766.256V770H151.742ZM158.149 770.144C157.757 770.144 157.389 770.076 157.045 769.94C156.709 769.796 156.413 769.596 156.157 769.34C155.909 769.076 155.713 768.756 155.569 768.38C155.425 768.004 155.353 767.576 155.353 767.096C155.353 766.616 155.425 766.188 155.569 765.812C155.721 765.428 155.917 765.104 156.157 764.84C156.405 764.576 156.685 764.376 156.997 764.24C157.309 764.096 157.633 764.024 157.969 764.024C158.337 764.024 158.665 764.088 158.953 764.216C159.249 764.344 159.493 764.528 159.685 764.768C159.885 765.008 160.037 765.296 160.141 765.632C160.245 765.968 160.297 766.344 160.297 766.76C160.297 766.864 160.293 766.968 160.285 767.072C160.285 767.168 160.277 767.252 160.261 767.324H156.325C156.365 767.948 156.557 768.444 156.901 768.812C157.253 769.172 157.709 769.352 158.269 769.352C158.549 769.352 158.805 769.312 159.037 769.232C159.277 769.144 159.505 769.032 159.721 768.896L160.069 769.544C159.813 769.704 159.529 769.844 159.217 769.964C158.905 770.084 158.549 770.144 158.149 770.144ZM156.313 766.616H159.433C159.433 766.024 159.305 765.576 159.049 765.272C158.801 764.96 158.449 764.804 157.993 764.804C157.785 764.804 157.585 764.844 157.393 764.924C157.209 765.004 157.041 765.124 156.889 765.284C156.737 765.436 156.609 765.624 156.505 765.848C156.409 766.072 156.345 766.328 156.313 766.616ZM163.73 770.144C162.994 770.144 162.406 769.88 161.966 769.352C161.534 768.824 161.318 768.072 161.318 767.096C161.318 766.624 161.386 766.2 161.522 765.824C161.666 765.44 161.854 765.116 162.086 764.852C162.318 764.588 162.586 764.384 162.89 764.24C163.194 764.096 163.514 764.024 163.85 764.024C164.186 764.024 164.478 764.084 164.726 764.204C164.974 764.324 165.226 764.488 165.482 764.696L165.434 763.7V761.456H166.43V770H165.614L165.53 769.316H165.494C165.262 769.54 164.994 769.736 164.69 769.904C164.394 770.064 164.074 770.144 163.73 770.144ZM163.946 769.316C164.218 769.316 164.474 769.252 164.714 769.124C164.954 768.988 165.194 768.784 165.434 768.512V765.464C165.186 765.24 164.946 765.084 164.714 764.996C164.49 764.9 164.258 764.852 164.018 764.852C163.786 764.852 163.566 764.908 163.358 765.02C163.158 765.124 162.982 765.276 162.83 765.476C162.678 765.668 162.558 765.9 162.47 766.172C162.382 766.444 162.338 766.748 162.338 767.084C162.338 767.788 162.478 768.336 162.758 768.728C163.038 769.12 163.434 769.316 163.946 769.316ZM173.377 770.144C173.105 770.144 172.821 770.08 172.525 769.952C172.237 769.816 171.965 769.632 171.709 769.4H171.673L171.589 770H170.797V761.456H171.781V763.784L171.757 764.84C172.021 764.608 172.309 764.416 172.621 764.264C172.933 764.104 173.253 764.024 173.581 764.024C173.957 764.024 174.289 764.096 174.577 764.24C174.865 764.376 175.105 764.576 175.297 764.84C175.497 765.096 175.645 765.408 175.741 765.776C175.845 766.136 175.897 766.54 175.897 766.988C175.897 767.484 175.829 767.928 175.693 768.32C175.557 768.712 175.373 769.044 175.141 769.316C174.909 769.588 174.641 769.796 174.337 769.94C174.033 770.076 173.713 770.144 173.377 770.144ZM173.209 769.316C173.449 769.316 173.669 769.264 173.869 769.16C174.077 769.048 174.253 768.896 174.397 768.704C174.549 768.504 174.665 768.26 174.745 767.972C174.833 767.684 174.877 767.36 174.877 767C174.877 766.68 174.849 766.388 174.793 766.124C174.737 765.86 174.645 765.636 174.517 765.452C174.397 765.26 174.237 765.112 174.037 765.008C173.845 764.904 173.613 764.852 173.34 764.852C172.869 764.852 172.349 765.116 171.781 765.644V768.704C172.037 768.928 172.289 769.088 172.537 769.184C172.793 769.272 173.017 769.316 173.209 769.316ZM177.478 772.508C177.342 772.508 177.218 772.496 177.106 772.472C176.994 772.456 176.89 772.428 176.794 772.388L176.986 771.608C177.05 771.624 177.122 771.64 177.202 771.656C177.282 771.68 177.358 771.692 177.43 771.692C177.766 771.692 178.038 771.572 178.246 771.332C178.462 771.1 178.63 770.804 178.75 770.444L178.882 770.012L176.542 764.168H177.562L178.75 767.396C178.838 767.652 178.93 767.924 179.026 768.212C179.13 768.492 179.226 768.768 179.314 769.04H179.362C179.45 768.776 179.534 768.5 179.614 768.212C179.694 767.924 179.774 767.652 179.854 767.396L180.898 764.168H181.858L179.662 770.48C179.558 770.768 179.442 771.036 179.314 771.284C179.186 771.532 179.034 771.744 178.858 771.92C178.682 772.104 178.482 772.248 178.258 772.352C178.034 772.456 177.774 772.508 177.478 772.508Z" fill="white"/>
<path d="M80.1102 399.376C80.1102 395.728 77.6142 392.656 73.1342 392.656H65.9982C64.7182 392.656 63.6942 393.712 63.6942 394.96V412.304C63.6942 413.328 64.5262 414.192 65.5502 414.192C66.6382 414.192 67.5022 413.328 67.5022 412.304V406.064H73.1342C77.5822 406.064 80.1102 402.992 80.1102 399.376ZM76.2062 399.376C76.2062 401.36 74.7022 402.704 72.6222 402.704H67.5022V396.016H72.6222C74.7022 396.016 76.2062 397.328 76.2062 399.376ZM96.9469 405.712C96.9469 405.04 96.7549 404.304 96.5629 403.664C95.6029 400.336 92.9789 398.16 89.3629 398.16C84.7869 398.16 81.5229 401.776 81.5229 406.256C81.5229 411.152 84.9789 414.384 89.6189 414.384C91.6029 414.384 95.5709 413.584 95.5709 411.824C95.5709 410.992 94.8349 410.416 94.1309 410.416C93.9069 410.416 93.6509 410.48 93.4269 410.608C92.3709 411.28 91.0909 411.632 89.9709 411.632C87.0909 411.632 85.3309 409.68 85.1069 407.376H95.2829C96.2109 407.376 96.9469 406.608 96.9469 405.712ZM93.6509 405.008H85.0749C85.2349 403.152 86.5469 400.912 89.3629 400.912C92.3709 400.912 93.5869 403.216 93.6509 405.008ZM108.726 399.824C108.726 398.992 108.15 398.352 107.222 398.352C105.59 398.352 104.374 399.696 103.542 400.816V400.016C103.542 399.12 102.774 398.352 101.878 398.352C100.854 398.352 100.118 399.12 100.118 400.016V412.496C100.118 413.424 100.854 414.192 101.782 414.192H101.846C102.774 414.192 103.542 413.424 103.542 412.496V403.504C104.374 402.32 105.686 401.744 107.062 401.616C108.022 401.488 108.726 400.848 108.726 399.824ZM122.809 409.52C122.809 403.376 113.497 405.424 113.497 402.704C113.497 401.648 114.585 400.816 116.313 400.816C117.689 400.816 119.001 401.232 119.993 401.904C120.217 402.032 120.473 402.096 120.697 402.096C121.433 402.096 122.073 401.52 122.073 400.784C122.073 400.496 121.977 400.24 121.785 400.016C120.729 398.8 118.393 398.16 116.313 398.16C112.377 398.16 110.169 400.336 110.169 402.864C110.169 408.816 119.513 406.64 119.513 409.648C119.513 410.832 118.521 411.696 116.505 411.696C115.033 411.696 113.433 411.12 112.249 410.32C112.025 410.16 111.737 410.096 111.481 410.096C110.713 410.096 110.009 410.736 110.009 411.536C110.009 411.856 110.137 412.144 110.329 412.368C111.545 413.744 114.297 414.384 116.377 414.384C120.537 414.384 122.809 412.272 122.809 409.52ZM140.957 406.256C140.957 401.84 137.949 398.16 132.989 398.16C128.029 398.16 125.021 401.84 125.021 406.256C125.021 410.704 128.029 414.384 132.989 414.384C137.949 414.384 140.957 410.704 140.957 406.256ZM137.373 406.256C137.373 408.976 135.805 411.344 132.989 411.344C130.141 411.344 128.573 408.976 128.573 406.256C128.573 403.568 130.141 401.2 132.989 401.2C135.805 401.2 137.373 403.568 137.373 406.256ZM158.003 412.496V403.12C158.003 399.984 156.339 398.16 153.011 398.16C150.547 398.16 148.595 399.44 147.571 400.656V400.016C147.571 399.12 146.803 398.352 145.907 398.352C144.883 398.352 144.147 399.12 144.147 400.016V412.496C144.147 413.424 144.883 414.192 145.843 414.192C146.803 414.192 147.571 413.424 147.571 412.496V403.248C148.307 402.192 149.779 401.2 151.475 401.2C153.363 401.2 154.579 402 154.579 404.368V412.496C154.579 413.424 155.315 414.192 156.275 414.192C157.235 414.192 158.003 413.424 158.003 412.496ZM174.989 412.496V403.76C174.989 399.6 171.949 398.16 168.525 398.16C166.573 398.16 163.725 398.8 162.509 400.336C162.349 400.528 162.253 400.816 162.253 401.072C162.253 401.904 162.957 402.416 163.597 402.416C163.853 402.416 164.109 402.32 164.301 402.192C165.421 401.36 166.637 401.008 167.981 401.008C170.093 401.008 171.565 402.096 171.565 403.856V406.224C170.477 404.912 168.653 404.24 166.605 404.24C164.077 404.24 161.197 405.712 161.197 409.264C161.197 412.688 164.077 414.384 166.605 414.384C168.621 414.384 170.445 413.648 171.565 412.336V412.624C171.565 413.808 172.653 414.192 173.101 414.192H173.293C174.221 414.192 174.989 413.424 174.989 412.496ZM171.565 410.448C170.797 411.504 169.389 412.016 167.917 412.016C166.093 412.016 164.685 410.96 164.685 409.328C164.685 407.632 166.093 406.608 167.917 406.608C169.389 406.608 170.797 407.12 171.565 408.144V410.448ZM182.59 412.496V394.128C182.59 393.232 181.822 392.464 180.926 392.464C179.902 392.464 179.166 393.232 179.166 394.128V412.496C179.166 413.424 179.902 414.192 180.862 414.192C181.822 414.192 182.59 413.424 182.59 412.496ZM207.611 412.496V403.76C207.611 399.6 204.571 398.16 201.147 398.16C199.195 398.16 196.347 398.8 195.131 400.336C194.971 400.528 194.875 400.816 194.875 401.072C194.875 401.904 195.579 402.416 196.219 402.416C196.475 402.416 196.731 402.32 196.923 402.192C198.043 401.36 199.259 401.008 200.603 401.008C202.715 401.008 204.187 402.096 204.187 403.856V406.224C203.099 404.912 201.275 404.24 199.227 404.24C196.699 404.24 193.819 405.712 193.819 409.264C193.819 412.688 196.699 414.384 199.227 414.384C201.243 414.384 203.067 413.648 204.187 412.336V412.624C204.187 413.808 205.275 414.192 205.723 414.192H205.915C206.843 414.192 207.611 413.424 207.611 412.496ZM204.187 410.448C203.419 411.504 202.011 412.016 200.539 412.016C198.715 412.016 197.307 410.96 197.307 409.328C197.307 407.632 198.715 406.608 200.539 406.608C202.011 406.608 203.419 407.12 204.187 408.144V410.448ZM224.301 411.6C224.301 410.704 223.501 410.096 222.669 410.096C222.317 410.096 221.997 410.192 221.677 410.416C220.877 411.024 220.013 411.344 218.989 411.344C216.205 411.344 214.349 409.232 214.349 406.256C214.349 403.28 216.205 401.2 218.989 401.2C219.981 401.2 220.877 401.488 221.677 402.096C221.965 402.32 222.317 402.416 222.669 402.416C223.469 402.416 224.269 401.84 224.269 400.944C224.269 400.688 224.205 400.432 224.045 400.24C223.181 398.992 221.197 398.16 218.829 398.16C214.125 398.16 210.829 401.584 210.829 406.256C210.829 410.96 214.125 414.384 218.829 414.384C221.069 414.384 222.669 413.68 223.789 412.656C224.141 412.4 224.301 411.984 224.301 411.6ZM240.03 411.6C240.03 410.704 239.23 410.096 238.398 410.096C238.046 410.096 237.726 410.192 237.406 410.416C236.606 411.024 235.742 411.344 234.718 411.344C231.934 411.344 230.078 409.232 230.078 406.256C230.078 403.28 231.934 401.2 234.718 401.2C235.71 401.2 236.606 401.488 237.406 402.096C237.694 402.32 238.046 402.416 238.398 402.416C239.198 402.416 239.998 401.84 239.998 400.944C239.998 400.688 239.934 400.432 239.774 400.24C238.91 398.992 236.926 398.16 234.558 398.16C229.854 398.16 226.558 401.584 226.558 406.256C226.558 410.96 229.854 414.384 234.558 414.384C236.798 414.384 238.398 413.68 239.518 412.656C239.87 412.4 240.03 411.984 240.03 411.6ZM258.222 406.256C258.222 401.84 255.214 398.16 250.254 398.16C245.294 398.16 242.286 401.84 242.286 406.256C242.286 410.704 245.294 414.384 250.254 414.384C255.214 414.384 258.222 410.704 258.222 406.256ZM254.638 406.256C254.638 408.976 253.07 411.344 250.254 411.344C247.406 411.344 245.838 408.976 245.838 406.256C245.838 403.568 247.406 401.2 250.254 401.2C253.07 401.2 254.638 403.568 254.638 406.256ZM275.268 412.496V400.016C275.268 399.12 274.5 398.352 273.604 398.352C272.58 398.352 271.844 399.12 271.844 400.016V409.36C271.044 410.384 269.604 411.344 267.908 411.344C266.052 411.344 264.836 410.608 264.836 408.24V400.016C264.836 399.12 264.068 398.352 263.172 398.352C262.148 398.352 261.412 399.12 261.412 400.016V409.488C261.412 412.624 263.044 414.384 266.372 414.384C268.804 414.384 270.724 413.2 271.844 411.952V412.496C271.844 413.424 272.58 414.192 273.54 414.192C274.5 414.192 275.268 413.424 275.268 412.496ZM293.278 412.496V403.12C293.278 399.984 291.614 398.16 288.286 398.16C285.822 398.16 283.87 399.44 282.846 400.656V400.016C282.846 399.12 282.078 398.352 281.182 398.352C280.158 398.352 279.422 399.12 279.422 400.016V412.496C279.422 413.424 280.158 414.192 281.118 414.192C282.078 414.192 282.846 413.424 282.846 412.496V403.248C283.582 402.192 285.054 401.2 286.75 401.2C288.638 401.2 289.854 402 289.854 404.368V412.496C289.854 413.424 290.59 414.192 291.55 414.192C292.51 414.192 293.278 413.424 293.278 412.496ZM305.208 412.72C305.208 411.888 304.632 411.248 303.704 411.248C303.512 411.248 303.224 411.344 303 411.344C302.2 411.344 301.528 410.704 301.528 409.52V401.552H303.416C304.216 401.552 304.856 400.88 304.856 400.08C304.856 399.216 304.216 398.544 303.416 398.544H301.528V395.824C301.528 394.896 300.792 394.128 299.864 394.128C298.872 394.128 298.104 394.896 298.104 395.824V398.544H296.824C296.024 398.544 295.352 399.216 295.352 400.016C295.352 400.88 296.024 401.552 296.824 401.552H298.104V410.384C298.104 412.976 299.48 414.384 302.104 414.384C304.28 414.384 305.208 413.744 305.208 412.72ZM104.613 442.064C104.613 440.976 102.949 440.336 101.189 440.336C98.2134 440.336 96.2614 442.32 96.2614 445.584V446.544H94.9814C94.1814 446.544 93.5094 447.216 93.5094 448.016C93.5094 448.88 94.1814 449.552 94.9814 449.552H96.2614V460.496C96.2614 461.424 97.0294 462.192 97.9574 462.192C98.9494 462.192 99.7174 461.424 99.7174 460.496V449.552H101.573C102.373 449.552 103.045 448.88 103.045 448.08C103.045 447.216 102.373 446.544 101.573 446.544H99.7174V445.584C99.7174 443.952 100.517 443.056 101.829 443.056C102.501 443.056 102.917 443.376 103.397 443.376C103.973 443.376 104.613 442.896 104.613 442.064ZM120.166 454.256C120.166 449.84 117.158 446.16 112.198 446.16C107.238 446.16 104.23 449.84 104.23 454.256C104.23 458.704 107.238 462.384 112.198 462.384C117.158 462.384 120.166 458.704 120.166 454.256ZM116.582 454.256C116.582 456.976 115.014 459.344 112.198 459.344C109.35 459.344 107.782 456.976 107.782 454.256C107.782 451.568 109.35 449.2 112.198 449.2C115.014 449.2 116.582 451.568 116.582 454.256ZM131.964 447.824C131.964 446.992 131.388 446.352 130.46 446.352C128.828 446.352 127.612 447.696 126.78 448.816V448.016C126.78 447.12 126.012 446.352 125.116 446.352C124.092 446.352 123.356 447.12 123.356 448.016V460.496C123.356 461.424 124.092 462.192 125.02 462.192H125.084C126.012 462.192 126.78 461.424 126.78 460.496V451.504C127.612 450.32 128.924 449.744 130.3 449.616C131.26 449.488 131.964 448.848 131.964 447.824ZM157.288 460.272C157.288 459.376 156.552 458.64 155.656 458.64H146.248V452.816H155.432C156.328 452.816 157.064 452.08 157.064 451.152C157.064 450.192 156.328 449.456 155.432 449.456H146.248V444.016H155.656C156.552 444.016 157.288 443.28 157.288 442.352C157.288 441.392 156.552 440.656 155.656 440.656H144.744C143.464 440.656 142.44 441.712 142.44 442.96V459.696C142.44 460.944 143.464 462 144.744 462H155.656C156.552 462 157.288 461.264 157.288 460.272ZM174.938 460.496V442.16C174.938 441.232 174.17 440.464 173.274 440.464C172.25 440.464 171.514 441.232 171.514 442.16V448.656C170.266 447.056 168.474 446.16 166.554 446.16C162.586 446.16 159.706 449.296 159.706 454.288C159.706 459.376 162.618 462.384 166.554 462.384C168.538 462.384 170.298 461.456 171.514 459.888V460.496C171.514 461.424 172.25 462.192 173.21 462.192C174.17 462.192 174.938 461.424 174.938 460.496ZM171.514 457.328C170.746 458.448 169.146 459.344 167.546 459.344C164.922 459.344 163.226 457.232 163.226 454.288C163.226 451.312 164.922 449.2 167.546 449.2C169.146 449.2 170.746 450.096 171.514 451.248V457.328ZM192.97 460.496V448.016C192.97 447.12 192.202 446.352 191.306 446.352C190.282 446.352 189.546 447.12 189.546 448.016V457.36C188.746 458.384 187.306 459.344 185.61 459.344C183.754 459.344 182.538 458.608 182.538 456.24V448.016C182.538 447.12 181.77 446.352 180.874 446.352C179.85 446.352 179.114 447.12 179.114 448.016V457.488C179.114 460.624 180.746 462.384 184.074 462.384C186.506 462.384 188.426 461.2 189.546 459.952V460.496C189.546 461.424 190.282 462.192 191.242 462.192C192.202 462.192 192.97 461.424 192.97 460.496ZM209.635 459.6C209.635 458.704 208.835 458.096 208.003 458.096C207.651 458.096 207.331 458.192 207.011 458.416C206.211 459.024 205.347 459.344 204.323 459.344C201.539 459.344 199.683 457.232 199.683 454.256C199.683 451.28 201.539 449.2 204.323 449.2C205.315 449.2 206.211 449.488 207.011 450.096C207.299 450.32 207.651 450.416 208.003 450.416C208.803 450.416 209.603 449.84 209.603 448.944C209.603 448.688 209.539 448.432 209.379 448.24C208.515 446.992 206.531 446.16 204.163 446.16C199.459 446.16 196.163 449.584 196.163 454.256C196.163 458.96 199.459 462.384 204.163 462.384C206.403 462.384 208.003 461.68 209.123 460.656C209.475 460.4 209.635 459.984 209.635 459.6ZM225.684 460.496V451.76C225.684 447.6 222.644 446.16 219.22 446.16C217.268 446.16 214.42 446.8 213.204 448.336C213.044 448.528 212.948 448.816 212.948 449.072C212.948 449.904 213.652 450.416 214.292 450.416C214.548 450.416 214.804 450.32 214.996 450.192C216.116 449.36 217.332 449.008 218.676 449.008C220.788 449.008 222.26 450.096 222.26 451.856V454.224C221.172 452.912 219.348 452.24 217.3 452.24C214.772 452.24 211.892 453.712 211.892 457.264C211.892 460.688 214.772 462.384 217.3 462.384C219.316 462.384 221.14 461.648 222.26 460.336V460.624C222.26 461.808 223.348 462.192 223.796 462.192H223.988C224.916 462.192 225.684 461.424 225.684 460.496ZM222.26 458.448C221.492 459.504 220.084 460.016 218.612 460.016C216.788 460.016 215.38 458.96 215.38 457.328C215.38 455.632 216.788 454.608 218.612 454.608C220.084 454.608 221.492 455.12 222.26 456.144V458.448ZM237.637 460.72C237.637 459.888 237.061 459.248 236.133 459.248C235.941 459.248 235.653 459.344 235.429 459.344C234.629 459.344 233.957 458.704 233.957 457.52V449.552H235.845C236.645 449.552 237.285 448.88 237.285 448.08C237.285 447.216 236.645 446.544 235.845 446.544H233.957V443.824C233.957 442.896 233.221 442.128 232.293 442.128C231.301 442.128 230.533 442.896 230.533 443.824V446.544H229.253C228.453 446.544 227.781 447.216 227.781 448.016C227.781 448.88 228.453 449.552 229.253 449.552H230.533V458.384C230.533 460.976 231.909 462.384 234.533 462.384C236.709 462.384 237.637 461.744 237.637 460.72ZM241.661 440.464C240.509 440.464 239.549 441.392 239.549 442.544C239.549 443.728 240.509 444.656 241.661 444.656C242.813 444.656 243.773 443.728 243.773 442.544C243.773 441.392 242.813 440.464 241.661 440.464ZM243.389 460.496V448.016C243.389 447.12 242.621 446.352 241.725 446.352C240.701 446.352 239.965 447.12 239.965 448.016V460.496C239.965 461.424 240.701 462.192 241.661 462.192C242.621 462.192 243.389 461.424 243.389 460.496ZM262.513 454.256C262.513 449.84 259.505 446.16 254.545 446.16C249.585 446.16 246.577 449.84 246.577 454.256C246.577 458.704 249.585 462.384 254.545 462.384C259.505 462.384 262.513 458.704 262.513 454.256ZM258.929 454.256C258.929 456.976 257.361 459.344 254.545 459.344C251.697 459.344 250.129 456.976 250.129 454.256C250.129 451.568 251.697 449.2 254.545 449.2C257.361 449.2 258.929 451.568 258.929 454.256ZM279.559 460.496V451.12C279.559 447.984 277.895 446.16 274.567 446.16C272.103 446.16 270.151 447.44 269.127 448.656V448.016C269.127 447.12 268.359 446.352 267.463 446.352C266.439 446.352 265.703 447.12 265.703 448.016V460.496C265.703 461.424 266.439 462.192 267.399 462.192C268.359 462.192 269.127 461.424 269.127 460.496V451.248C269.863 450.192 271.335 449.2 273.031 449.2C274.919 449.2 276.135 450 276.135 452.368V460.496C276.135 461.424 276.871 462.192 277.831 462.192C278.791 462.192 279.559 461.424 279.559 460.496ZM106.205 508.496V499.76C106.205 495.6 103.165 494.16 99.7405 494.16C97.7885 494.16 94.9405 494.8 93.7245 496.336C93.5645 496.528 93.4685 496.816 93.4685 497.072C93.4685 497.904 94.1725 498.416 94.8125 498.416C95.0685 498.416 95.3245 498.32 95.5165 498.192C96.6365 497.36 97.8525 497.008 99.1965 497.008C101.309 497.008 102.781 498.096 102.781 499.856V502.224C101.693 500.912 99.8685 500.24 97.8205 500.24C95.2925 500.24 92.4125 501.712 92.4125 505.264C92.4125 508.688 95.2925 510.384 97.8205 510.384C99.8365 510.384 101.661 509.648 102.781 508.336V508.624C102.781 509.808 103.869 510.192 104.317 510.192H104.509C105.437 510.192 106.205 509.424 106.205 508.496ZM102.781 506.448C102.013 507.504 100.605 508.016 99.1325 508.016C97.3085 508.016 95.9005 506.96 95.9005 505.328C95.9005 503.632 97.3085 502.608 99.1325 502.608C100.605 502.608 102.013 503.12 102.781 504.144V506.448ZM124.238 508.496V499.12C124.238 495.984 122.574 494.16 119.246 494.16C116.782 494.16 114.83 495.44 113.806 496.656V496.016C113.806 495.12 113.038 494.352 112.142 494.352C111.118 494.352 110.382 495.12 110.382 496.016V508.496C110.382 509.424 111.118 510.192 112.078 510.192C113.038 510.192 113.806 509.424 113.806 508.496V499.248C114.542 498.192 116.014 497.2 117.71 497.2C119.598 497.2 120.814 498 120.814 500.368V508.496C120.814 509.424 121.55 510.192 122.51 510.192C123.47 510.192 124.238 509.424 124.238 508.496ZM142.664 508.496V490.16C142.664 489.232 141.896 488.464 141 488.464C139.976 488.464 139.24 489.232 139.24 490.16V496.656C137.992 495.056 136.2 494.16 134.28 494.16C130.312 494.16 127.432 497.296 127.432 502.288C127.432 507.376 130.344 510.384 134.28 510.384C136.264 510.384 138.024 509.456 139.24 507.888V508.496C139.24 509.424 139.976 510.192 140.936 510.192C141.896 510.192 142.664 509.424 142.664 508.496ZM139.24 505.328C138.472 506.448 136.872 507.344 135.272 507.344C132.648 507.344 130.952 505.232 130.952 502.288C130.952 499.312 132.648 497.2 135.272 497.2C136.872 497.2 138.472 498.096 139.24 499.248V505.328ZM171.392 495.376C171.392 491.408 168.64 488.656 164.416 488.656H157.28C156 488.656 154.976 489.712 154.976 490.96V508.304C154.976 509.328 155.808 510.192 156.832 510.192C157.92 510.192 158.784 509.328 158.784 508.304V502.064H162.464L166.72 509.264C167.072 509.872 167.68 510.192 168.32 510.192C169.44 510.192 170.208 509.232 170.208 508.336C170.208 508.016 170.112 507.696 169.952 507.408L166.4 501.648C168.928 501.232 171.392 499.152 171.392 495.376ZM163.872 492.016C165.952 492.016 167.488 493.328 167.488 495.376C167.488 497.392 165.952 498.704 163.872 498.704H158.784V492.016H163.872ZM188.354 501.712C188.354 501.04 188.162 500.304 187.97 499.664C187.01 496.336 184.386 494.16 180.77 494.16C176.194 494.16 172.93 497.776 172.93 502.256C172.93 507.152 176.386 510.384 181.026 510.384C183.01 510.384 186.978 509.584 186.978 507.824C186.978 506.992 186.242 506.416 185.538 506.416C185.314 506.416 185.058 506.48 184.834 506.608C183.778 507.28 182.498 507.632 181.378 507.632C178.498 507.632 176.738 505.68 176.514 503.376H186.69C187.618 503.376 188.354 502.608 188.354 501.712ZM185.058 501.008H176.482C176.642 499.152 177.954 496.912 180.77 496.912C183.778 496.912 184.994 499.216 185.058 501.008ZM203.269 505.52C203.269 499.376 193.957 501.424 193.957 498.704C193.957 497.648 195.045 496.816 196.773 496.816C198.149 496.816 199.461 497.232 200.453 497.904C200.677 498.032 200.933 498.096 201.157 498.096C201.893 498.096 202.533 497.52 202.533 496.784C202.533 496.496 202.437 496.24 202.245 496.016C201.189 494.8 198.853 494.16 196.773 494.16C192.837 494.16 190.629 496.336 190.629 498.864C190.629 504.816 199.973 502.64 199.973 505.648C199.973 506.832 198.981 507.696 196.965 507.696C195.493 507.696 193.893 507.12 192.709 506.32C192.485 506.16 192.197 506.096 191.941 506.096C191.173 506.096 190.469 506.736 190.469 507.536C190.469 507.856 190.597 508.144 190.789 508.368C192.005 509.744 194.757 510.384 196.837 510.384C200.997 510.384 203.269 508.272 203.269 505.52ZM220.905 501.712C220.905 501.04 220.713 500.304 220.521 499.664C219.561 496.336 216.937 494.16 213.321 494.16C208.745 494.16 205.481 497.776 205.481 502.256C205.481 507.152 208.937 510.384 213.577 510.384C215.561 510.384 219.529 509.584 219.529 507.824C219.529 506.992 218.793 506.416 218.089 506.416C217.865 506.416 217.609 506.48 217.385 506.608C216.329 507.28 215.049 507.632 213.929 507.632C211.049 507.632 209.289 505.68 209.065 503.376H219.241C220.169 503.376 220.905 502.608 220.905 501.712ZM217.609 501.008H209.033C209.193 499.152 210.505 496.912 213.321 496.912C216.329 496.912 217.545 499.216 217.609 501.008ZM236.907 508.496V499.76C236.907 495.6 233.867 494.16 230.443 494.16C228.491 494.16 225.643 494.8 224.427 496.336C224.267 496.528 224.171 496.816 224.171 497.072C224.171 497.904 224.875 498.416 225.515 498.416C225.771 498.416 226.027 498.32 226.219 498.192C227.339 497.36 228.555 497.008 229.899 497.008C232.011 497.008 233.483 498.096 233.483 499.856V502.224C232.395 500.912 230.571 500.24 228.523 500.24C225.995 500.24 223.115 501.712 223.115 505.264C223.115 508.688 225.995 510.384 228.523 510.384C230.539 510.384 232.363 509.648 233.483 508.336V508.624C233.483 509.808 234.571 510.192 235.019 510.192H235.211C236.139 510.192 236.907 509.424 236.907 508.496ZM233.483 506.448C232.715 507.504 231.307 508.016 229.835 508.016C228.011 508.016 226.603 506.96 226.603 505.328C226.603 503.632 228.011 502.608 229.835 502.608C231.307 502.608 232.715 503.12 233.483 504.144V506.448ZM249.693 495.824C249.693 494.992 249.117 494.352 248.189 494.352C246.557 494.352 245.341 495.696 244.509 496.816V496.016C244.509 495.12 243.741 494.352 242.845 494.352C241.821 494.352 241.085 495.12 241.085 496.016V508.496C241.085 509.424 241.821 510.192 242.749 510.192H242.813C243.741 510.192 244.509 509.424 244.509 508.496V499.504C245.341 498.32 246.653 497.744 248.029 497.616C248.989 497.488 249.693 496.848 249.693 495.824ZM264.544 507.6C264.544 506.704 263.744 506.096 262.912 506.096C262.56 506.096 262.24 506.192 261.92 506.416C261.12 507.024 260.256 507.344 259.232 507.344C256.448 507.344 254.592 505.232 254.592 502.256C254.592 499.28 256.448 497.2 259.232 497.2C260.224 497.2 261.12 497.488 261.92 498.096C262.208 498.32 262.56 498.416 262.912 498.416C263.712 498.416 264.512 497.84 264.512 496.944C264.512 496.688 264.448 496.432 264.288 496.24C263.424 494.992 261.44 494.16 259.072 494.16C254.368 494.16 251.072 497.584 251.072 502.256C251.072 506.96 254.368 510.384 259.072 510.384C261.312 510.384 262.912 509.68 264.032 508.656C264.384 508.4 264.544 507.984 264.544 507.6ZM281.649 508.496V499.056C281.649 495.92 279.985 494.16 276.657 494.16C274.193 494.16 272.209 495.44 271.185 496.656V490.128C271.185 489.232 270.417 488.464 269.521 488.464C268.497 488.464 267.761 489.232 267.761 490.128V508.496C267.761 509.424 268.497 510.192 269.457 510.192C270.417 510.192 271.185 509.424 271.185 508.496V499.248C271.953 498.192 273.425 497.2 275.089 497.2C276.977 497.2 278.225 497.936 278.225 500.304V508.496C278.225 509.424 278.961 510.192 279.921 510.192C280.881 510.192 281.649 509.424 281.649 508.496Z" fill="white"/>
</g>
<defs>
<clipPath id="clip0_1161_11978">
<rect width="375" height="812" fill="white"/>
</clipPath>
<clipPath id="clip1_1161_11978">
<rect width="224.889" height="88" fill="white" transform="translate(75.5547 258)"/>
</clipPath>
</defs>
</svg>

