<svg width="40" height="40" viewBox="0 0 40 40" fill="none" xmlns="http://www.w3.org/2000/svg">
<g clip-path="url(#clip0_49_16825)">
<path d="M10 38.7517H30M31.25 12.5017V16.2517M31.25 12.5017L20 17.5017L8.75 12.5017L20 7.50171L31.25 12.5017ZM26.25 14.725V21.2517C24.546 22.8194 22.3268 23.7088 20.0117 23.7517C17.6904 23.7051 15.4651 22.8166 13.75 21.2517V14.725M3.75 1.25171H36.25C37.6307 1.25171 38.75 2.371 38.75 3.75171V28.7517C38.75 30.1324 37.6307 31.2517 36.25 31.2517H3.75C2.36929 31.2517 1.25 30.1324 1.25 28.7517V3.75171C1.25 2.371 2.36929 1.25171 3.75 1.25171ZM26.25 38.7517H13.75L15 31.2517H25L26.25 38.7517Z" stroke="#008939" stroke-width="1.5" stroke-linecap="round" stroke-linejoin="round"/>
</g>
<defs>
<clipPath id="clip0_49_16825">
<rect width="40" height="40" fill="white"/>
</clipPath>
</defs>
</svg>
