<svg width="24" height="24" viewBox="0 0 24 24" fill="none" xmlns="http://www.w3.org/2000/svg">
<path d="M3.75 23.7497C1.682 23.7497 0 22.0677 0 19.9997V9.49972C0 7.48772 1.555 5.85972 3.556 5.75872L14.073 0.500719C14.39 0.342719 14.728 0.261719 15.078 0.261719C15.319 0.261719 15.56 0.300719 15.791 0.377719C16.361 0.567719 16.823 0.968719 17.092 1.50672L19.231 5.78472C21.081 6.02372 22.5 7.61472 22.5 9.49972V10.3787C23.385 10.6927 24 11.5407 24 12.4997V16.9997C24 17.9597 23.385 18.8077 22.5 19.1207V19.9997C22.5 22.0677 20.818 23.7497 18.75 23.7497H3.75ZM3.75 7.24972C2.509 7.24972 1.5 8.25872 1.5 9.49972V19.9997C1.5 21.2407 2.509 22.2497 3.75 22.2497H18.75C19.991 22.2497 21 21.2407 21 19.9997V19.2497H18C15.519 19.2497 13.5 17.2307 13.5 14.7497C13.5 12.2687 15.519 10.2497 18 10.2497H21V9.49972C21 8.25972 19.991 7.24972 18.751 7.24972C18.75 7.24972 3.75 7.24972 3.75 7.24972ZM18 11.7497C16.346 11.7497 15 13.0957 15 14.7497C15 16.4037 16.346 17.7497 18 17.7497H21.75C22.164 17.7497 22.5 17.4137 22.5 16.9997V12.4997C22.5 12.0867 22.164 11.7497 21.75 11.7497H18ZM17.536 5.74972L15.75 2.17772C15.66 1.99872 15.507 1.86472 15.317 1.80172C15.239 1.77572 15.159 1.76272 15.078 1.76272C14.962 1.76272 14.849 1.78972 14.744 1.84272L6.927 5.74972H17.536Z" fill="#008939"/>
<path d="M18 15.875C18.6213 15.875 19.125 15.3713 19.125 14.75C19.125 14.1287 18.6213 13.625 18 13.625C17.3787 13.625 16.875 14.1287 16.875 14.75C16.875 15.3713 17.3787 15.875 18 15.875Z" fill="#008939"/>
</svg>
