<svg width="142" height="252" viewBox="0 0 142 252" fill="none" xmlns="http://www.w3.org/2000/svg">
<g clip-path="url(#clip0_1180_9570)">
<path d="M103.449 0H24.3585C12.0575 0 2.08557 9.97192 2.08557 22.2729V203.003C2.08557 215.304 12.0575 225.276 24.3585 225.276H103.449C115.75 225.276 125.722 215.304 125.722 203.003V22.2729C125.722 9.97192 115.75 0 103.449 0Z" fill="#3F3D56"/>
<path d="M123.637 22.275V203.004C123.63 208.356 121.501 213.488 117.717 217.272C113.932 221.057 108.801 223.186 103.449 223.192H24.3595C19.0073 223.186 13.8761 221.057 10.0915 217.272C6.30696 213.488 4.17807 208.356 4.17188 203.004V22.275C4.17807 16.9228 6.30696 11.7916 10.0915 8.00707C13.8761 4.22249 19.0073 2.0936 24.3595 2.0874H34.7017V5.65997C34.7018 7.27733 35.3444 8.82843 36.488 9.97208C37.6317 11.1157 39.1828 11.7583 40.8001 11.7584C54.1896 15.803 69.9065 15.1717 87.0083 11.7584C88.6257 11.7583 90.1768 11.1157 91.3204 9.97208C92.4641 8.82843 93.1066 7.27733 93.1067 5.65997V2.0874H103.449C108.801 2.0936 113.932 4.22249 117.717 8.00707C121.501 11.7916 123.63 16.9228 123.637 22.275Z" fill="white"/>
<path d="M1.51701 45.7009C1.11482 45.7004 0.729226 45.5404 0.444831 45.256C0.160436 44.9716 0.000460726 44.586 0 44.1838V41.1498C0 40.7475 0.159826 40.3616 0.444321 40.0771C0.728816 39.7926 1.11468 39.6328 1.51701 39.6328C1.91935 39.6328 2.30521 39.7926 2.5897 40.0771C2.8742 40.3616 3.03402 40.7475 3.03402 41.1498V44.1838C3.03356 44.586 2.87359 44.9716 2.58919 45.256C2.3048 45.5404 1.91921 45.7004 1.51701 45.7009Z" fill="#3F3D56"/>
<path d="M1.51701 61.2578C1.11482 61.2573 0.729226 61.0974 0.444831 60.813C0.160435 60.5286 0.000459725 60.143 0 59.7408V51.3891C0 50.9867 0.159826 50.6009 0.444321 50.3164C0.728816 50.0319 1.11468 49.8721 1.51701 49.8721C1.91935 49.8721 2.30521 50.0319 2.5897 50.3164C2.8742 50.6009 3.03402 50.9867 3.03402 51.3891V59.7408C3.03356 60.143 2.87359 60.5286 2.58919 60.813C2.3048 61.0974 1.91921 61.2573 1.51701 61.2578Z" fill="#3F3D56"/>
<path d="M1.51701 73.7646C1.11482 73.7642 0.729226 73.6042 0.444831 73.3198C0.160435 73.0354 0.000459725 72.6498 0 72.2476V63.8959C0 63.4936 0.159826 63.1077 0.444321 62.8232C0.728816 62.5387 1.11468 62.3789 1.51701 62.3789C1.91935 62.3789 2.30521 62.5387 2.5897 62.8232C2.8742 63.1077 3.03402 63.4936 3.03402 63.8959V72.2476C3.03356 72.6498 2.87359 73.0354 2.58919 73.3198C2.3048 73.6042 1.91921 73.7642 1.51701 73.7646Z" fill="#3F3D56"/>
<path d="M125.912 43.5278C125.51 43.5275 125.125 43.6867 124.841 43.9705C124.556 44.2542 124.396 44.6393 124.395 45.0411V65.4221C124.395 65.8244 124.555 66.2103 124.84 66.4948C125.124 66.7793 125.51 66.9391 125.912 66.9391C126.315 66.9391 126.7 66.7793 126.985 66.4948C127.269 66.2103 127.429 65.8244 127.429 65.4221V45.0411C127.428 44.6395 127.268 44.2548 126.983 43.9712C126.699 43.6876 126.314 43.5282 125.912 43.5278Z" fill="#3F3D56"/>
<path d="M30.1835 11.0254H19.9437C19.4408 11.0254 18.9585 10.8257 18.6028 10.47C18.2472 10.1144 18.0474 9.6321 18.0474 9.12918C18.0474 8.62625 18.2472 8.14393 18.6028 7.78831C18.9585 7.43269 19.4408 7.23291 19.9437 7.23291H30.1835C30.6864 7.23291 31.1688 7.43269 31.5244 7.78831C31.88 8.14393 32.0798 8.62625 32.0798 9.12918C32.0798 9.6321 31.88 10.1144 31.5244 10.47C31.1688 10.8257 30.6864 11.0254 30.1835 11.0254Z" fill="#E6E6E6"/>
<path d="M89.6774 200.9C86.8238 201.079 85.2467 197.534 87.4056 195.467C87.4846 195.153 87.5414 194.928 87.6204 194.613C87.5921 194.545 87.5637 194.477 87.5351 194.408C84.6492 187.527 78.8059 191.39 72.0075 194.466C66.4003 197.003 60.7487 200.308 65.4383 213.177C66.4234 215.88 65.242 218.94 65.8755 221.742C59.9106 208.73 56.8132 194.588 56.7933 180.274C56.792 176.682 56.9916 173.093 57.391 169.524C57.7212 166.597 58.1791 163.692 58.765 160.807C61.2255 148.802 65.8406 137.341 72.3868 126.981C71.5535 126.992 70.7189 127.001 69.8828 127.008C68.3785 129.464 66.9766 131.978 65.6771 134.551C65.9748 132.053 66.0237 129.531 65.8232 127.023C55.6854 127.02 45.5551 126.696 36.5985 126.051C36.9383 153.501 47.0709 159.225 59.4965 146.078C59.8444 146.256 60.1835 146.435 60.5315 146.604C57.5385 155.086 55.6611 163.921 54.9465 172.887C54.542 178.177 54.5659 183.491 55.0179 188.776C55.009 188.714 55.0001 188.651 54.9912 188.589C53.8491 182.711 50.7136 177.408 46.1141 173.574C39.2828 167.962 29.6315 165.896 22.2617 161.385C18.7141 159.214 14.1681 162.02 14.7872 166.133C14.7971 166.198 14.8072 166.264 14.8174 166.33C15.916 166.777 16.9857 167.293 18.0202 167.873C18.6122 168.207 19.1917 168.562 19.7587 168.937C22.9902 171.074 21.8734 176.083 18.0444 176.674L17.9577 176.688C17.8952 176.697 17.8417 176.706 17.7793 176.714C19.6565 181.196 22.2911 185.322 25.5678 188.91C26.4815 217.103 41.315 213.468 57.1858 202.783H57.1948C58.8064 209.787 61.1416 216.604 64.1626 223.124H89.0536C89.1429 222.848 89.2232 222.562 89.3035 222.286C86.9995 222.431 84.6865 222.293 82.416 221.876C84.2628 219.609 86.1096 217.325 87.9563 215.059C87.9975 215.017 88.0362 214.972 88.0723 214.926C89.0091 213.766 89.9548 212.615 90.8915 211.455L90.892 211.454C90.9419 207.899 90.534 204.352 89.6782 200.901L89.6774 200.9Z" fill="#0062B0"/>
<path d="M63.155 114.925C60.7403 109.1 56.2142 104.193 52.2284 99.1575C47.4408 93.1085 37.6235 95.7484 36.7801 103.416C36.7719 103.491 36.7639 103.565 36.7562 103.639C37.3482 103.973 37.9277 104.328 38.4947 104.703C41.7262 106.84 40.6094 111.849 36.7804 112.44L36.6937 112.454C36.9046 114.587 37.2774 116.702 37.8089 118.779C37.1733 121.159 36.7682 123.594 36.5992 126.052C45.5558 126.697 55.6861 127.021 65.8239 127.025C65.4952 122.566 64.5038 118.176 63.155 114.925Z" fill="#E6E6E6"/>
<path d="M89.2141 107.541C90.1028 105.773 90.7308 103.886 91.0788 101.938C90.5346 102.009 89.0268 93.7211 89.4372 93.2126C88.6788 92.0618 87.3214 91.4897 86.4931 90.3667C82.3737 84.7816 76.6981 85.7568 73.7352 93.3465C67.4058 96.5409 67.3446 101.839 71.2283 106.934C73.6991 110.176 74.0386 114.562 76.2065 118.032C75.9835 118.318 75.7515 118.594 75.5285 118.88C73.2214 121.845 71.0833 124.939 69.1244 128.145C69.9604 128.138 70.795 128.129 71.6283 128.118C73.5944 125.007 75.7334 122.009 78.0354 119.139C82.8597 116.506 86.7612 112.459 89.2141 107.541Z" fill="#E6E6E6"/>
<path opacity="0.1" d="M123.386 22.192V118.727C123.386 129.858 3.92096 129.858 3.92096 118.727V22.192C3.92716 16.8398 6.05605 11.7086 9.84062 7.92406C13.6252 4.13949 18.7564 2.01059 24.1086 2.00439H34.4508V5.57696C34.4509 7.19433 35.0935 8.74542 36.2371 9.88907C37.3808 11.0327 38.9319 11.6753 40.5492 11.6753C53.37 15.702 69.1978 15.0391 86.7574 11.6753C88.3748 11.6753 89.9259 11.0327 91.0695 9.88907C92.2132 8.74542 92.8557 7.19433 92.8558 5.57696V2.00439H103.198C108.55 2.01059 113.681 4.13949 117.466 7.92406C121.251 11.7086 123.379 16.8398 123.386 22.192Z" fill="black"/>
<path d="M75.0131 32.6245H71.5998C70.2927 32.626 69.0395 33.1459 68.1152 34.0702C67.1909 34.9945 66.671 36.2477 66.6695 37.5548V41.3473H60.6015C59.2943 41.3488 58.0411 41.8687 57.1169 42.793C56.1926 43.7173 55.6727 44.9705 55.6712 46.2776V53.8627C55.6727 55.1698 56.1926 56.423 57.1169 57.3473C58.0411 58.2716 59.2943 58.7915 60.6015 58.793H68.1866C69.4937 58.7915 70.7469 58.2716 71.6712 57.3473C72.5955 56.423 73.1154 55.1698 73.1168 53.8627V46.2776C73.1154 44.9705 72.5955 43.7173 71.6712 42.793C70.7469 41.8687 69.4937 41.3488 68.1866 41.3473H67.428V37.5548C67.4293 36.4488 67.8692 35.3884 68.6513 34.6063C69.4334 33.8242 70.4938 33.3843 71.5998 33.383H75.0131C76.1192 33.3843 77.1795 33.8242 77.9616 34.6063C78.7437 35.3884 79.1836 36.4488 79.1849 37.5548V41.7266H79.9434V37.5548C79.942 36.2477 79.422 34.9945 78.4978 34.0702C77.5735 33.1459 76.3203 32.626 75.0131 32.6245ZM72.3583 46.2776V53.8627C72.3571 54.9687 71.9172 56.0291 71.1351 56.8112C70.353 57.5933 69.2926 58.0332 68.1866 58.0345H60.6015C59.4955 58.0332 58.4351 57.5933 57.653 56.8112C56.8709 56.0291 56.431 54.9687 56.4297 53.8627V46.2776C56.431 45.1716 56.8709 44.1112 57.653 43.3291C58.4351 42.547 59.4955 42.1071 60.6015 42.1058C64.1928 44.1953 66.1714 43.1146 68.1866 42.1058C69.2926 42.1071 70.353 42.547 71.1351 43.3291C71.9172 44.1112 72.3571 45.1716 72.3583 46.2776Z" fill="white"/>
<path d="M64.394 53.4838C65.0691 53.4838 65.729 53.2836 66.2903 52.9085C66.8516 52.5335 67.2891 52.0004 67.5475 51.3767C67.8058 50.753 67.8734 50.0667 67.7417 49.4046C67.61 48.7425 67.2849 48.1343 66.8075 47.657C66.3302 47.1796 65.722 46.8545 65.0599 46.7228C64.3978 46.5911 63.7115 46.6587 63.0878 46.917C62.4641 47.1754 61.931 47.6129 61.556 48.1742C61.1809 48.7355 60.9807 49.3954 60.9807 50.0705C60.9818 50.9754 61.3417 51.843 61.9816 52.4829C62.6215 53.1228 63.4891 53.4827 64.394 53.4838ZM64.394 49.312C65.8579 49.312 67.0488 48.6066 67.0488 50.0705C67.0488 50.7746 66.7691 51.4498 66.2712 51.9477C65.7733 52.4456 65.0981 52.7253 64.394 52.7253C63.6899 52.7253 63.0147 52.4456 62.5168 51.9477C62.0189 51.4498 61.7392 50.7746 61.7392 50.0705C61.7392 48.6066 62.9301 49.312 64.394 49.312Z" fill="white"/>
<path d="M64.3942 51.2072C65.0225 51.2072 65.5319 50.6978 65.5319 50.0694C65.5319 49.441 65.0225 48.9316 64.3942 48.9316C63.7658 48.9316 63.2564 49.441 63.2564 50.0694C63.2564 50.6978 63.7658 51.2072 64.3942 51.2072Z" fill="white"/>
<path d="M127.429 54.6206H124.695V55.3791H127.429V54.6206Z" fill="white"/>
<path opacity="0.1" d="M4.09283 116.837V118.734C4.09283 129.865 123.558 129.865 123.558 118.734V116.837C123.558 127.968 4.09283 127.968 4.09283 116.837Z" fill="black"/>
<path d="M109.612 143.972C110.354 143.82 111.007 143.386 111.434 142.76C111.86 142.134 112.025 141.367 111.894 140.621C111.865 140.469 111.824 140.321 111.77 140.177L119.541 133.66L117.621 128.554L107.942 138.632C107.361 138.9 106.884 139.353 106.588 139.92C106.291 140.487 106.19 141.137 106.302 141.767C106.436 142.491 106.853 143.131 107.46 143.547C108.066 143.963 108.814 144.121 109.537 143.987C109.562 143.982 109.587 143.977 109.612 143.972Z" fill="#A0616A"/>
<path d="M113.27 105.519L110.189 107.976C110.189 107.976 106.507 114.671 109.146 116.059C111.786 117.448 119.992 122.066 119.992 122.066C119.992 122.066 116.6 125.442 116.2 127.082C115.8 128.722 116.686 130.179 115.28 129.836C113.875 129.493 113.835 130.61 113.492 132.015C113.149 133.421 110.863 134.715 110.863 134.715L115.232 137.939C115.232 137.939 117.254 138.653 117.42 136.956C117.586 135.259 117.125 135.498 118.531 135.841C119.937 136.184 121.121 133.985 121.869 131.933C122.618 129.882 130.256 120.335 130.256 120.335L122.265 111.442C119.826 108.728 116.728 106.687 113.27 105.519V105.519Z" fill="#0062B0"/>
<path d="M112.568 244.874L109.387 244.847L107.979 232.29L112.674 232.329L112.568 244.874Z" fill="#A0616A"/>
<path d="M102.377 249.933C102.375 250.31 102.522 250.673 102.786 250.942C103.05 251.211 103.411 251.364 103.788 251.367L110.113 251.42L111.22 249.176L111.627 251.432L114.014 251.453L113.411 243.407L112.581 243.352L109.194 243.118L108.101 243.045L108.082 245.322L103.001 248.768C102.81 248.897 102.654 249.071 102.546 249.274C102.437 249.476 102.379 249.703 102.377 249.933Z" fill="#2F2E41"/>
<path d="M83.3592 244.874L80.178 244.847L78.7695 232.29L83.465 232.329L83.3592 244.874Z" fill="#A0616A"/>
<path d="M73.1693 249.933C73.1665 250.31 73.3133 250.673 73.5777 250.942C73.8421 251.211 74.2024 251.364 74.5795 251.367L80.9049 251.42L82.0123 249.176L82.419 251.432L84.8057 251.453L84.203 243.407L83.3726 243.352L79.9857 243.118L78.893 243.045L78.8738 245.322L73.7926 248.768C73.6022 248.897 73.446 249.071 73.3375 249.274C73.2289 249.476 73.1712 249.703 73.1693 249.933Z" fill="#2F2E41"/>
<path d="M91.5905 138.536C91.5905 138.536 85.4816 141.545 87.0742 143.356C88.6668 145.168 87.3578 146.192 85.3728 147.894C83.3877 149.595 79.3915 169.526 79.3915 169.526L74.2169 200.401C74.2169 200.401 75.5899 227.36 76.5112 228.32C77.4326 229.28 78.8505 227.862 77.4326 229.28C76.0147 230.698 74.8804 229.564 76.0147 230.698C77.149 231.832 77.4326 234.952 77.4326 234.952L84.781 234.332C84.781 234.332 89.5642 213.61 86.3342 204.431L99.0058 170.85L102.837 203.252C102.837 203.252 104.94 229.564 106.357 230.414C107.775 231.265 108.797 231.322 107.577 232.428C106.357 233.534 106.357 231.832 106.357 233.534V236.356L113.217 237.297C113.217 237.297 116.403 212.073 114.925 200.401L119.402 161.222L115.914 143.566L112.312 138.819L91.5905 138.536Z" fill="#2F2E41"/>
<path d="M62.1116 128.986C62.7231 129.433 63.4848 129.623 64.2345 129.516C64.9842 129.41 65.6628 129.015 66.1259 128.416C66.2181 128.293 66.2999 128.162 66.3706 128.025L76.4211 129.379L78.9024 124.521L64.9339 124.155C64.3441 123.906 63.6885 123.859 63.0693 124.022C62.4501 124.185 61.9022 124.548 61.5111 125.055C61.2914 125.345 61.131 125.676 61.0391 126.029C60.9473 126.381 60.9258 126.749 60.9758 127.109C61.0259 127.47 61.1465 127.818 61.3309 128.132C61.5152 128.446 61.7597 128.721 62.0502 128.941C62.0705 128.956 62.0909 128.971 62.1116 128.986Z" fill="#A0616A"/>
<path d="M92.9966 105.79L89.1049 105.167C89.1049 105.167 84.4338 107.718 85.1855 110.604C85.9372 113.49 85.2935 121.904 85.2935 121.904C85.2935 121.904 80.5137 121.671 79.0322 122.48C77.5508 123.289 77.0703 124.925 76.377 123.655C75.6837 122.385 76.4147 121.711 75.1449 122.405C73.8751 123.098 69.7956 123.677 69.7956 123.677L68.1556 129.261C68.1556 129.261 70.4341 132.394 71.8 131.374C73.166 130.353 73.4348 128.833 74.128 130.103C74.8213 131.372 75.0147 133.739 77.035 132.911C79.0553 132.083 93.4867 128.324 93.4867 128.324L95.2309 110.889L92.9966 105.79Z" fill="#0062B0"/>
<path d="M89.1983 142.841C89.1983 142.841 86.4505 138.456 86.9737 137.813C87.4968 137.17 88.152 138.281 86.9737 137.158C85.7953 136.035 92.4034 128.541 92.8374 127.437C93.2714 126.334 86.223 107.059 86.223 107.059L92.2261 103.444L97.2997 96.3057L106.374 97.7573L109.566 104.229L114.076 105.82L114.455 106.199V117.956C114.455 117.956 116.462 127.991 112.046 131.446C112.046 131.446 114.153 136.035 113.586 136.886C113.019 137.737 123.216 148.916 115.213 150.193C106.447 151.591 87.7489 142.345 89.1983 142.841Z" fill="#0062B0"/>
<path d="M44.1918 251.549C44.1916 251.608 44.2031 251.667 44.2258 251.722C44.2484 251.777 44.2816 251.827 44.3236 251.869C44.3655 251.91 44.4153 251.944 44.4702 251.966C44.525 251.989 44.5838 252 44.6431 252H140.704C140.824 252 140.939 251.953 141.023 251.868C141.108 251.783 141.155 251.669 141.155 251.549C141.155 251.429 141.108 251.314 141.023 251.23C140.939 251.145 140.824 251.098 140.704 251.098H44.6431C44.5838 251.097 44.525 251.109 44.4702 251.132C44.4153 251.154 44.3655 251.187 44.3236 251.229C44.2816 251.271 44.2484 251.321 44.2258 251.376C44.2032 251.431 44.1916 251.49 44.1918 251.549Z" fill="#CCCCCC"/>
<path d="M103.174 98.092C108.277 98.092 112.414 93.9552 112.414 88.8521C112.414 83.7491 108.277 79.6123 103.174 79.6123C98.0707 79.6123 93.9339 83.7491 93.9339 88.8521C93.9339 93.9552 98.0707 98.092 103.174 98.092Z" fill="#A0616A"/>
<path d="M110.313 82.0215C110.218 81.1899 109.648 80.1622 109.252 79.4251C108.855 78.6879 108.09 78.086 107.255 78.1373C106.913 78.1769 106.586 78.2984 106.302 78.4916C106.018 78.6847 105.785 78.9438 105.622 79.2466C105.303 79.8562 105.13 80.5313 105.115 81.2192C105.027 82.7539 105.284 84.2888 105.865 85.7119C106.446 87.135 107.337 88.4105 108.474 89.4454C109.122 90.0262 109.901 90.5431 110.771 90.5628C111.166 90.5533 111.555 90.465 111.915 90.3029C112.275 90.1409 112.599 89.9084 112.869 89.6192C114.276 88.2094 114.489 85.8918 113.737 84.0468C112.985 82.2019 112.65 81.484 110.931 80.4762" fill="#2F2E41"/>
<path d="M97.3335 95.3109C97.488 96.1329 96.0664 100.042 96.5207 100.747C96.5207 100.747 101.225 102.381 103.024 102.498C105.221 102.641 106.988 101.739 109.043 100.382C109.081 99.6463 109.294 98.93 109.665 98.2932C109.634 98.7864 109.734 99.2791 109.955 99.721C117.652 97.8088 115.768 90.9014 111.119 87.6652L108.029 80.5571C108.956 80.8662 106.157 76.0911 103.205 79.5494C99.5123 75.7882 92.3579 81.2027 91.4615 86.0394C92.3241 84.9477 92.7734 85.0764 92.9946 85.8293C93.2488 85.196 93.6516 84.6332 94.1689 84.1882C93.9116 84.6966 93.7801 85.2594 93.7857 85.8292C99.6112 86.1908 98.527 90.1209 93.7521 96.0083C95.5178 94.9091 94.3263 99.6457 95.2691 100.778C95.3154 99.9867 97.1666 96.0804 97.3335 95.3109Z" fill="#2F2E41"/>
<path d="M105.74 87.7407C105.815 87.7406 105.887 87.7136 105.943 87.6646C105.999 87.6157 106.036 87.5481 106.046 87.4742C106.056 87.4004 106.039 87.3254 105.999 87.2629C105.958 87.2005 105.896 87.1548 105.824 87.1344C105.758 86.7541 105.751 86.3658 105.803 85.9833C105.904 84.2762 106.072 81.419 103.298 79.4903C103.231 79.4438 103.148 79.4259 103.068 79.4405C102.987 79.4551 102.916 79.501 102.869 79.5681C102.822 79.6352 102.804 79.7181 102.818 79.7986C102.833 79.8792 102.878 79.9507 102.945 79.9976C105.435 81.7286 105.285 84.2672 105.186 85.947C105.13 86.9073 105.089 87.601 105.671 87.733C105.694 87.7382 105.717 87.7408 105.74 87.7407Z" fill="#0062B0"/>
<path d="M105.596 80.9859C107.482 80.2031 109.492 79.7579 111.532 79.6705C113.15 79.6019 115.081 79.9628 115.739 81.443C116.138 82.341 115.926 83.3936 115.561 84.3059C115.195 85.2183 113.489 87.0601 114.472 87.04C116.939 86.9895 117.993 89.1961 116.741 92.625C116.015 94.6137 120.52 94.5371 122.62 94.8033C121.042 95.3887 119.44 95.9798 117.763 96.1202C116.086 96.2606 114.294 95.896 113.042 94.7715C111.687 93.5546 111.166 91.6646 110.936 89.858C110.705 88.0514 110.694 86.1907 110.081 84.4755C109.469 82.7603 108.062 81.1629 106.247 81.0108" fill="#2F2E41"/>
</g>
<defs>
<clipPath id="clip0_1180_9570">
<rect width="141.155" height="252" fill="white"/>
</clipPath>
</defs>
</svg>
