<svg width="186" height="179" viewBox="0 0 186 179" fill="none" xmlns="http://www.w3.org/2000/svg">
<g clip-path="url(#clip0_49_16501)">
<path d="M156.205 42.223H155.23V15.4787C155.23 11.3735 153.599 7.43645 150.696 4.53362C147.793 1.63079 143.856 2.01912e-09 139.751 2.01912e-09H83.0884C81.0557 -3.28287e-05 79.0429 0.400304 77.1649 1.17815C75.2869 1.956 73.5805 3.09613 72.1432 4.53344C70.7058 5.97076 69.5656 7.6771 68.7877 9.55506C68.0098 11.433 67.6094 13.4458 67.6094 15.4785V162.2C67.6094 166.305 69.2402 170.242 72.143 173.145C75.0458 176.047 78.9829 177.678 83.0881 177.678H139.75C143.855 177.678 147.792 176.047 150.695 173.145C153.598 170.242 155.229 166.305 155.229 162.2V61.26H156.204L156.205 42.223Z" fill="#3F3D56"/>
<path d="M152.054 14.4419V163.236C152.053 166.348 150.817 169.333 148.616 171.534C146.415 173.735 143.431 174.972 140.318 174.974H82.4932C79.3795 174.974 76.3931 173.738 74.1909 171.536C71.9886 169.335 70.7509 166.349 70.75 163.236V14.4419C70.7509 11.3282 71.9886 8.34247 74.1907 6.14127C76.3928 3.94007 79.3791 2.7037 82.4927 2.7041H89.5073C89.1628 3.5511 89.0317 4.46973 89.1255 5.37926C89.2193 6.28879 89.535 7.16136 90.0449 7.92029C90.5549 8.67921 91.2435 9.30125 92.0502 9.73173C92.8568 10.1622 93.7569 10.3879 94.6712 10.3891H127.638C128.553 10.3879 129.453 10.1622 130.259 9.73173C131.066 9.30125 131.755 8.67921 132.265 7.92029C132.775 7.16136 133.09 6.28879 133.184 5.37926C133.278 4.46973 133.147 3.5511 132.802 2.7041H140.316C143.428 2.70463 146.413 3.94115 148.614 6.1418C150.816 8.34245 152.053 11.3271 152.054 14.4396V14.4419Z" fill="white"/>
<path d="M111.391 74.1736C124.724 74.1736 135.532 63.3652 135.532 50.0324C135.532 36.6995 124.724 25.8911 111.391 25.8911C98.0584 25.8911 87.25 36.6995 87.25 50.0324C87.25 63.3652 98.0584 74.1736 111.391 74.1736Z" fill="#0077C8"/>
<path d="M137.722 100.149H86.3382C86.0859 100.149 85.8441 100.048 85.6657 99.87C85.4873 99.6916 85.387 99.4498 85.3867 99.1975V86.4515C85.387 86.1992 85.4874 85.9574 85.6658 85.7791C85.8441 85.6007 86.086 85.5003 86.3382 85.5H137.722C137.975 85.5003 138.217 85.6007 138.395 85.7791C138.573 85.9574 138.674 86.1992 138.674 86.4515V99.1977C138.674 99.45 138.573 99.6918 138.395 99.8702C138.217 100.049 137.975 100.149 137.722 100.149V100.149ZM86.3382 85.8805C86.1868 85.8806 86.0417 85.9408 85.9346 86.0479C85.8275 86.1549 85.7673 86.3001 85.7672 86.4515V99.1977C85.7673 99.3491 85.8275 99.4943 85.9346 99.6014C86.0417 99.7084 86.1868 99.7686 86.3382 99.7687H137.722C137.874 99.7686 138.019 99.7084 138.126 99.6014C138.233 99.4943 138.293 99.3491 138.293 99.1977V86.4515C138.293 86.3001 138.233 86.1549 138.126 86.0479C138.019 85.9408 137.874 85.8806 137.722 85.8805H86.3382Z" fill="#E6E6E6"/>
<path d="M102.229 90.0903C102.052 90.0903 101.883 90.1605 101.758 90.2854C101.633 90.4104 101.562 90.5798 101.562 90.7565C101.562 90.9331 101.633 91.1026 101.758 91.2275C101.883 91.3524 102.052 91.4226 102.229 91.4226H133.63C133.806 91.4293 133.978 91.3657 134.108 91.2456C134.238 91.1256 134.314 90.9589 134.321 90.7823C134.328 90.6058 134.264 90.4337 134.144 90.3041C134.024 90.1745 133.857 90.0978 133.681 90.091C133.671 90.0907 133.661 90.0905 133.652 90.0906L102.229 90.0903Z" fill="#E6E6E6"/>
<path d="M102.229 94.0859C102.052 94.0859 101.883 94.1561 101.758 94.281C101.633 94.406 101.562 94.5754 101.562 94.7521C101.562 94.9287 101.633 95.0982 101.758 95.2231C101.883 95.348 102.052 95.4182 102.229 95.4182H133.63C133.806 95.4249 133.978 95.3613 134.108 95.2412C134.238 95.1212 134.314 94.9545 134.321 94.7779C134.328 94.6014 134.264 94.4293 134.144 94.2997C134.024 94.1701 133.857 94.0934 133.681 94.0867C133.671 94.0863 133.661 94.0861 133.652 94.0862L102.229 94.0859Z" fill="#E6E6E6"/>
<path d="M137.722 121.394H86.3382C86.0859 121.394 85.8441 121.294 85.6657 121.115C85.4873 120.937 85.387 120.695 85.3867 120.443V107.697C85.387 107.444 85.4874 107.203 85.6658 107.024C85.8441 106.846 86.086 106.745 86.3382 106.745H137.722C137.975 106.745 138.217 106.846 138.395 107.024C138.573 107.203 138.674 107.444 138.674 107.697V120.443C138.674 120.695 138.573 120.937 138.395 121.115C138.216 121.293 137.975 121.394 137.722 121.394ZM86.3382 107.126C86.1868 107.126 86.0417 107.186 85.9346 107.293C85.8275 107.4 85.7673 107.545 85.7672 107.697V120.443C85.7673 120.594 85.8275 120.739 85.9346 120.846C86.0417 120.954 86.1868 121.014 86.3382 121.014H137.722C137.874 121.014 138.019 120.954 138.126 120.846C138.233 120.739 138.293 120.594 138.293 120.443V107.697C138.293 107.545 138.233 107.4 138.126 107.293C138.019 107.186 137.874 107.126 137.722 107.126H86.3382Z" fill="#E6E6E6"/>
<path d="M102.229 111.404C102.052 111.404 101.883 111.474 101.758 111.599C101.633 111.724 101.562 111.894 101.562 112.07C101.562 112.247 101.633 112.417 101.758 112.541C101.883 112.666 102.052 112.737 102.229 112.737H133.63C133.804 112.736 133.971 112.666 134.095 112.544C134.218 112.421 134.289 112.255 134.292 112.081C134.295 111.907 134.23 111.739 134.11 111.612C133.99 111.486 133.826 111.411 133.652 111.405H102.229V111.404Z" fill="#E6E6E6"/>
<path d="M102.229 115.401C102.052 115.401 101.883 115.472 101.758 115.596C101.633 115.721 101.562 115.891 101.562 116.067C101.562 116.244 101.633 116.414 101.758 116.539C101.883 116.663 102.052 116.734 102.229 116.734H133.63C133.804 116.733 133.971 116.663 134.095 116.541C134.218 116.419 134.289 116.252 134.292 116.078C134.295 115.904 134.23 115.736 134.11 115.609C133.99 115.483 133.826 115.408 133.652 115.402H102.229V115.401Z" fill="#E6E6E6"/>
<path d="M137.722 142.709H86.3382C86.0859 142.708 85.8441 142.608 85.6657 142.43C85.4873 142.251 85.387 142.009 85.3867 141.757V129.011C85.387 128.759 85.4874 128.517 85.6658 128.339C85.8441 128.16 86.086 128.06 86.3382 128.06H137.722C137.975 128.06 138.217 128.16 138.395 128.339C138.573 128.517 138.674 128.759 138.674 129.011V141.757C138.674 142.01 138.573 142.251 138.395 142.43C138.217 142.608 137.975 142.709 137.722 142.709V142.709ZM86.3382 128.44C86.1868 128.44 86.0417 128.5 85.9346 128.607C85.8275 128.715 85.7673 128.86 85.7672 129.011V141.757C85.7673 141.909 85.8275 142.054 85.9346 142.161C86.0417 142.268 86.1868 142.328 86.3382 142.328H137.722C137.874 142.328 138.019 142.268 138.126 142.161C138.233 142.054 138.293 141.909 138.293 141.757V129.011C138.293 128.86 138.233 128.715 138.126 128.607C138.019 128.5 137.874 128.44 137.722 128.44H86.3382Z" fill="#E6E6E6"/>
<path d="M102.229 132.719C102.052 132.719 101.883 132.789 101.758 132.914C101.633 133.039 101.562 133.209 101.562 133.385C101.562 133.562 101.633 133.731 101.758 133.856C101.883 133.981 102.052 134.051 102.229 134.051H133.63C133.717 134.055 133.805 134.041 133.887 134.011C133.969 133.98 134.044 133.934 134.108 133.875C134.172 133.815 134.224 133.744 134.261 133.664C134.297 133.585 134.318 133.499 134.321 133.411C134.325 133.324 134.311 133.237 134.28 133.155C134.25 133.072 134.204 132.997 134.144 132.933C134.085 132.869 134.013 132.817 133.934 132.78C133.854 132.744 133.768 132.723 133.681 132.72C133.671 132.72 133.661 132.719 133.652 132.719L102.229 132.719Z" fill="#E6E6E6"/>
<path d="M102.229 136.716C102.052 136.716 101.883 136.787 101.758 136.911C101.633 137.036 101.562 137.206 101.562 137.382C101.562 137.559 101.633 137.729 101.758 137.853C101.883 137.978 102.052 138.049 102.229 138.049H133.63C133.717 138.052 133.805 138.038 133.887 138.008C133.969 137.977 134.044 137.931 134.108 137.872C134.172 137.812 134.224 137.741 134.261 137.661C134.297 137.582 134.318 137.496 134.321 137.408C134.325 137.321 134.311 137.234 134.28 137.152C134.25 137.07 134.204 136.994 134.144 136.93C134.085 136.866 134.013 136.814 133.934 136.777C133.854 136.741 133.768 136.72 133.681 136.717C133.671 136.717 133.661 136.717 133.652 136.717H102.229L102.229 136.716Z" fill="#E6E6E6"/>
<path d="M185.12 178.143H0.484497C0.216747 178.143 0 178.026 0 177.882C0 177.738 0.216997 177.621 0.484497 177.621H185.12C185.387 177.621 185.604 177.738 185.604 177.882C185.604 178.026 185.388 178.143 185.12 178.143Z" fill="#E6E6E6"/>
<path d="M177.297 167.952C176.508 168.229 175.661 168.299 174.837 168.154C174.014 168.009 173.242 167.654 172.595 167.124C170.948 165.742 170.432 163.465 170.012 161.356L168.77 155.12L171.371 156.911C173.242 158.199 175.154 159.529 176.45 161.395C177.745 163.26 178.311 165.807 177.27 167.826" fill="#E6E6E6"/>
<path d="M176.896 175.936C177.224 173.55 177.56 171.134 177.331 168.724C177.127 166.582 176.473 164.491 175.143 162.776C174.438 161.868 173.579 161.09 172.605 160.476C172.351 160.316 172.118 160.718 172.37 160.878C174.055 161.942 175.357 163.514 176.091 165.367C176.901 167.427 177.031 169.673 176.891 171.861C176.806 173.185 176.627 174.499 176.447 175.812C176.433 175.872 176.442 175.934 176.472 175.988C176.502 176.041 176.551 176.08 176.61 176.098C176.669 176.114 176.733 176.106 176.786 176.076C176.84 176.046 176.879 175.995 176.896 175.936H176.896Z" fill="#F2F2F2"/>
<path d="M174.541 172.109C174.202 172.623 173.737 173.041 173.19 173.324C172.644 173.606 172.033 173.743 171.418 173.721C169.837 173.646 168.519 172.542 167.333 171.496L163.824 168.397L166.146 168.286C167.816 168.206 169.53 168.131 171.121 168.646C172.713 169.161 174.179 170.401 174.47 172.046" fill="#E6E6E6"/>
<path d="M177.823 177.307C176.248 174.518 174.419 171.418 171.152 170.428C170.244 170.153 169.291 170.055 168.346 170.138C168.048 170.163 168.122 170.623 168.421 170.597C170.005 170.466 171.587 170.884 172.899 171.782C174.162 172.642 175.145 173.836 175.977 175.103C176.486 175.878 176.943 176.689 177.399 177.497C177.544 177.755 177.971 177.568 177.823 177.307Z" fill="#F2F2F2"/>
<path d="M92.7465 96.743C94.9537 96.743 96.743 94.9537 96.743 92.7465C96.743 90.5393 94.9537 88.75 92.7465 88.75C90.5393 88.75 88.75 90.5393 88.75 92.7465C88.75 94.9537 90.5393 96.743 92.7465 96.743Z" fill="#0077C8"/>
<path d="M90.8333 92C90.7873 92 90.75 92.2983 90.75 92.666C90.75 93.0338 90.7873 93.3323 90.8333 93.3323H94.763C94.809 93.3383 94.847 93.045 94.8477 92.6773C94.8733 92.4483 94.8452 92.2165 94.7657 92.0003H90.8333V92Z" fill="#E6E6E6"/>
<path d="M92.7465 118.066C94.9537 118.066 96.743 116.277 96.743 114.07C96.743 111.863 94.9537 110.073 92.7465 110.073C90.5393 110.073 88.75 111.863 88.75 114.07C88.75 116.277 90.5393 118.066 92.7465 118.066Z" fill="#0077C8"/>
<path d="M90.8333 113.323C90.7873 113.323 90.75 113.621 90.75 113.989C90.75 114.357 90.7873 114.655 90.8333 114.655H94.763C94.809 114.661 94.847 114.368 94.8477 114C94.8733 113.772 94.8452 113.54 94.7657 113.323L90.8333 113.323Z" fill="#E6E6E6"/>
<path d="M92.7465 139.381C94.9537 139.381 96.743 137.591 96.743 135.384C96.743 133.177 94.9537 131.388 92.7465 131.388C90.5393 131.388 88.75 133.177 88.75 135.384C88.75 137.591 90.5393 139.381 92.7465 139.381Z" fill="#0077C8"/>
<path d="M90.8333 134.638C90.7873 134.638 90.75 134.936 90.75 135.304C90.75 135.671 90.7873 135.97 90.8333 135.97H94.763C94.809 135.976 94.847 135.683 94.8477 135.315C94.8733 135.086 94.8452 134.854 94.7657 134.638L90.8333 134.638Z" fill="#E6E6E6"/>
<path d="M106.176 43.4032L104.762 44.8174L116.606 56.6614L118.02 55.2472L106.176 43.4032Z" fill="white"/>
<path d="M118.02 44.817L116.605 43.4028L104.761 55.2469L106.176 56.6611L118.02 44.817Z" fill="white"/>
<path d="M22.566 114.034C22.9125 113.911 23.2278 113.714 23.4899 113.456C23.7519 113.198 23.9543 112.886 24.0827 112.542C24.2111 112.198 24.2625 111.829 24.2331 111.463C24.2038 111.097 24.0945 110.741 23.9129 110.422L29.8042 103.706L25.2054 103.071L20.316 109.546C19.7994 109.887 19.4257 110.405 19.2657 111.003C19.1057 111.6 19.1705 112.236 19.4478 112.789C19.7252 113.342 20.1958 113.775 20.7705 114.004C21.3452 114.233 21.984 114.244 22.566 114.034Z" fill="#9F616A"/>
<path d="M29.669 173.554L25.5602 173.554L23.6055 157.705L29.6697 157.705L29.669 173.554Z" fill="#9F616A"/>
<path d="M30.7174 177.537L17.4688 177.536V177.369C17.4688 176.001 18.0122 174.689 18.9792 173.722C19.9463 172.755 21.2579 172.212 22.6255 172.212H22.6258L30.7177 172.212L30.7174 177.537Z" fill="#2F2E41"/>
<path d="M51.178 170.115L47.254 171.333L40.6875 156.777L46.479 154.979L51.178 170.115Z" fill="#9F616A"/>
<path d="M53.3602 173.608L40.7073 177.537L40.6577 177.377C40.2522 176.071 40.3821 174.657 41.0189 173.447C41.6557 172.236 42.7472 171.328 44.0533 170.923L44.0536 170.923L51.7815 168.523L53.3602 173.608Z" fill="#2F2E41"/>
<path d="M26.5228 100.486L20.4375 107.455L25.2015 107.884L26.5228 100.486Z" fill="#E6E6E6"/>
<path d="M24.147 109.469C24.147 109.469 22.0332 110.526 21.769 115.282C21.5047 120.038 22.5617 132.457 22.5617 132.457C22.5617 132.457 21.505 138.005 22.5617 143.025C23.6185 148.045 21.505 166.275 22.826 166.275C24.147 166.275 31.0165 167.068 31.2807 166.275C31.545 165.483 31.8092 153.593 31.8092 153.593C31.8092 153.593 33.923 147.516 31.8092 143.818C31.8092 143.818 39.1894 156.705 43.963 166.54C45.0077 168.693 52.9462 166.276 51.6252 163.898C50.3042 161.52 47.1337 150.687 47.1337 150.687C47.1337 150.687 44.7557 142.761 40.5285 139.326L42.6422 122.416C42.6422 122.416 47.134 111.055 44.4922 109.47C41.8505 107.885 24.147 109.469 24.147 109.469Z" fill="#2F2E41"/>
<path d="M32.0726 66.4016C35.8665 66.4016 38.9421 63.326 38.9421 59.5321C38.9421 55.7382 35.8665 52.6626 32.0726 52.6626C28.2787 52.6626 25.2031 55.7382 25.2031 59.5321C25.2031 63.326 28.2787 66.4016 32.0726 66.4016Z" fill="#A0616A"/>
<path d="M39.7338 66.9302L31.1938 71.9502C31.1938 71.9502 27.9238 73.7917 26.7023 76.9702C25.4003 80.3577 26.157 85.1272 26.7023 86.2177C27.759 88.3314 26.259 93.6157 26.259 93.6157L24.938 105.769C24.938 105.769 20.1823 110.261 23.8813 110.789C27.5803 111.318 34.1855 110.525 38.1488 110.789C42.112 111.054 46.6035 111.582 45.2825 108.939C43.9615 106.297 42.3763 104.448 43.9615 99.1644C45.202 95.0294 45.1483 79.5687 45.0663 73.0394C45.055 72.1428 44.8145 71.2639 44.3677 70.4865C43.9208 69.709 43.2825 69.0588 42.5135 68.5977L39.7338 66.9302Z" fill="#E5E5E5"/>
<path opacity="0.1" d="M35.9027 75.2534L36.6952 91.3704L29.0137 106.926L27.7109 106.43L35.6374 91.8987L35.9027 75.2534Z" fill="black"/>
<path opacity="0.1" d="M44.6229 94.8046V92.9546L35.6406 107.751L44.6229 94.8046Z" fill="black"/>
<path d="M27.1964 53.1683L26.0616 52.7143C26.0616 52.7143 28.4366 50.1001 31.7399 50.3273L30.8106 49.3043C30.8106 49.3043 33.0819 48.3951 35.1469 50.7818C36.2324 52.0366 37.4881 53.5116 38.2719 55.1728H39.4881L38.9806 56.2906L40.7571 57.4083L38.9336 57.2083C39.1063 58.1733 39.0472 59.1654 38.7611 60.1031L38.8111 60.9866C38.8111 60.9866 36.6964 57.7143 36.6964 57.2603V58.3971C36.6964 58.3971 35.5606 57.3741 35.5606 56.6921L34.9411 57.4878L34.6314 56.2378L30.8114 57.4878L31.4304 56.4643L29.0554 56.8053L29.9846 55.5553C29.9846 55.5553 27.3004 57.0328 27.1971 58.2833C27.0939 59.5338 25.7519 61.1248 25.7519 61.1248L25.1324 59.9881C25.1324 59.9881 24.2034 54.8733 27.1964 53.1683Z" fill="#2F2E41"/>
<path d="M31.6423 114.781C31.9615 114.599 32.2368 114.349 32.449 114.049C32.6611 113.749 32.8049 113.406 32.8701 113.044C32.9354 112.682 32.9206 112.311 32.8267 111.955C32.7328 111.6 32.5621 111.27 32.3267 110.988L36.9324 103.333L32.2939 103.524L28.6314 110.764C28.1835 111.191 27.9077 111.768 27.8564 112.384C27.805 113.001 27.9816 113.615 28.3528 114.11C28.7239 114.605 29.2637 114.947 29.87 115.071C30.4763 115.194 31.1069 115.091 31.6423 114.781Z" fill="#9F616A"/>
<path d="M42.1144 70.3655L44.0959 69.9692C44.0959 69.9692 50.0407 74.3287 48.1912 83.0477C46.3417 91.7667 38.1512 104.977 38.1512 104.977C38.1512 104.977 36.3012 107.355 35.7732 107.884C35.2452 108.412 34.1879 107.884 34.7164 108.676C35.2449 109.469 33.9237 109.997 33.9237 109.997C33.9237 109.997 28.1109 109.997 28.6394 107.884C29.1679 105.77 38.1512 90.7087 38.1512 90.7087L36.8302 76.7055C36.8302 76.7055 35.7729 69.837 42.1144 70.3655Z" fill="#E5E5E5"/>
</g>
<defs>
<clipPath id="clip0_49_16501">
<rect width="185.604" height="178.143" fill="white"/>
</clipPath>
</defs>
</svg>
