<svg width="40" height="34" viewBox="0 0 40 34" fill="none" xmlns="http://www.w3.org/2000/svg">
<path d="M16.25 5.75H3.75C3.08696 5.75 2.45107 6.01339 1.98223 6.48223C1.51339 6.95107 1.25 7.58696 1.25 8.25V30.75C1.25 31.413 1.51339 32.0489 1.98223 32.5178C2.45107 32.9866 3.08696 33.25 3.75 33.25H36.25C36.913 33.25 37.5489 32.9866 38.0178 32.5178C38.4866 32.0489 38.75 31.413 38.75 30.75V8.25C38.75 7.58696 38.4866 6.95107 38.0178 6.48223C37.5489 6.01339 36.913 5.75 36.25 5.75H23.75M23.75 18.25H31.25M23.75 23.25H33.75M23.75 4.5C23.75 3.50544 23.3549 2.55161 22.6516 1.84835C21.9484 1.14509 20.9946 0.75 20 0.75C19.0054 0.75 18.0516 1.14509 17.3483 1.84835C16.6451 2.55161 16.25 3.50544 16.25 4.5V9.5C16.25 9.83152 16.3817 10.1495 16.6161 10.3839C16.8505 10.6183 17.1685 10.75 17.5 10.75H22.5C22.8315 10.75 23.1495 10.6183 23.3839 10.3839C23.6183 10.1495 23.75 9.83152 23.75 9.5V4.5ZM18.125 20.125C18.125 22.5412 16.1662 24.5 13.75 24.5C11.3338 24.5 9.375 22.5412 9.375 20.125C9.375 17.7088 11.3338 15.75 13.75 15.75C16.1662 15.75 18.125 17.7088 18.125 20.125ZM6.25 33.25C6.25 31.2609 7.04018 29.3532 8.4467 27.9467C9.85322 26.5402 11.7609 25.75 13.75 25.75C15.7391 25.75 17.6468 26.5402 19.0533 27.9467C20.4598 29.3532 21.25 31.2609 21.25 33.25H6.25Z" stroke="#008939" stroke-width="1.5" stroke-linecap="round" stroke-linejoin="round"/>
</svg>
