<svg width="51" height="51" viewBox="0 0 51 51" fill="none" xmlns="http://www.w3.org/2000/svg">
<rect width="51" height="51" rx="6" fill="#008939"/>
<g clip-path="url(#clip0_1134_9712)">
<path d="M30.75 37.5005C30.336 37.5005 30 37.1645 30 36.7505C30 36.3365 30.336 36.0005 30.75 36.0005H35.25C35.664 36.0005 36 35.6645 36 35.2505V24.7505C36 24.3365 35.664 24.0005 35.25 24.0005H21.75C21.336 24.0005 21 24.3365 21 24.7505V28.5005C21 28.9145 20.664 29.2505 20.25 29.2505C19.836 29.2505 19.5 28.9145 19.5 28.5005V24.7505C19.5 23.5095 20.509 22.5005 21.75 22.5005H22.5V19.5005C22.5 16.1925 25.192 13.5005 28.5 13.5005C31.808 13.5005 34.5 16.1925 34.5 19.5005V22.5005H35.25C36.491 22.5005 37.5 23.5095 37.5 24.7505V35.2505C37.5 36.4915 36.491 37.5005 35.25 37.5005H30.75ZM33 22.5005V19.5005C33 17.0195 30.981 15.0005 28.5 15.0005C26.019 15.0005 24 17.0195 24 19.5005V22.5005H33Z" fill="white"/>
<path d="M30.022 32.4065C29.813 32.4065 29.611 32.3185 29.47 32.1635C29.335 32.0165 29.264 31.8245 29.273 31.6245C29.281 31.4245 29.367 31.2395 29.515 31.1035C29.973 30.6825 30.124 30.0125 29.89 29.4365C29.66 28.8665 29.113 28.4985 28.497 28.4985C28.305 28.4985 28.116 28.5355 27.937 28.6085C27.565 28.7585 27.275 29.0445 27.118 29.4135C26.962 29.7825 26.958 30.1905 27.109 30.5615C27.184 30.7475 27.182 30.9505 27.104 31.1355C27.026 31.3205 26.88 31.4635 26.694 31.5385C26.603 31.5745 26.509 31.5935 26.413 31.5935C26.106 31.5935 25.833 31.4095 25.718 31.1245C25.418 30.3815 25.424 29.5665 25.737 28.8285C26.049 28.0905 26.631 27.5185 27.374 27.2185C27.733 27.0735 28.111 26.9995 28.496 26.9995C29.727 26.9995 30.82 27.7355 31.281 28.8745C31.748 30.0275 31.446 31.3675 30.53 32.2085C30.391 32.3365 30.21 32.4065 30.022 32.4065Z" fill="white"/>
<path d="M31 28.874C31.6213 28.874 32.125 28.3703 32.125 27.749C32.125 27.1277 31.6213 26.624 31 26.624C30.3787 26.624 29.875 27.1277 29.875 27.749C29.875 28.3703 30.3787 28.874 31 28.874Z" fill="white"/>
</g>
<defs>
<clipPath id="clip0_1134_9712">
<rect width="24" height="24" fill="white" transform="translate(13 13)"/>
</clipPath>
</defs>
</svg>
