<svg width="26" height="26" viewBox="0 0 26 26" fill="none" xmlns="http://www.w3.org/2000/svg">
<path fill-rule="evenodd" clip-rule="evenodd" d="M11.4475 2.79678C11.8436 3.23639 12.4075 3.48737 12.9992 3.48737C13.5908 3.48737 14.1548 3.23639 14.5508 2.79678L15.5603 1.68908C16.1532 1.03294 17.0948 0.820806 17.9117 1.15933C18.7287 1.49785 19.2443 2.31379 19.1993 3.19696L19.1235 4.69097C19.0939 5.28032 19.3148 5.85473 19.7318 6.2723C20.1488 6.68987 20.7228 6.91166 21.3122 6.88289L22.8062 6.80712C23.6888 6.76361 24.5034 7.27971 24.8411 8.0963C25.1787 8.9129 24.9665 9.8536 24.3109 10.4461L23.199 11.4492C22.7599 11.8458 22.5093 12.4097 22.5093 13.0014C22.5093 13.593 22.7599 14.157 23.199 14.5535L24.3109 15.5567C24.9671 16.1495 25.1792 17.0911 24.8407 17.9081C24.5022 18.725 23.6862 19.2406 22.803 19.1956L21.309 19.1199C20.7183 19.0895 20.1424 19.3109 19.7242 19.7291C19.306 20.1473 19.0846 20.7232 19.115 21.3139L19.1907 22.8079C19.2299 23.6864 18.7151 24.4955 17.9027 24.8322C17.0903 25.1689 16.1541 24.9612 15.5603 24.3126L14.5561 23.2017C14.1597 22.7627 13.596 22.5122 13.0045 22.5122C12.413 22.5122 11.8492 22.7627 11.4529 23.2017L10.4444 24.3126C9.8515 24.9643 8.91363 25.1743 8.0994 24.8378C7.28516 24.5012 6.76936 23.6902 6.8097 22.8101L6.88654 21.3161C6.91692 20.7254 6.69554 20.1495 6.2773 19.7312C5.85907 19.313 5.28317 19.0916 4.69248 19.122L3.19847 19.1978C2.31566 19.2438 1.49937 18.7294 1.1601 17.913C0.820821 17.0967 1.03198 16.1552 1.68739 15.562L2.79829 14.5589C3.23734 14.1623 3.4879 13.5983 3.4879 13.0067C3.4879 12.4151 3.23734 11.8511 2.79829 11.4545L1.68739 10.4461C1.03418 9.85356 0.823332 8.91469 1.16046 8.09975C1.49759 7.28481 2.31009 6.76928 3.191 6.81139L4.68501 6.88716C5.27684 6.91827 5.85405 6.6966 6.27291 6.27733C6.69178 5.85806 6.91289 5.28064 6.8812 4.68883L6.8097 3.19376C6.76839 2.31322 7.28385 1.50139 8.09832 1.16422C8.9128 0.827047 9.85125 1.037 10.4444 1.68908L11.4475 2.79678Z" stroke="#5E6873" stroke-width="1.5" stroke-linecap="round" stroke-linejoin="round"/>
<circle cx="12.9992" cy="13.0014" r="4.80216" stroke="#5E6873" stroke-width="1.5" stroke-linecap="round" stroke-linejoin="round"/>
</svg>
