<svg width="32" height="32" viewBox="0 0 32 32" fill="none" xmlns="http://www.w3.org/2000/svg">
<path d="M14.4364 31.6672C11.6107 31.4053 8.90769 30.387 6.61151 28.7195C4.31533 27.0519 2.51074 24.7966 1.38739 22.1906C1.35203 22.1039 1.35209 22.0068 1.38756 21.9202C1.42303 21.8335 1.49108 21.7643 1.57708 21.7273C1.66308 21.6903 1.76015 21.6885 1.84744 21.7224C1.93473 21.7562 2.00526 21.8229 2.04387 21.9082C3.1161 24.3968 4.83896 26.5506 7.03133 28.1432C9.2237 29.7358 11.8046 30.7084 14.5028 30.9587C14.5936 30.9679 14.6775 31.0115 14.7372 31.0806C14.7969 31.1496 14.8278 31.239 14.8236 31.3302C14.8195 31.4214 14.7805 31.5075 14.7148 31.5708C14.6491 31.6342 14.5616 31.67 14.4703 31.6708L14.4364 31.6672ZM17.4946 31.6559C17.4062 31.6562 17.3208 31.6235 17.2552 31.5641C17.1896 31.5048 17.1485 31.4231 17.14 31.3351C17.1302 31.2413 17.158 31.1475 17.2173 31.0742C17.2766 31.0008 17.3625 30.954 17.4562 30.9438C20.3785 30.6465 23.1502 29.5022 25.4313 27.6516C27.7123 25.801 29.4032 23.3245 30.2965 20.5263C31.1897 17.7281 31.2464 14.73 30.4595 11.9C29.6726 9.07008 28.0765 6.5315 25.867 4.59601C25.8317 4.56517 25.8029 4.52768 25.7821 4.48569C25.7614 4.4437 25.7491 4.39802 25.746 4.35128C25.7429 4.30454 25.749 4.25764 25.764 4.21327C25.7791 4.1689 25.8027 4.12793 25.8336 4.0927C25.8962 4.02156 25.9845 3.97814 26.0791 3.97196C26.1737 3.96578 26.2669 3.99733 26.3382 4.05972C28.6516 6.08709 30.3228 8.74576 31.1466 11.7094C31.9704 14.6731 31.9111 17.8128 30.9759 20.7432C30.0407 23.6736 28.2703 26.2672 25.882 28.2057C23.4937 30.1443 20.5913 31.3434 17.5312 31.6559C17.5191 31.6572 17.5069 31.6578 17.4946 31.6577V31.6559ZM15.9133 27.7726C9.38115 27.7726 4.06704 22.4635 4.06704 15.9381C4.06704 15.7673 4.07066 15.5974 4.07788 15.4284C4.08437 15.3356 4.12681 15.249 4.19617 15.187C4.26553 15.1249 4.35634 15.0924 4.44931 15.0963C4.54227 15.1002 4.63006 15.1402 4.694 15.2078C4.75795 15.2754 4.79301 15.3652 4.79173 15.4583C4.78496 15.6178 4.78179 15.7772 4.78179 15.9381C4.78315 22.0718 9.77648 27.0588 15.9147 27.0588C22.0529 27.0588 27.0467 22.0718 27.0467 15.9399C27.0471 14.0419 26.5617 12.1755 25.6366 10.5182C25.5928 10.4357 25.583 10.3392 25.6095 10.2496C25.6359 10.1599 25.6964 10.0842 25.778 10.0386C25.8597 9.99308 25.9559 9.9813 26.0461 10.0058C26.1363 10.0304 26.2133 10.0893 26.2605 10.1699C27.2449 11.9337 27.7614 13.92 27.761 15.9399C27.761 22.4653 22.4451 27.7744 15.9147 27.7744L15.9133 27.7726ZM15.9133 25.9098C13.6754 25.918 11.501 25.1669 9.74531 23.7791C9.67096 23.7204 9.623 23.6345 9.61198 23.5403C9.60097 23.4462 9.6278 23.3515 9.68657 23.2772C9.74535 23.2028 9.83125 23.1549 9.92539 23.1439C10.0195 23.1328 10.1142 23.1597 10.1885 23.2184C12.0922 24.7118 14.5041 25.4022 16.9097 25.1423C19.3153 24.8824 21.5241 23.6928 23.0649 21.8273C23.1262 21.7575 23.2122 21.7142 23.3048 21.7067C23.3974 21.6992 23.4893 21.7281 23.561 21.7872C23.6327 21.8463 23.6785 21.931 23.6888 22.0234C23.6991 22.1157 23.673 22.2084 23.6161 22.2819C22.6804 23.4184 21.5045 24.3334 20.1728 24.9611C18.8411 25.5887 17.3869 25.9134 15.9147 25.9116L15.9133 25.9098ZM23.7847 27.1256C22.321 28.162 20.6671 28.899 18.9179 29.2944C17.1687 29.6898 15.3586 29.7359 13.5915 29.4298C13.5453 29.422 13.5011 29.4051 13.4614 29.3801C13.4217 29.3551 13.3873 29.3226 13.3602 29.2843C13.3331 29.246 13.3138 29.2028 13.3034 29.1571C13.293 29.1113 13.2917 29.064 13.2996 29.0178C13.3075 28.9716 13.3244 28.9274 13.3494 28.8877C13.3744 28.848 13.4069 28.8137 13.4452 28.7866C13.4835 28.7595 13.5267 28.7403 13.5725 28.73C13.6182 28.7196 13.6655 28.7184 13.7117 28.7264C15.4477 29.0231 17.2259 28.9634 18.938 28.5509C20.6502 28.1384 22.2605 27.3818 23.6709 26.3271C25.0813 25.2724 26.2623 23.9417 27.142 22.416C28.0217 20.8903 28.5817 19.2016 28.7879 17.4525C28.7989 17.3585 28.8469 17.2726 28.9212 17.2139C28.9955 17.1552 29.0901 17.1284 29.1842 17.1394C29.2782 17.1504 29.364 17.1984 29.4228 17.2727C29.4815 17.347 29.5083 17.4416 29.4973 17.5357C29.2719 19.4458 28.6468 21.287 27.6628 22.9396C26.6788 24.5922 25.3579 26.0191 23.786 27.1274L23.7847 27.1256ZM11.3601 28.6902C11.3123 28.724 11.2569 28.7456 11.1988 28.7529C11.1407 28.7602 11.0818 28.7531 11.0271 28.7323C8.89995 27.9243 7.00796 26.5985 5.52241 24.875C4.03687 23.1514 3.00469 21.0846 2.51935 18.8615C2.03401 16.6385 2.11084 14.3295 2.74287 12.1437C3.37491 9.9578 4.54219 7.96411 6.13901 6.34313C6.15396 6.32767 6.1703 6.3136 6.18781 6.30111C6.26069 6.2503 6.34991 6.2285 6.43801 6.23997C6.52611 6.25145 6.60677 6.29537 6.66421 6.36314C6.72166 6.43092 6.75176 6.51769 6.74863 6.60648C6.7455 6.69528 6.70936 6.77971 6.64729 6.84328C5.13319 8.37967 4.02631 10.2695 3.42689 12.3417C2.82748 14.4138 2.75447 16.6027 3.21449 18.7102C3.67451 20.8176 4.65302 22.777 6.06139 24.4109C7.46975 26.0448 9.26348 27.3015 11.2801 28.0672C11.3407 28.0901 11.3939 28.129 11.434 28.1798C11.4741 28.2307 11.4996 28.2915 11.5078 28.3557C11.516 28.4199 11.5065 28.4852 11.4804 28.5444C11.4543 28.6037 11.4125 28.6547 11.3596 28.692L11.3601 28.6902ZM29.2551 14.0197C29.2116 14.0508 29.1615 14.0714 29.1087 14.0798C29.0154 14.0954 28.9197 14.0733 28.8426 14.0184C28.7655 13.9635 28.7134 13.8803 28.6976 13.787C28.3481 11.7338 27.5099 9.79468 26.2538 8.1333C24.9977 6.47192 23.3604 5.13698 21.4802 4.24108C19.5999 3.34517 17.5318 2.91459 15.4502 2.98564C13.3686 3.05669 11.3347 3.62729 9.51986 4.64932C9.44017 4.69398 9.34639 4.70638 9.25783 4.68398C9.16927 4.66158 9.09267 4.60607 9.0438 4.52889C8.99494 4.45171 8.97752 4.35873 8.99514 4.2691C9.01277 4.17946 9.06409 4.1 9.13854 4.04706C9.14829 4.04022 9.15839 4.03388 9.16881 4.02809C11.0834 2.94876 13.2295 2.3459 15.426 2.27041C17.6225 2.19492 19.805 2.64902 21.7891 3.59437C23.7732 4.53971 25.5008 5.94855 26.8259 7.70196C28.1511 9.45536 29.0349 11.5019 29.4028 13.6687C29.4138 13.7352 29.4058 13.8034 29.3796 13.8655C29.3535 13.9276 29.3103 13.9811 29.2551 14.0197ZM7.93403 21.6728C7.87554 21.6728 7.81794 21.6585 7.76627 21.6311C7.7146 21.6037 7.67043 21.564 7.63765 21.5156C6.25096 19.4601 5.68013 16.9615 6.0366 14.5078C6.39307 12.054 7.65124 9.82119 9.56549 8.24522C9.60162 8.21535 9.64329 8.19289 9.6881 8.17911C9.73291 8.16534 9.78 8.16053 9.82668 8.16496C9.87335 8.16938 9.9187 8.18296 9.96012 8.20491C10.0015 8.22686 10.0382 8.25675 10.0681 8.29289C10.098 8.32902 10.1205 8.37068 10.1342 8.4155C10.148 8.46031 10.1528 8.5074 10.1484 8.55408C10.144 8.60075 10.1304 8.64609 10.1084 8.68752C10.0865 8.72895 10.0566 8.76565 10.0205 8.79552C8.24319 10.2587 7.07499 12.3317 6.74392 14.6098C6.41285 16.8879 6.94268 19.2077 8.22996 21.1162C8.25649 21.1551 8.27506 21.1988 8.28461 21.2449C8.29415 21.2909 8.29448 21.3384 8.28557 21.3846C8.27667 21.4308 8.25871 21.4748 8.23273 21.514C8.20674 21.5533 8.17325 21.587 8.13418 21.6132C8.07495 21.6527 8.00521 21.6735 7.93403 21.6728ZM24.8053 19.9853C24.7587 19.9854 24.7126 19.976 24.6697 19.9578C24.6265 19.9398 24.5872 19.9134 24.5542 19.8803C24.5212 19.8471 24.495 19.8077 24.4772 19.7644C24.4594 19.7211 24.4504 19.6747 24.4505 19.6279C24.4507 19.581 24.4601 19.5347 24.4782 19.4915C24.9465 18.3661 25.1866 17.1589 25.1843 15.9399C25.1843 10.8345 21.0277 6.68153 15.9169 6.68153C14.6496 6.67898 13.3953 6.93783 12.2325 7.44192C12.1878 7.46163 12.1395 7.47179 12.0906 7.47173C12.0084 7.47196 11.9287 7.44383 11.8649 7.39208C11.801 7.34033 11.757 7.26814 11.7402 7.18769C11.7234 7.10724 11.7349 7.02347 11.7728 6.95052C11.8106 6.87756 11.8724 6.8199 11.9479 6.78725C13.2005 6.24406 14.5516 5.96506 15.9169 5.96768C21.4208 5.96768 25.8986 10.4405 25.8986 15.9399C25.9009 17.2528 25.6423 18.5531 25.1378 19.7653C25.1106 19.8309 25.0644 19.8869 25.0051 19.9261C24.9459 19.9653 24.8763 19.9859 24.8053 19.9853ZM0.458487 16.2968C0.363861 16.2967 0.273146 16.2591 0.206235 16.1921C0.139325 16.1252 0.101682 16.0345 0.101562 15.9399C0.101563 7.22912 7.19488 0.142578 15.9147 0.142578C18.5148 0.142883 21.0748 0.782596 23.3694 2.00536C23.4395 2.04299 23.495 2.10293 23.5271 2.17568C23.5592 2.24843 23.5661 2.32982 23.5467 2.40693C23.5273 2.48405 23.4827 2.55248 23.42 2.60136C23.3572 2.65024 23.28 2.67677 23.2005 2.67674C23.1416 2.67694 23.0837 2.66233 23.0319 2.63427C20.8408 1.46691 18.3961 0.856362 15.9133 0.856428C7.58794 0.856428 0.814508 7.62264 0.814508 15.9399C0.81439 16.0344 0.77687 16.1249 0.710155 16.1918C0.64344 16.2587 0.552956 16.2965 0.458487 16.2968ZM5.39986 11.6636C5.35025 11.6635 5.30119 11.6532 5.25574 11.6333C5.16941 11.5948 5.10189 11.5235 5.06801 11.4353C5.03413 11.347 5.03665 11.2489 5.07502 11.1625C5.85399 9.40236 7.04983 7.85835 8.55923 6.6639C10.0686 5.46946 11.8462 4.66051 13.7382 4.30696C15.6303 3.95341 17.58 4.0659 19.4189 4.63469C21.2578 5.20349 22.9305 6.21148 24.2925 7.57158C24.3572 7.63896 24.3929 7.72901 24.3919 7.82242C24.391 7.91583 24.3535 8.00514 24.2874 8.07119C24.2214 8.13725 24.1321 8.17477 24.0386 8.17572C23.9452 8.17666 23.8552 8.14095 23.7878 8.07625C22.5078 6.79822 20.9358 5.85108 19.2078 5.31666C17.4797 4.78223 15.6475 4.6766 13.8695 5.00888C12.0914 5.34116 10.4211 6.10136 9.00263 7.2238C7.5842 8.34625 6.4604 9.79717 5.72832 11.4512C5.70004 11.5146 5.65394 11.5685 5.59562 11.6062C5.53731 11.6439 5.4693 11.6638 5.39986 11.6636ZM24.7718 3.49767C24.8395 3.49438 24.9046 3.47113 24.959 3.43084C25.0134 3.39055 25.0547 3.33504 25.0775 3.27132C25.1004 3.20761 25.1039 3.13854 25.0875 3.07284C25.0712 3.00715 25.0357 2.94778 24.9856 2.90223C24.9355 2.85669 24.8731 2.82701 24.8061 2.81694C24.7392 2.80688 24.6707 2.81689 24.6095 2.8457C24.5482 2.87451 24.4968 2.92084 24.4619 2.97882C24.427 3.0368 24.41 3.10384 24.4131 3.17147C24.4152 3.21646 24.4261 3.2606 24.4453 3.30135C24.4645 3.34211 24.4915 3.37868 24.5248 3.40898C24.5581 3.43928 24.5971 3.46271 24.6395 3.47793C24.6819 3.49315 24.7269 3.49986 24.7718 3.49767ZM25.1066 9.35621C25.1744 9.35316 25.2397 9.33006 25.2943 9.28984C25.349 9.24961 25.3904 9.19407 25.4134 9.13026C25.4364 9.06644 25.44 8.99723 25.4236 8.93141C25.4072 8.86558 25.3717 8.8061 25.3214 8.76051C25.2712 8.71491 25.2086 8.68526 25.1415 8.67532C25.0744 8.66537 25.0058 8.67558 24.9445 8.70464C24.8832 8.7337 24.832 8.78031 24.7972 8.83856C24.7624 8.89681 24.7457 8.96407 24.7493 9.03181C24.754 9.12207 24.7943 9.20678 24.8612 9.26753C24.9281 9.32828 25.0163 9.36014 25.1066 9.35621ZM29.2953 15.9679C29.363 15.9647 29.4283 15.9415 29.4829 15.9012C29.5374 15.8609 29.5788 15.8053 29.6018 15.7414C29.6247 15.6776 29.6282 15.6084 29.6119 15.5426C29.5955 15.4768 29.56 15.4173 29.5098 15.3717C29.4596 15.326 29.397 15.2963 29.3299 15.2862C29.2629 15.2762 29.1943 15.2862 29.133 15.3151C29.0716 15.344 29.0202 15.3905 28.9852 15.4486C28.9503 15.5068 28.9333 15.5739 28.9366 15.6417C28.9409 15.7325 28.9811 15.8179 29.0484 15.8791C29.1157 15.9402 29.2045 15.9722 29.2953 15.9679ZM24.1854 21.2404C24.2531 21.2372 24.3184 21.214 24.3729 21.1737C24.4275 21.1335 24.4689 21.0779 24.4918 21.0141C24.5148 20.9503 24.5184 20.8811 24.502 20.8153C24.4857 20.7495 24.4502 20.69 24.4001 20.6444C24.35 20.5987 24.2874 20.5689 24.2204 20.5588C24.1533 20.5487 24.0848 20.5587 24.0234 20.5875C23.962 20.6164 23.9106 20.6628 23.8756 20.7208C23.8405 20.7789 23.8235 20.8461 23.8267 20.9138C23.831 21.0047 23.8712 21.0901 23.9385 21.1513C24.0057 21.2126 24.0945 21.2446 24.1854 21.2404ZM16.0593 31.7015C16.1269 31.6982 16.192 31.675 16.2464 31.6347C16.3008 31.5944 16.3421 31.5389 16.365 31.4752C16.3878 31.4114 16.3913 31.3424 16.3749 31.2767C16.3586 31.211 16.3231 31.1516 16.273 31.1061C16.2229 31.0605 16.1605 31.0308 16.0935 31.0208C16.0266 31.0107 15.9581 31.0207 15.8969 31.0495C15.8356 31.0783 15.7843 31.1247 15.7493 31.1827C15.7144 31.2406 15.6974 31.3077 15.7005 31.3753C15.7026 31.4203 15.7136 31.4644 15.7327 31.5052C15.7519 31.5459 15.7789 31.5825 15.8122 31.6128C15.8456 31.6431 15.8845 31.6665 15.9269 31.6818C15.9693 31.697 16.0143 31.7037 16.0593 31.7015ZM12.2894 29.1073C12.3572 29.104 12.4224 29.0808 12.477 29.0405C12.5316 29.0002 12.5729 28.9446 12.5959 28.8808C12.6188 28.817 12.6224 28.7478 12.606 28.6819C12.5896 28.6161 12.5541 28.5566 12.5039 28.511C12.4537 28.4654 12.3911 28.4356 12.3241 28.4256C12.257 28.4155 12.1884 28.4256 12.1271 28.4545C12.0657 28.4834 12.0143 28.5299 11.9793 28.588C11.9444 28.6461 11.9275 28.7133 11.9307 28.781C11.935 28.8719 11.9752 28.9573 12.0425 29.0184C12.1098 29.0796 12.1986 29.1115 12.2894 29.1073ZM8.85571 22.7468C8.92346 22.7436 8.98874 22.7203 9.04329 22.68C9.09784 22.6397 9.13922 22.5841 9.16218 22.5203C9.18514 22.4565 9.18866 22.3873 9.17229 22.3215C9.15592 22.2556 9.12039 22.1961 9.07021 22.1505C9.02003 22.1049 8.95744 22.0752 8.89036 22.0651C8.82328 22.055 8.75472 22.0651 8.69336 22.094C8.632 22.1229 8.58059 22.1694 8.54564 22.2275C8.51068 22.2856 8.49374 22.3528 8.49697 22.4206C8.50143 22.5112 8.54156 22.5963 8.6086 22.6575C8.67565 22.7186 8.76416 22.7507 8.8548 22.7468H8.85571ZM0.813605 19.5665C0.881357 19.5633 0.946638 19.5401 1.00119 19.4998C1.05574 19.4595 1.09711 19.4039 1.12008 19.3401C1.14304 19.2762 1.14655 19.207 1.13018 19.1412C1.11381 19.0754 1.07829 19.0159 1.02811 18.9703C0.977923 18.9246 0.915334 18.8949 0.848255 18.8849C0.781177 18.8748 0.712622 18.8849 0.651261 18.9138C0.5899 18.9427 0.53849 18.9891 0.503533 19.0472C0.468576 19.1054 0.451642 19.1726 0.454872 19.2403C0.459208 19.3309 0.499243 19.4161 0.566218 19.4772C0.633193 19.5383 0.721655 19.5704 0.812249 19.5665H0.813605ZM4.66749 13.6244C4.73511 13.6211 4.80024 13.5979 4.85465 13.5576C4.90906 13.5173 4.9503 13.4618 4.97318 13.398C4.99606 13.3343 4.99953 13.2653 4.98317 13.1996C4.96681 13.1339 4.93134 13.0745 4.88126 13.029C4.83117 12.9834 4.7687 12.9537 4.70175 12.9437C4.6348 12.9336 4.56638 12.9436 4.50511 12.9724C4.44385 13.0012 4.3925 13.0476 4.35755 13.1055C4.3226 13.1635 4.30562 13.2306 4.30876 13.2982C4.31321 13.3887 4.35328 13.4738 4.42023 13.5349C4.48717 13.596 4.57557 13.6282 4.66613 13.6244H4.66749ZM10.8653 8.01706C10.933 8.01377 10.9981 7.99052 11.0525 7.95023C11.1069 7.90994 11.1481 7.85443 11.171 7.79072C11.1939 7.727 11.1974 7.65793 11.181 7.59223C11.1646 7.52654 11.1292 7.46717 11.0791 7.42162C11.029 7.37608 10.9665 7.3464 10.8996 7.33633C10.8326 7.32627 10.7642 7.33628 10.703 7.36509C10.6417 7.3939 10.5903 7.44023 10.5554 7.49821C10.5204 7.55619 10.5035 7.62323 10.5066 7.69086C10.5109 7.78168 10.5512 7.86706 10.6184 7.92824C10.6857 7.98941 10.7745 8.02136 10.8653 8.01706ZM7.68192 5.58997C7.74954 5.58669 7.81467 5.56343 7.86908 5.52314C7.92349 5.48286 7.96474 5.42735 7.98761 5.36363C8.01049 5.29991 8.01397 5.23084 7.9976 5.16514C7.98124 5.09945 7.94578 5.04008 7.89569 4.99453C7.8456 4.94899 7.78314 4.91931 7.71619 4.90925C7.64924 4.89918 7.58081 4.90919 7.51954 4.938C7.45828 4.96681 7.40693 5.01314 7.37198 5.07112C7.33703 5.1291 7.32005 5.19614 7.32319 5.26377C7.32527 5.30876 7.33622 5.3529 7.35538 5.39365C7.37455 5.43441 7.40157 5.47099 7.43489 5.50129C7.46821 5.53159 7.50718 5.55502 7.54957 5.57023C7.59196 5.58545 7.63694 5.59216 7.68192 5.58997ZM22.6366 18.873H21.972L21.7493 18.2034C21.7398 18.1735 21.7208 18.1475 21.6952 18.1294C21.6695 18.1113 21.6386 18.1022 21.6073 18.1033C21.5759 18.1045 21.5458 18.116 21.5216 18.1359C21.4974 18.1559 21.4804 18.1833 21.4732 18.2138L21.2541 18.8689H20.5976C20.5788 18.8689 20.5601 18.8725 20.5426 18.8797C20.5252 18.8869 20.5093 18.8974 20.4959 18.9107C20.4825 18.924 20.4719 18.9398 20.4646 18.9572C20.4573 18.9746 20.4536 18.9933 20.4535 19.0122C20.4536 19.0329 20.4582 19.0533 20.4671 19.072C20.4759 19.0907 20.4887 19.1073 20.5046 19.1206L21.0625 19.5484L20.8547 20.2117C20.846 20.2306 20.8414 20.251 20.8412 20.2718C20.8413 20.2985 20.8488 20.3246 20.863 20.3472C20.8771 20.3698 20.8973 20.3881 20.9212 20.3999C20.9451 20.4117 20.9718 20.4167 20.9984 20.4141C21.025 20.4116 21.0503 20.4017 21.0716 20.3856L21.6137 19.9713L22.1365 20.3716C22.1565 20.3918 22.182 20.4056 22.2098 20.4113C22.2377 20.417 22.2666 20.4143 22.2929 20.4036C22.3192 20.3928 22.3417 20.3745 22.3576 20.351C22.3735 20.3275 22.3821 20.2997 22.3822 20.2713C22.3823 20.2545 22.3793 20.2378 22.3732 20.2221L22.1631 19.5512L22.7161 19.1296C22.7401 19.1121 22.758 19.0876 22.7674 19.0595C22.7768 19.0314 22.7772 19.001 22.7685 18.9727C22.7599 18.9443 22.7426 18.9194 22.7192 18.9013C22.6957 18.8831 22.6671 18.8728 22.6375 18.8716L22.6366 18.873ZM23.6459 15.6959C23.6702 15.6786 23.6883 15.6541 23.6979 15.6259C23.7075 15.5977 23.7079 15.5672 23.6992 15.5387C23.6906 15.5102 23.6732 15.4852 23.6495 15.4671C23.6258 15.449 23.5971 15.4388 23.5673 15.4379H22.9027L22.68 14.7697C22.6704 14.7399 22.6513 14.714 22.6257 14.696C22.6 14.678 22.5691 14.6689 22.5378 14.6701C22.5065 14.6712 22.4764 14.6826 22.4521 14.7025C22.4279 14.7224 22.4108 14.7496 22.4035 14.7801L22.1844 15.4352H21.5283C21.499 15.4351 21.4704 15.4439 21.4463 15.4606C21.4222 15.4773 21.4039 15.501 21.3937 15.5285C21.3835 15.5559 21.3821 15.5859 21.3895 15.6142C21.397 15.6426 21.4129 15.6679 21.4353 15.6869L21.9932 16.1156L21.7854 16.7789C21.7765 16.7977 21.7719 16.8182 21.7719 16.839C21.7719 16.8657 21.7794 16.8918 21.7934 16.9145C21.8075 16.9371 21.8276 16.9554 21.8515 16.9672C21.8754 16.9791 21.9022 16.984 21.9287 16.9814C21.9553 16.9789 21.9806 16.969 22.0018 16.9528L22.544 16.5385L23.0672 16.9384C23.0873 16.9585 23.1129 16.9723 23.1407 16.9779C23.1686 16.9836 23.1975 16.9808 23.2239 16.9701C23.2502 16.9593 23.2728 16.941 23.2887 16.9174C23.3046 16.8938 23.3132 16.8661 23.3134 16.8376C23.3133 16.8208 23.3101 16.8041 23.3039 16.7884L23.0934 16.1174L23.6432 15.6932L23.6459 15.6959ZM20.5023 12.3557L21.0621 12.7818L20.8543 13.445C20.8456 13.4639 20.841 13.4844 20.8407 13.5051C20.8408 13.5318 20.8484 13.5579 20.8625 13.5806C20.8766 13.6032 20.8968 13.6214 20.9207 13.6333C20.9446 13.6451 20.9714 13.65 20.9979 13.6475C21.0245 13.645 21.0498 13.6351 21.0711 13.619L21.6133 13.2047L22.136 13.605C22.156 13.6252 22.1815 13.639 22.2094 13.6447C22.2372 13.6503 22.2661 13.6477 22.2924 13.6369C22.3187 13.6262 22.3413 13.6079 22.3572 13.5843C22.3731 13.5608 22.3816 13.5331 22.3818 13.5047C22.3819 13.4878 22.3788 13.4711 22.3728 13.4554L22.1627 12.7845L22.7161 12.3625C22.7401 12.345 22.758 12.3205 22.7674 12.2924C22.7768 12.2643 22.7772 12.2339 22.7685 12.2056C22.7599 12.1772 22.7426 12.1522 22.7192 12.1341C22.6957 12.116 22.6671 12.1057 22.6375 12.1045H21.972L21.7493 11.439C21.7398 11.4091 21.7208 11.3831 21.6952 11.365C21.6695 11.3469 21.6386 11.3378 21.6073 11.3389C21.5759 11.3401 21.5458 11.3516 21.5216 11.3715C21.4974 11.3915 21.4804 11.4189 21.4732 11.4494L21.2532 12.1041H20.5976C20.5787 12.104 20.56 12.1076 20.5425 12.1147C20.5251 12.1219 20.5092 12.1324 20.4958 12.1457C20.4824 12.159 20.4717 12.1748 20.4645 12.1923C20.4572 12.2097 20.4535 12.2284 20.4535 12.2473C20.4536 12.2679 20.4582 12.2883 20.467 12.307C20.4758 12.3256 20.4886 12.3421 20.5046 12.3553L20.5023 12.3557ZM20.1531 9.6309H19.4916L19.2689 8.9654C19.2596 8.93526 19.2407 8.90901 19.215 8.89073C19.1893 8.87245 19.1583 8.86315 19.1268 8.86428C19.0953 8.86542 19.065 8.87691 19.0407 8.89699C19.0164 8.91707 18.9994 8.94461 18.9924 8.97534L18.7732 9.6309H18.1172C18.0984 9.63067 18.0797 9.63415 18.0622 9.64115C18.0447 9.64816 18.0287 9.65855 18.0153 9.67173C18.0018 9.68491 17.991 9.70062 17.9837 9.71796C17.9763 9.7353 17.9724 9.75392 17.9722 9.77277C17.9722 9.79344 17.9768 9.81385 17.9855 9.83258C17.9942 9.85131 18.007 9.86791 18.0228 9.8812L18.5812 10.3091L18.3743 10.9746C18.3654 10.9932 18.3608 11.0136 18.3607 11.0342C18.3608 11.0609 18.3682 11.087 18.3823 11.1097C18.3964 11.1323 18.4165 11.1506 18.4404 11.1624C18.4643 11.1743 18.4911 11.1792 18.5176 11.1767C18.5442 11.1741 18.5695 11.1642 18.5907 11.1481L19.1329 10.7342L19.6552 11.1345C19.6752 11.1547 19.7008 11.1684 19.7287 11.1741C19.7566 11.1797 19.7855 11.177 19.8119 11.1662C19.8382 11.1554 19.8607 11.1371 19.8767 11.1135C19.8926 11.09 19.9012 11.0622 19.9014 11.0338C19.9012 11.0171 19.8981 11.0006 19.8924 10.985L19.6818 10.314L20.2335 9.89024C20.2577 9.8729 20.2759 9.84841 20.2854 9.82021C20.295 9.79201 20.2955 9.76152 20.2868 9.73303C20.2781 9.70454 20.2607 9.6795 20.237 9.66142C20.2134 9.64334 20.1846 9.63314 20.1549 9.63226L20.1531 9.6309ZM14.6411 8.99612L15.1995 9.42398L14.9917 10.0872C14.9828 10.106 14.9781 10.1265 14.9781 10.1473C14.9782 10.1853 14.9934 10.2218 15.0203 10.2486C15.0473 10.2755 15.0837 10.2905 15.1218 10.2905C15.1531 10.2903 15.1835 10.28 15.2085 10.2612L15.7507 9.84687L16.2734 10.2472C16.2934 10.2674 16.3189 10.2812 16.3468 10.2869C16.3746 10.2925 16.4035 10.2898 16.4298 10.2791C16.4561 10.2684 16.4786 10.2501 16.4946 10.2265C16.5105 10.203 16.519 10.1753 16.5192 10.1469C16.519 10.13 16.516 10.1134 16.5102 10.0976L16.2996 9.42669L16.8499 9.00245C16.8741 8.98514 16.8923 8.96068 16.9018 8.93252C16.9114 8.90436 16.9119 8.87391 16.9033 8.84544C16.8947 8.81697 16.8773 8.79192 16.8538 8.77381C16.8302 8.7557 16.8015 8.74544 16.7718 8.74447H16.1112L15.8889 8.07896C15.8795 8.04902 15.8605 8.02302 15.8348 8.00493C15.8092 7.98685 15.7783 7.9777 15.7469 7.97888C15.7156 7.98006 15.6855 7.99151 15.6613 8.01147C15.637 8.03143 15.62 8.05879 15.6129 8.08935L15.3938 8.74447H14.7368C14.7075 8.74432 14.6789 8.75318 14.6548 8.76986C14.6307 8.78654 14.6124 8.81023 14.6022 8.83771C14.592 8.86519 14.5906 8.89513 14.598 8.92347C14.6054 8.95181 14.6214 8.97717 14.6438 8.99612H14.6411ZM11.2358 9.89024L11.7942 10.3181L11.5864 10.9813C11.5775 11 11.5729 11.0203 11.5729 11.041C11.5729 11.0598 11.5766 11.0785 11.5838 11.0959C11.591 11.1133 11.6016 11.1291 11.615 11.1424C11.6283 11.1557 11.6442 11.1663 11.6616 11.1734C11.679 11.1806 11.6977 11.1843 11.7165 11.1842C11.7479 11.1843 11.7784 11.174 11.8033 11.1548L12.3454 10.7405L12.8668 11.1422C12.8868 11.1624 12.9124 11.1762 12.9403 11.1819C12.9682 11.1876 12.9971 11.1848 13.0234 11.174C13.0497 11.1633 13.0723 11.1449 13.0882 11.1213C13.104 11.0977 13.1125 11.0699 13.1126 11.0414C13.1124 11.0248 13.1093 11.0083 13.1036 10.9926L12.893 10.3217L13.4433 9.89792C13.4675 9.88061 13.4857 9.85616 13.4952 9.828C13.5048 9.79984 13.5053 9.76938 13.4967 9.74092C13.4881 9.71245 13.4708 9.6874 13.4472 9.66929C13.4236 9.65118 13.3949 9.64091 13.3652 9.63994H12.7037L12.4814 8.97443C12.472 8.9445 12.453 8.91849 12.4273 8.90041C12.4017 8.88233 12.3708 8.87317 12.3394 8.87435C12.3081 8.87553 12.278 8.88698 12.2538 8.90694C12.2295 8.9269 12.2125 8.95426 12.2054 8.98482L11.9863 9.63994H11.3307C11.3118 9.63988 11.2932 9.64354 11.2757 9.65071C11.2583 9.65788 11.2425 9.66842 11.2291 9.68173C11.2158 9.69503 11.2052 9.71084 11.198 9.72825C11.1907 9.74565 11.187 9.76432 11.187 9.78316C11.187 9.80383 11.1916 9.82424 11.2003 9.84297C11.2091 9.8617 11.2218 9.8783 11.2376 9.89159L11.2358 9.89024ZM10.9557 12.1127H10.2915L10.0693 11.4472C10.0598 11.4172 10.0408 11.3912 10.0152 11.3731C9.98951 11.355 9.95863 11.3459 9.92726 11.3471C9.8959 11.3483 9.86579 11.3597 9.84157 11.3797C9.81735 11.3996 9.80035 11.427 9.7932 11.4575L9.57407 12.1127H8.9176C8.89876 12.1126 8.88008 12.1163 8.86266 12.1234C8.84523 12.1306 8.82939 12.1411 8.81604 12.1544C8.80269 12.1678 8.7921 12.1836 8.78488 12.201C8.77765 12.2184 8.77393 12.237 8.77393 12.2559C8.77396 12.2766 8.7785 12.297 8.78724 12.3157C8.79598 12.3344 8.80871 12.351 8.82453 12.3643L9.38296 12.7922L9.17513 13.4554C9.16625 13.474 9.16162 13.4944 9.16158 13.5151C9.16158 13.5339 9.1653 13.5526 9.17252 13.57C9.17975 13.5874 9.19034 13.6032 9.20369 13.6165C9.21703 13.6298 9.23288 13.6403 9.2503 13.6475C9.26773 13.6547 9.28641 13.6583 9.30525 13.6583C9.33649 13.6584 9.36686 13.6481 9.39155 13.6289L9.93371 13.2146L10.4564 13.6149C10.4765 13.6351 10.502 13.6489 10.5299 13.6546C10.5578 13.6603 10.5867 13.6576 10.613 13.6468C10.6394 13.636 10.6619 13.6176 10.6778 13.594C10.6937 13.5704 10.7022 13.5426 10.7022 13.5142C10.702 13.4975 10.699 13.481 10.6932 13.4654L10.4827 12.7944L11.0329 12.3706C11.0571 12.3533 11.0753 12.3289 11.0849 12.3007C11.0944 12.2726 11.095 12.2421 11.0863 12.2136C11.0777 12.1852 11.0604 12.1601 11.0368 12.142C11.0132 12.1239 10.9845 12.1136 10.9548 12.1127H10.9557ZM9.56097 16.947C9.58105 16.9671 9.60664 16.9809 9.63452 16.9865C9.66241 16.9921 9.69133 16.9894 9.71766 16.9786C9.74399 16.9679 9.76654 16.9495 9.78248 16.926C9.79841 16.9024 9.80702 16.8747 9.80721 16.8462C9.80708 16.8295 9.80386 16.813 9.79772 16.7974L9.58853 16.1251L10.1384 15.7013C10.1567 15.6882 10.1716 15.6709 10.1819 15.6509C10.1922 15.6308 10.1976 15.6086 10.1976 15.5861C10.1973 15.5492 10.1828 15.5138 10.1571 15.4873C10.1315 15.4607 10.0966 15.445 10.0598 15.4434H9.39652L9.17378 14.7774C9.16434 14.7475 9.14534 14.7215 9.11969 14.7034C9.09403 14.6853 9.06315 14.6761 9.03179 14.6773C9.00042 14.6785 8.97032 14.6899 8.9461 14.7099C8.92187 14.7299 8.90488 14.7572 8.89772 14.7878L8.6786 15.4434H8.02213C8.00328 15.4433 7.98461 15.447 7.96718 15.4541C7.94975 15.4613 7.93391 15.4718 7.92056 15.4851C7.90722 15.4984 7.89663 15.5143 7.8894 15.5317C7.88217 15.5491 7.87846 15.5677 7.87846 15.5866C7.87848 15.6072 7.88302 15.6277 7.89177 15.6464C7.90051 15.6651 7.91323 15.6817 7.92906 15.695L8.48703 16.1251L8.27921 16.7884C8.27032 16.807 8.26569 16.8274 8.26565 16.848C8.26567 16.8747 8.27314 16.9008 8.28722 16.9235C8.3013 16.9461 8.32142 16.9644 8.34533 16.9763C8.36923 16.9881 8.39597 16.993 8.42252 16.9905C8.44908 16.9879 8.47439 16.978 8.49562 16.9619L9.03778 16.548L9.56097 16.947ZM10.9557 18.8811H10.2915L10.0693 18.2156C10.0598 18.1857 10.0408 18.1597 10.0152 18.1416C9.98951 18.1235 9.95863 18.1144 9.92726 18.1155C9.8959 18.1167 9.86579 18.1282 9.84157 18.1481C9.81735 18.1681 9.80035 18.1955 9.7932 18.226L9.57362 18.8811H8.9176C8.88831 18.881 8.85967 18.8898 8.83559 18.9065C8.8115 18.9232 8.79313 18.9469 8.78297 18.9744C8.77281 19.0019 8.77134 19.0318 8.77878 19.0601C8.78621 19.0885 8.80219 19.1138 8.82453 19.1328L9.38251 19.5588L9.17468 20.2221C9.16616 20.2408 9.16185 20.2612 9.16203 20.2817C9.16205 20.3084 9.16952 20.3345 9.1836 20.3572C9.19767 20.3799 9.2178 20.3981 9.24171 20.41C9.26561 20.4218 9.29235 20.4267 9.3189 20.4242C9.34546 20.4216 9.37077 20.4117 9.392 20.3956L9.93416 19.9813L10.4569 20.3816C10.47 20.3956 10.4858 20.4069 10.5033 20.4146C10.5209 20.4224 10.5398 20.4265 10.559 20.4268C10.578 20.4268 10.5968 20.4231 10.6144 20.4158C10.6319 20.4085 10.6478 20.3978 10.6612 20.3843C10.6746 20.3708 10.6851 20.3548 10.6923 20.3372C10.6994 20.3196 10.7029 20.3007 10.7027 20.2817C10.7025 20.2649 10.6995 20.2482 10.6936 20.2325L10.4831 19.5615L11.0334 19.1373C11.0569 19.1198 11.0743 19.0955 11.0835 19.0677C11.0926 19.0399 11.093 19.0099 11.0845 18.9819C11.076 18.9539 11.059 18.9292 11.036 18.9112C11.013 18.8932 10.9849 18.8827 10.9557 18.8811ZM13.4027 21.3209H12.739L12.5167 20.6554C12.5072 20.6254 12.4882 20.5994 12.4626 20.5813C12.4369 20.5633 12.406 20.5541 12.3747 20.5553C12.3433 20.5565 12.3132 20.5679 12.289 20.5879C12.2648 20.6078 12.2478 20.6352 12.2406 20.6658L12.0206 21.3209H11.3646C11.3457 21.3208 11.3271 21.3245 11.3096 21.3316C11.2922 21.3388 11.2764 21.3493 11.263 21.3627C11.2497 21.376 11.2391 21.3918 11.2318 21.4092C11.2246 21.4266 11.2209 21.4452 11.2209 21.4641C11.2209 21.4848 11.2255 21.5052 11.2342 21.5239C11.2429 21.5426 11.2557 21.5592 11.2715 21.5725L11.8277 21.9986L11.6198 22.6618C11.611 22.6804 11.6063 22.7008 11.6063 22.7215C11.6064 22.7481 11.614 22.7743 11.6281 22.7969C11.6422 22.8195 11.6624 22.8378 11.6863 22.8496C11.7102 22.8614 11.737 22.8663 11.7635 22.8638C11.7901 22.8613 11.8154 22.8514 11.8367 22.8353L12.3789 22.421L12.9016 22.8213C12.9216 22.8415 12.9472 22.8554 12.9751 22.861C13.0029 22.8667 13.0319 22.864 13.0582 22.8532C13.0845 22.8424 13.1071 22.824 13.1229 22.8004C13.1388 22.7768 13.1473 22.749 13.1474 22.7206C13.1472 22.7039 13.1441 22.6874 13.1384 22.6718L12.9278 22.0008L13.4781 21.577C13.5023 21.5597 13.5205 21.5353 13.53 21.5071C13.5396 21.479 13.5401 21.4485 13.5315 21.42C13.5229 21.3916 13.5055 21.3665 13.4819 21.3484C13.4584 21.3303 13.4297 21.32 13.3999 21.3191L13.4027 21.3209ZM16.8124 22.205H16.1492L15.9264 21.5391C15.917 21.5092 15.898 21.4831 15.8723 21.4651C15.8467 21.447 15.8158 21.4378 15.7844 21.439C15.7531 21.4402 15.723 21.4516 15.6987 21.4716C15.6745 21.4916 15.6575 21.5189 15.6504 21.5495L15.4313 22.205H14.7748C14.7559 22.205 14.7373 22.2086 14.7198 22.2158C14.7024 22.223 14.6866 22.2335 14.6732 22.2468C14.6599 22.2601 14.6493 22.2759 14.6421 22.2934C14.6348 22.3108 14.6311 22.3294 14.6311 22.3483C14.6311 22.3689 14.6357 22.3894 14.6444 22.4081C14.6532 22.4268 14.6659 22.4434 14.6817 22.4567L15.2401 22.8846L15.0323 23.5478C15.0234 23.5664 15.0188 23.5868 15.0188 23.6074C15.0188 23.6341 15.0262 23.6603 15.0403 23.6829C15.0544 23.7056 15.0745 23.7239 15.0984 23.7357C15.1223 23.7475 15.1491 23.7524 15.1756 23.7499C15.2022 23.7474 15.2275 23.7375 15.2487 23.7213L15.7909 23.3074L16.3136 23.7077C16.3336 23.728 16.3592 23.7418 16.3871 23.7475C16.415 23.7531 16.4439 23.7504 16.4702 23.7396C16.4966 23.7288 16.5191 23.7105 16.535 23.6868C16.5508 23.6632 16.5593 23.6354 16.5594 23.607C16.5593 23.5903 16.5561 23.5737 16.5499 23.5582L16.3394 22.8873L16.8892 22.4635C16.9133 22.4461 16.9313 22.4216 16.9407 22.3935C16.9501 22.3654 16.9506 22.335 16.9419 22.3066C16.9332 22.2783 16.9159 22.2533 16.8924 22.2353C16.8689 22.2172 16.8403 22.207 16.8106 22.206L16.8124 22.205ZM20.1558 21.3127H19.4916L19.2689 20.6432C19.2593 20.6133 19.2402 20.5874 19.2145 20.5694C19.1889 20.5514 19.158 20.5423 19.1267 20.5435C19.0954 20.5447 19.0653 20.5561 19.041 20.5759C19.0168 20.5958 18.9997 20.6231 18.9924 20.6536L18.7732 21.3091H18.1172C18.0984 21.3091 18.0797 21.3127 18.0623 21.3199C18.0449 21.3271 18.029 21.3376 18.0157 21.3509C18.0023 21.3642 17.9917 21.38 17.9845 21.3974C17.9773 21.4148 17.9736 21.4335 17.9736 21.4523C17.9736 21.473 17.9781 21.4934 17.9869 21.5122C17.9956 21.5309 18.0083 21.5475 18.0242 21.5608L18.5826 21.9886L18.3748 22.6519C18.3659 22.6705 18.3612 22.6909 18.3612 22.7115C18.3612 22.7382 18.3687 22.7643 18.3828 22.787C18.3968 22.8097 18.417 22.8279 18.4409 22.8398C18.4648 22.8516 18.4915 22.8565 18.5181 22.854C18.5446 22.8514 18.5699 22.8415 18.5912 22.8254L19.1333 22.4115L19.6556 22.8118C19.6757 22.832 19.7013 22.8457 19.7292 22.8514C19.7571 22.857 19.786 22.8543 19.8123 22.8435C19.8386 22.8327 19.8612 22.8144 19.8771 22.7908C19.8931 22.7673 19.9017 22.7395 19.9019 22.7111C19.9016 22.6944 19.8986 22.6779 19.8928 22.6623L19.6823 21.9913L20.2321 21.5676C20.2562 21.5502 20.2741 21.5257 20.2836 21.4976C20.293 21.4694 20.2935 21.4391 20.2848 21.4107C20.2761 21.3823 20.2588 21.3574 20.2353 21.3393C20.2117 21.3213 20.1832 21.311 20.1535 21.31L20.1558 21.3127ZM17.2041 15.236H17.1974V14.4923C17.1963 14.1321 17.0523 13.7871 16.7971 13.533C16.5419 13.2789 16.1962 13.1364 15.8361 13.1369C15.4758 13.1363 15.1301 13.2787 14.8748 13.5328C14.6194 13.787 14.4754 14.1321 14.4743 14.4923V15.2364C14.3312 15.2397 14.195 15.2988 14.0948 15.4011C13.9946 15.5034 13.9384 15.6408 13.938 15.784V18.1393C13.9381 18.2114 13.9524 18.2828 13.9801 18.3493C14.0077 18.4159 14.0483 18.4764 14.0993 18.5273C14.1504 18.5782 14.211 18.6185 14.2777 18.646C14.3444 18.6734 14.4158 18.6875 14.4879 18.6873H17.2041C17.2762 18.6874 17.3476 18.6733 17.4143 18.6459C17.4809 18.6184 17.5415 18.5781 17.5926 18.5272C17.6436 18.4763 17.6841 18.4158 17.7118 18.3493C17.7395 18.2827 17.7539 18.2114 17.754 18.1393V15.784C17.7539 15.7119 17.7395 15.6406 17.7118 15.574C17.6841 15.5075 17.6436 15.447 17.5926 15.3961C17.5415 15.3452 17.4809 15.3049 17.4143 15.2774C17.3476 15.2499 17.2762 15.2359 17.2041 15.236ZM16.1035 17.1674V17.6025C16.1008 17.669 16.0724 17.7319 16.0243 17.7779C15.9763 17.824 15.9123 17.8497 15.8458 17.8497C15.7792 17.8497 15.7153 17.824 15.6672 17.7779C15.6192 17.7319 15.5908 17.669 15.588 17.6025V17.1674C15.473 17.1094 15.381 17.0144 15.3267 16.8976C15.2724 16.7808 15.2591 16.6491 15.2889 16.5238C15.3187 16.3986 15.3899 16.287 15.4909 16.2071C15.592 16.1273 15.717 16.0839 15.8458 16.0839C15.9746 16.0839 16.0996 16.1273 16.2006 16.2071C16.3017 16.287 16.3729 16.3986 16.4027 16.5238C16.4325 16.6491 16.4192 16.7808 16.3649 16.8976C16.3106 17.0144 16.2185 17.1094 16.1035 17.1674ZM16.6127 15.236H15.0585V14.4331C15.0589 14.2273 15.1409 14.0301 15.2867 13.8848C15.4324 13.7395 15.6298 13.658 15.8356 13.6583C15.9375 13.6582 16.0384 13.6781 16.1326 13.717C16.2267 13.7559 16.3123 13.8129 16.3844 13.8849C16.4565 13.9568 16.5138 14.0423 16.5529 14.1363C16.592 14.2304 16.6122 14.3313 16.6123 14.4331L16.6127 15.236Z" fill="white"/>
</svg>
