<svg width="63" height="32" viewBox="0 0 63 32" fill="none" xmlns="http://www.w3.org/2000/svg">
<path fill-rule="evenodd" clip-rule="evenodd" d="M37.8527 11.1439C38.482 11.1439 38.7905 10.8244 38.7905 10.2088C38.7905 9.58251 38.482 9.26352 37.8527 9.26352H35.5061V7.43902H39.2601C39.8893 7.43902 40.1984 7.12003 40.1984 6.49375C40.1984 5.87813 39.8893 5.55863 39.2601 5.55863H34.523C33.882 5.55863 33.5393 5.8893 33.5393 6.53946V13.2635C33.5393 13.9132 33.882 14.2438 34.523 14.2438C35.1757 14.2438 35.5061 13.9132 35.5061 13.2635V11.1439H37.8527ZM28.0011 7.43902C28.7563 7.43902 29.3509 7.78136 29.3509 8.59051C29.3509 9.38848 28.7563 9.72981 28.0011 9.72981H26.3301V7.43902H28.0011ZM29.1224 13.617C29.306 14.0275 29.5686 14.2438 29.9347 14.2438C30.4268 14.2438 31.0785 13.8791 31.0785 13.3092C31.0785 13.1381 31.0443 12.9674 30.953 12.7845L30.0377 10.9616C30.8842 10.5171 31.3875 9.6846 31.3875 8.59051C31.3875 6.80105 30.0724 5.55863 28.1729 5.55863H25.3353C24.6948 5.55863 24.3506 5.8893 24.3506 6.53946V13.2635C24.3506 13.9132 24.6948 14.2438 25.3353 14.2438C25.9869 14.2438 26.3301 13.9132 26.3301 13.2635V11.5198H28.1388L29.1224 13.617ZM20.0494 10.2205C20.0494 11.5543 19.2366 12.3518 18.1041 12.3518C16.9828 12.3518 16.1705 11.5543 16.1705 10.2205V6.4587C16.1705 5.80956 15.8268 5.4794 15.1746 5.4794C14.5347 5.4794 14.1905 5.80956 14.1905 6.4587V10.2205C14.1905 12.6936 15.8497 14.289 18.1041 14.289C20.3697 14.289 22.0289 12.6936 22.0289 10.2205V6.4587C22.0289 5.80956 21.6853 5.4794 21.0336 5.4794C20.3926 5.4794 20.0494 5.80956 20.0494 6.4587V10.2205ZM8.84754 12.4432C8.08062 12.4432 7.5656 12.272 7.13115 12.1242C6.82214 12.0211 6.5473 11.9414 6.25001 11.9414C5.67788 11.9414 5.34644 12.2949 5.34644 12.8648C5.34644 13.7877 7.23416 14.289 8.84754 14.289C10.7699 14.289 12.2686 13.2635 12.2686 11.6681C12.2686 10.1748 11.2732 9.5246 10.1861 9.19444L8.57269 8.70429C7.89807 8.49908 7.58855 8.31724 7.58855 7.92968C7.58855 7.49641 8.27541 7.28003 8.82459 7.28003C9.49973 7.28003 9.99129 7.4507 10.3921 7.59902C10.6669 7.68994 10.9071 7.78136 11.1809 7.78136C11.7077 7.78136 11.9937 7.42835 11.9937 6.85794C11.9937 5.93502 10.2779 5.43368 8.82459 5.43368C6.9486 5.43368 5.56366 6.48156 5.56366 8.0206C5.56366 9.29705 6.47897 10.027 7.52022 10.3343L8.96227 10.7675C9.68279 10.9844 10.2427 11.1668 10.2427 11.6112C10.2427 12.1471 9.49973 12.4432 8.84754 12.4432V12.4432ZM57.7289 19.441C60.3672 19.441 62.5078 21.5718 62.5078 24.2009V27.2414C62.5078 29.87 60.3672 32.0003 57.7289 32.0003H50.5961C47.9573 32.0003 45.8182 29.87 45.8182 27.2414V25.3636C45.8182 22.093 43.1559 19.441 39.872 19.441H5.9461C2.66222 19.441 -6.10352e-05 16.7896 -6.10352e-05 13.518V6.19356C-6.10352e-05 2.92194 2.66222 0.270508 5.9461 0.270508H39.872C43.1559 0.270508 45.8182 2.92194 45.8182 6.19356V13.518C45.8182 16.7896 48.4805 19.441 51.7648 19.441H57.7289Z" fill="white"/>
</svg>
