<svg width="375" height="284" viewBox="0 0 375 284" fill="none" xmlns="http://www.w3.org/2000/svg">
<g clip-path="url(#clip0_1134_9730)">
<path d="M176.224 237.899C176.224 237.899 180.997 230.068 187.125 234.698C193.252 239.328 204.6 247.14 204.6 247.14C204.6 247.14 206.925 252.136 200.909 250.259C194.893 248.383 175.255 245.362 175.255 245.362L176.224 237.899Z" fill="#FEB8B8"/>
<path d="M42.8421 188.17C44.363 175.94 51.9426 163.889 63.6065 159.909C59.0066 172.497 59.0076 186.307 63.6093 198.895C65.4016 203.743 67.8999 208.948 66.214 213.835C65.1651 216.875 62.599 219.201 59.7306 220.655C56.8621 222.11 53.6786 222.803 50.5349 223.482L49.9162 223.994C44.9257 212.725 41.3211 200.4 42.8421 188.17Z" fill="#F0F0F0"/>
<path d="M63.7228 160.141C56.9303 167.751 52.7085 177.309 51.6572 187.456C51.3921 189.636 51.4723 191.845 51.8949 194C52.3745 196.086 53.4039 198.006 54.8764 199.56C56.2202 201.036 57.7657 202.391 58.7272 204.168C59.2058 205.085 59.4852 206.093 59.547 207.126C59.6088 208.159 59.4516 209.193 59.0858 210.16C58.2369 212.595 56.5637 214.58 54.8601 216.464C52.9686 218.555 50.9707 220.698 50.1666 223.471C50.0692 223.807 49.5536 223.636 49.6508 223.301C51.0497 218.476 55.7331 215.736 57.9666 211.39C59.0088 209.363 59.4463 207.008 58.4692 204.868C57.6149 202.996 56.0223 201.598 54.6488 200.115C53.1901 198.62 52.1197 196.791 51.531 194.787C51 192.66 50.8348 190.458 51.0425 188.276C51.4318 183.356 52.5923 178.527 54.4815 173.967C56.6088 168.751 59.6127 163.937 63.3634 159.733C63.5956 159.473 63.9535 159.882 63.7228 160.141Z" fill="white"/>
<path d="M51.803 184.168C50.1246 183.761 48.6456 182.77 47.6303 181.373C46.6149 179.975 46.1293 178.263 46.2602 176.54C46.2879 176.192 46.8306 176.219 46.8028 176.567C46.678 178.171 47.1305 179.766 48.0787 181.065C49.0268 182.365 50.4081 183.282 51.9733 183.652C52.3134 183.733 52.1411 184.249 51.803 184.168Z" fill="white"/>
<path d="M54.0963 198.901C57.1278 197.091 59.3657 194.205 60.3638 190.818C60.4624 190.482 60.9781 190.653 60.8796 190.988C59.8344 194.511 57.4994 197.509 54.3406 199.386C54.0394 199.565 53.7968 199.079 54.0963 198.901Z" fill="white"/>
<path d="M57.1128 169.265C57.7294 169.558 58.4091 169.693 59.0909 169.659C59.7726 169.624 60.4352 169.421 61.0189 169.067C61.3177 168.884 61.56 169.371 61.2632 169.552C60.6164 169.94 59.8845 170.164 59.1313 170.203C58.3781 170.243 57.6267 170.098 56.9425 169.781C56.8755 169.756 56.8204 169.707 56.7883 169.643C56.7562 169.58 56.7496 169.506 56.7698 169.438C56.7927 169.369 56.8415 169.313 56.9058 169.281C56.97 169.248 57.0444 169.243 57.1128 169.265Z" fill="white"/>
<path d="M99.1604 181.754C98.9771 181.873 98.7938 181.992 98.6102 182.116C96.1538 183.731 93.8326 185.543 91.6697 187.534C91.5 187.686 91.3303 187.842 91.1653 187.997C86.0054 192.85 81.7913 198.619 78.7372 205.01C77.5243 207.554 76.5066 210.187 75.6931 212.886C74.5699 216.613 73.6485 220.743 71.4251 223.792C71.1967 224.113 70.9487 224.419 70.6824 224.709H50.5891C50.5435 224.686 50.4976 224.668 50.4517 224.645L49.6494 224.681C49.6816 224.539 49.7181 224.393 49.7504 224.25C49.7687 224.168 49.7916 224.085 49.8099 224.003C49.8236 223.948 49.8374 223.893 49.8466 223.842C49.8511 223.824 49.8558 223.806 49.8603 223.792C49.8694 223.742 49.8833 223.696 49.8925 223.65C50.0942 222.829 50.302 222.009 50.5159 221.188C50.5159 221.184 50.5159 221.184 50.5204 221.179C52.1663 214.93 54.3484 208.765 57.3969 203.126C57.4887 202.956 57.5803 202.782 57.6812 202.612C59.0695 200.078 60.6625 197.662 62.4444 195.387C63.4241 194.145 64.4661 192.953 65.5664 191.816C68.4149 188.884 71.7069 186.418 75.3218 184.509C82.5285 180.704 90.8719 179.246 98.5737 181.57C98.7707 181.63 98.9634 181.689 99.1604 181.754Z" fill="#F0F0F0"/>
<path d="M99.1147 182.009C89.109 183.996 79.9839 189.086 73.0354 196.554C71.511 198.136 70.2453 199.947 69.2851 201.923C68.4119 203.877 68.078 206.03 68.3181 208.157C68.5021 210.145 68.9206 212.157 68.6182 214.155C68.4482 215.175 68.0644 216.148 67.492 217.01C66.9197 217.872 66.1716 218.603 65.2969 219.155C63.1531 220.588 60.6224 221.165 58.1279 221.644C55.3583 222.175 52.4731 222.683 50.1615 224.413C49.8815 224.623 49.5726 224.176 49.8522 223.966C53.8739 220.957 59.2633 221.588 63.6629 219.463C65.7158 218.472 67.4824 216.856 67.9909 214.558C68.4356 212.55 68.0059 210.474 67.8022 208.463C67.5375 206.391 67.7842 204.286 68.5206 202.332C69.3771 200.314 70.5709 198.457 72.0506 196.839C75.3239 193.145 79.1577 189.988 83.4116 187.485C88.2508 184.6 93.5476 182.565 99.0729 181.467C99.4149 181.399 99.4544 181.942 99.1147 182.009H99.1147Z" fill="white"/>
<path d="M75.1311 194.017C74.0363 192.681 73.452 191 73.4826 189.273C73.5132 187.546 74.1566 185.886 75.298 184.59C75.5298 184.328 75.9471 184.676 75.715 184.938C74.6499 186.143 74.0506 187.69 74.0255 189.298C74.0003 190.906 74.5508 192.47 75.5777 193.708C75.8005 193.977 75.3527 194.285 75.1311 194.017H75.1311Z" fill="white"/>
<path d="M68.0923 207.161C71.6026 207.541 75.1271 206.584 77.963 204.48C78.2439 204.272 78.5528 204.719 78.2723 204.927C75.3171 207.11 71.6473 208.099 67.9953 207.695C67.6472 207.657 67.7461 207.122 68.0923 207.161Z" fill="white"/>
<path d="M88.3435 185.315C88.6594 185.92 89.1207 186.437 89.6859 186.82C90.2511 187.203 90.9025 187.439 91.5817 187.508C91.9301 187.542 91.8308 188.077 91.4847 188.043C90.7346 187.963 90.0155 187.701 89.3901 187.279C88.7647 186.858 88.2521 186.289 87.897 185.624C87.8583 185.564 87.8438 185.492 87.8566 185.421C87.8693 185.351 87.9083 185.289 87.9656 185.246C88.0249 185.205 88.0979 185.19 88.1687 185.203C88.2395 185.215 88.3023 185.256 88.3435 185.315Z" fill="white"/>
<path d="M338.687 168.546C336.349 149.748 324.699 131.226 306.771 125.108C313.841 144.457 313.84 165.683 306.767 185.031C304.012 192.483 300.172 200.484 302.763 207.994C304.376 212.667 308.32 216.243 312.729 218.478C317.138 220.714 322.031 221.779 326.863 222.823L327.814 223.61C335.484 206.289 341.025 187.345 338.687 168.546Z" fill="#F0F0F0"/>
<path d="M306.593 125.464C317.033 137.162 323.522 151.853 325.138 167.449C325.464 170.792 325.504 174.212 324.773 177.508C324.036 180.714 322.454 183.665 320.19 186.054C318.125 188.323 315.749 190.405 314.271 193.137C312.714 196.016 312.654 199.288 313.72 202.347C315.025 206.089 317.597 209.14 320.215 212.035C323.123 215.25 326.194 218.544 327.429 222.806C327.579 223.322 328.372 223.06 328.222 222.544C326.072 215.129 318.873 210.916 315.44 204.237C313.839 201.121 313.166 197.502 314.668 194.212C315.981 191.336 318.429 189.186 320.54 186.907C322.757 184.513 324.457 181.887 325.332 178.717C326.228 175.476 326.322 172.047 326.083 168.71C325.485 161.147 323.701 153.725 320.797 146.716C317.528 138.698 312.91 131.299 307.145 124.838C306.788 124.438 306.238 125.067 306.593 125.464L306.593 125.464Z" fill="white"/>
<path d="M324.913 162.396C327.493 161.77 329.766 160.247 331.327 158.099C332.888 155.951 333.634 153.319 333.433 150.672C333.39 150.136 332.556 150.177 332.599 150.713C332.791 153.178 332.095 155.63 330.638 157.627C329.181 159.624 327.057 161.034 324.652 161.603C324.129 161.728 324.394 162.52 324.913 162.396H324.913Z" fill="white"/>
<path d="M321.389 185.041C316.729 182.259 313.289 177.822 311.755 172.617C311.604 172.101 310.811 172.363 310.962 172.878C312.569 178.293 316.158 182.902 321.013 185.786C321.476 186.061 321.849 185.314 321.389 185.041Z" fill="white"/>
<path d="M316.753 139.489C315.805 139.939 314.76 140.147 313.712 140.094C312.664 140.041 311.646 139.728 310.749 139.184C310.29 138.904 309.917 139.651 310.373 139.93C311.367 140.526 312.492 140.87 313.65 140.931C314.808 140.993 315.963 140.77 317.014 140.282C317.117 140.244 317.202 140.168 317.251 140.07C317.301 139.972 317.311 139.859 317.28 139.754C317.245 139.649 317.17 139.563 317.071 139.513C316.972 139.463 316.858 139.455 316.753 139.489Z" fill="white"/>
<path d="M252.124 158.685C252.405 158.868 252.687 159.051 252.969 159.241C256.745 161.724 260.313 164.51 263.637 167.57C263.898 167.803 264.159 168.042 264.412 168.282C272.343 175.741 278.821 184.607 283.515 194.431C285.379 198.342 286.943 202.389 288.194 206.537C289.92 212.265 291.337 218.614 294.754 223.3C295.105 223.793 295.486 224.263 295.896 224.709H326.78C326.85 224.674 326.921 224.646 326.991 224.611L328.224 224.667C328.175 224.449 328.119 224.223 328.069 224.005C328.041 223.878 328.006 223.751 327.978 223.624C327.957 223.54 327.935 223.455 327.921 223.377C327.914 223.349 327.907 223.321 327.9 223.3C327.886 223.222 327.865 223.152 327.851 223.082C327.541 221.82 327.221 220.559 326.892 219.298C326.892 219.291 326.892 219.291 326.886 219.284C324.356 209.679 321.002 200.202 316.316 191.535C316.175 191.274 316.034 191.006 315.879 190.746C313.745 186.851 311.297 183.137 308.558 179.641C307.052 177.731 305.45 175.899 303.759 174.152C299.381 169.645 294.321 165.854 288.765 162.92C277.688 157.071 264.863 154.83 253.025 158.403C252.723 158.495 252.426 158.586 252.124 158.685Z" fill="#F0F0F0"/>
<path d="M252.193 159.076C267.572 162.131 281.598 169.954 292.278 181.433C294.551 183.907 296.642 186.613 298.042 189.685C299.384 192.689 299.898 195.998 299.529 199.267C299.246 202.323 298.603 205.415 299.067 208.486C299.557 211.723 301.479 214.372 304.172 216.172C307.467 218.374 311.357 219.262 315.191 219.997C319.448 220.814 323.883 221.594 327.436 224.253C327.867 224.576 328.341 223.889 327.912 223.567C321.73 218.941 313.446 219.912 306.684 216.646C303.528 215.122 300.813 212.637 300.032 209.106C299.348 206.019 300.009 202.829 300.322 199.738C300.65 196.492 300.426 193.372 299.217 190.314C297.981 187.186 295.992 184.392 293.792 181.871C288.76 176.193 282.868 171.341 276.329 167.493C268.891 163.06 260.75 159.932 252.257 158.244C251.731 158.14 251.671 158.973 252.193 159.076V159.076Z" fill="white"/>
<path d="M289.057 177.535C290.739 175.481 291.638 172.896 291.591 170.242C291.544 167.588 290.555 165.036 288.8 163.044C288.444 162.642 287.803 163.177 288.159 163.579C289.796 165.432 290.717 167.808 290.756 170.28C290.795 172.752 289.949 175.156 288.37 177.059C288.028 177.473 288.716 177.946 289.057 177.535L289.057 177.535Z" fill="white"/>
<path d="M299.877 197.737C294.481 198.321 289.064 196.85 284.705 193.617C284.273 193.296 283.798 193.983 284.229 194.303C288.772 197.659 294.413 199.178 300.026 198.558C300.561 198.499 300.409 197.678 299.877 197.737Z" fill="white"/>
<path d="M268.749 164.157C268.263 165.088 267.554 165.883 266.686 166.471C265.817 167.06 264.816 167.423 263.772 167.529C263.236 167.581 263.389 168.403 263.921 168.35C265.074 168.228 266.179 167.825 267.14 167.177C268.101 166.529 268.889 165.656 269.435 164.633C269.495 164.541 269.517 164.429 269.497 164.322C269.478 164.214 269.418 164.117 269.33 164.052C269.238 163.989 269.126 163.966 269.018 163.985C268.909 164.005 268.812 164.067 268.749 164.157V164.157Z" fill="white"/>
<path d="M374.691 225.167H0.458435C0.336851 225.167 0.220245 225.119 0.134272 225.033C0.0482989 224.947 0 224.831 0 224.709C0 224.587 0.0482989 224.471 0.134272 224.385C0.220245 224.299 0.336851 224.25 0.458435 224.25H374.542C374.663 224.25 374.78 224.299 374.866 224.385C374.952 224.471 375 224.587 375 224.709C375 224.962 374.945 225.167 374.691 225.167Z" fill="#CACACA"/>
<path d="M152.777 247.631C147.642 247.631 142.941 247.139 139.205 245.976C134.765 244.593 131.978 242.357 130.918 239.326C130.421 238.038 130.272 236.642 130.488 235.279C130.703 233.916 131.275 232.634 132.146 231.563C138.714 223.005 161.507 220.591 164.565 220.305L170.77 208.557C171.167 205.754 169.288 203.632 172.533 203.579L210.92 203.057C214.107 202.99 213.203 204.964 213.749 207.697L219.597 218.137L194.426 228.761L198.232 238.034L197.983 238.178C190.617 242.452 169.431 247.63 152.777 247.631Z" fill="#2F2E41"/>
<path d="M216.112 218.583C216.112 218.583 251.265 214.56 248.973 230.652C246.68 246.743 219.933 258.141 179.431 230.652L184.016 222.606C184.016 222.606 199.109 221.855 208.28 217.833L216.112 218.583Z" fill="#2F2E41"/>
<path d="M166.345 145.683C166.345 145.683 159.664 144.468 157.841 154.794C156.019 165.119 153.1 189.578 153.1 189.578L144.038 220.996C142.969 221.564 142.083 222.423 141.485 223.475C140.886 224.527 140.6 225.728 140.658 226.936C140.716 228.145 141.117 229.312 141.814 230.302C142.511 231.291 143.475 232.062 144.593 232.524C145.712 232.986 146.939 233.12 148.131 232.911C149.323 232.701 150.431 232.157 151.325 231.342C152.219 230.527 152.863 229.474 153.181 228.306C153.499 227.138 153.479 225.904 153.122 224.748L165.248 191.402L167.56 162.692V147.648C167.56 147.24 167.446 146.84 167.231 146.493C167.017 146.146 166.71 145.865 166.345 145.683Z" fill="#FEB8B8"/>
<path d="M213.373 145.683C213.373 145.683 220.054 144.468 221.876 154.794C223.699 165.119 226.617 189.578 226.617 189.578L235.68 220.996C236.749 221.564 237.635 222.423 238.233 223.475C238.832 224.527 239.118 225.728 239.06 226.936C239.002 228.145 238.601 229.312 237.904 230.302C237.207 231.291 236.243 232.062 235.124 232.524C234.006 232.986 232.779 233.12 231.587 232.911C230.395 232.701 229.287 232.157 228.393 231.342C227.499 230.527 226.855 229.474 226.537 228.306C226.219 227.138 226.239 225.904 226.596 224.748L214.47 191.402L212.158 162.692V147.648C212.158 147.24 212.272 146.84 212.486 146.493C212.701 146.146 213.008 145.865 213.373 145.683Z" fill="#FEB8B8"/>
<path d="M212.864 137.148L200.226 132.421L175.731 132.105L165.187 137.148L168.148 154.168C168.148 154.168 162.169 164.292 168.752 174.418L170.229 210.497C170.229 210.497 193.846 224.192 213.781 207.747L209.275 174.201C209.275 174.201 216.811 158.637 210.97 152.855L212.864 137.148Z" fill="#0062B0"/>
<path d="M207.717 142.437L212.864 137.148C212.864 137.148 224.098 143.057 223.867 162.82L209.696 158.453L207.717 142.437Z" fill="#0062B0"/>
<path d="M170.905 142.437L165.436 136.968C165.436 136.968 155.786 144.432 156.018 164.196L168.926 158.453L170.905 142.437Z" fill="#0062B0"/>
<path d="M206.554 233.989C206.554 233.989 202.618 225.706 196.044 229.677C189.47 233.647 177.374 240.242 177.374 240.242C177.374 240.242 174.545 244.971 180.723 243.727C186.9 242.484 206.746 241.513 206.746 241.513L206.554 233.989Z" fill="#FEB8B8"/>
<path d="M195.619 85.9332C195.674 85.8798 195.732 85.8319 195.787 85.7771C199.305 82.2593 200.018 77.2689 197.379 74.6306C194.886 72.1373 190.294 72.6405 186.828 75.6719C183.855 72.8423 179.87 72.0535 177.291 74.0068C174.316 76.2593 174.339 81.3003 177.343 85.2663C177.548 85.5379 177.764 85.7947 177.986 86.0417C173.989 87.5047 170.538 90.1601 168.1 93.6486C165.662 97.1372 164.355 101.291 164.355 105.547V125.314C164.355 125.894 164.469 126.468 164.691 127.003C164.913 127.539 165.238 128.026 165.648 128.435C166.058 128.845 166.544 129.17 167.08 129.392C167.615 129.614 168.189 129.728 168.769 129.728H205.304C206.436 129.728 207.521 129.279 208.321 128.479C209.121 127.679 209.57 126.594 209.57 125.462V105.547C209.57 101.233 208.226 97.0272 205.726 93.5125C203.226 89.9977 199.693 87.3487 195.619 85.9332Z" fill="#2F2E41"/>
<path d="M199.798 122.678C206.569 115.908 206.569 104.93 199.798 98.1598C193.028 91.3893 182.051 91.3893 175.28 98.1598C168.51 104.93 168.51 115.908 175.28 122.678C182.051 129.449 193.028 129.449 199.798 122.678Z" fill="#FFB6B6"/>
<path d="M169.322 99.5139C173.284 102.244 177.986 103.698 182.797 103.678C181.081 104.869 179.127 105.672 177.07 106.035C183.468 107.407 190.079 107.444 196.492 106.144C197.917 105.915 199.292 105.443 200.557 104.747C201.188 104.395 201.737 103.915 202.169 103.336C202.602 102.758 202.907 102.095 203.067 101.391C203.493 98.957 201.596 96.7454 199.625 95.2549C196.607 93.0078 193.127 91.4595 189.437 90.7222C185.748 89.9849 181.94 90.0769 178.29 90.9917C175.907 91.6077 173.52 92.6485 171.972 94.5625C170.424 96.4764 169.965 99.427 171.44 101.398L169.322 99.5139Z" fill="#2F2E41"/>
<path d="M76.5906 64.9173L77.137 64.1807L91.6919 74.9768C90.9009 72.5661 88.1012 64.9239 83.5116 61.8746C78.0287 58.2319 74.1711 59.365 72.0694 62.5283C69.9677 65.6916 70.4177 69.6869 75.9008 73.3298C80.5485 76.4179 88.8281 75.9885 91.2437 75.786L76.5906 64.9173Z" fill="#F2F2F2"/>
<path d="M295.584 5.80933L296.26 6.42935L284.008 19.7824C286.488 19.2464 294.38 17.2568 297.89 13.0093C302.083 7.93491 301.358 3.98037 298.43 1.56109C295.503 -0.858193 291.482 -0.826153 287.289 4.24821C283.734 8.54953 283.3 16.8289 283.25 19.2524L295.584 5.80933Z" fill="#F2F2F2"/>
<path d="M97.9989 148.383L98.6747 149.003L86.4232 162.356C88.9031 161.82 96.7951 159.83 100.305 155.582C104.499 150.508 103.773 146.554 100.845 144.134C97.9176 141.715 93.8972 141.747 89.7037 146.821C86.1491 151.123 85.7149 159.402 85.665 161.826L97.9989 148.383Z" fill="#F2F2F2"/>
<path d="M201.594 21.1112L202.388 21.5706L193.312 37.2559C195.617 36.1966 202.893 32.5483 205.402 27.6426C208.399 21.7819 206.836 18.0777 203.455 16.3483C200.074 14.6189 196.155 15.5191 193.157 21.3798C190.616 26.3477 191.982 34.5252 192.457 36.9023L201.594 21.1112Z" fill="#F2F2F2"/>
<path d="M286.404 119.216L287.198 119.676L278.122 135.361C280.428 134.302 287.703 130.653 290.212 125.748C293.21 119.887 291.647 116.183 288.265 114.453C284.884 112.724 280.966 113.624 277.968 119.485C275.427 124.453 276.792 132.63 277.267 135.007L286.404 119.216Z" fill="#F2F2F2"/>
<path d="M200 149L189.384 163.155C189.212 163.384 188.993 163.573 188.741 163.71C188.49 163.847 188.212 163.928 187.926 163.949C187.64 163.969 187.354 163.928 187.085 163.827C186.817 163.727 186.573 163.571 186.371 163.368L180 157" stroke="white" stroke-width="5" stroke-linecap="round" stroke-linejoin="round"/>
</g>
<defs>
<clipPath id="clip0_1134_9730">
<rect width="375" height="283.389" fill="white"/>
</clipPath>
</defs>
</svg>
