<svg width="46" height="46" viewBox="0 0 46 46" fill="none" xmlns="http://www.w3.org/2000/svg">
<g clip-path="url(#clip0_1151_9875)">
<path d="M26.6826 41.4693C26.1207 42.0312 25.374 42.3442 24.5811 42.349L21.2709 42.348C19.6172 42.348 18.2718 41.0026 18.2709 39.348L18.2709 28.6792H17.4487C17.1819 28.6801 16.9302 28.5755 16.7416 28.3869C16.5531 28.1983 16.4484 27.9466 16.4494 27.6798C16.4484 27.413 16.5531 27.1612 16.7416 26.9727C16.9302 26.7841 17.1819 26.6795 17.4487 26.6804H18.2709L18.2699 22.0578C17.181 21.5911 16.4494 20.5069 16.4494 19.302L16.4484 15.0132C16.4484 14.4795 16.6568 13.977 17.0349 13.5989C17.4129 13.2209 17.9154 13.0125 18.4472 13.0125L27.3822 13.0135C27.9158 13.0134 28.4183 13.2218 28.7955 13.5989C29.1707 13.9742 29.3791 14.471 29.3809 15.0009C29.3809 15.0047 29.3847 19.3058 29.3847 19.3058C29.3847 20.1071 29.0717 20.8595 28.5041 21.4271C28.2335 21.6977 27.9111 21.9145 27.5575 22.0644L27.5623 39.3489C27.5623 40.1484 27.2502 40.9017 26.6826 41.4693ZM24.5745 40.3493C24.8291 40.3493 25.0798 40.2455 25.2693 40.056C25.4589 39.8665 25.5626 39.6158 25.5635 39.3489L25.5626 22.3058L20.2725 22.3029L20.2734 39.3499C20.2734 39.9005 20.7222 40.3493 21.2737 40.3502L24.5462 40.3511C24.5556 40.3493 24.567 40.3493 24.5745 40.3493ZM18.45 19.302C18.45 19.8526 18.8988 20.3014 19.4494 20.3014L26.3875 20.3061C26.6534 20.3061 26.9032 20.2014 27.0927 20.0119C27.2822 19.8224 27.386 19.5716 27.3869 19.3048L27.3831 15.0131L18.4481 15.0122L18.45 19.302Z" fill="#FAFAFA"/>
<path d="M23.6233 9.94854C23.4347 10.1371 23.183 10.2418 22.9161 10.2408C22.6493 10.2418 22.3976 10.1371 22.209 9.94854C22.0205 9.75998 21.9158 9.50825 21.9168 9.24144L21.9168 4.9988C21.9168 4.73104 22.0205 4.48025 22.209 4.29169C22.3976 4.10313 22.6493 3.99848 22.9161 3.99942C23.183 3.99848 23.4347 4.10313 23.6233 4.29169C23.8118 4.48025 23.9165 4.73198 23.9155 4.9988L23.9155 9.24144C23.9155 9.5092 23.8118 9.75998 23.6233 9.94854Z" fill="#FAFAFA"/>
<path d="M27.1587 10.6557C26.8542 10.9602 26.3894 11.0366 26.0038 10.8433C25.7652 10.7236 25.587 10.519 25.5031 10.2654C25.4192 10.0118 25.4381 9.74025 25.5578 9.50172L26.972 6.67329C27.0192 6.57712 27.0823 6.48944 27.1596 6.41213C27.4642 6.1076 27.929 6.03124 28.3146 6.2264C28.5522 6.34519 28.7313 6.55072 28.8152 6.80434C28.8991 7.05796 28.8803 7.32948 28.7605 7.56801L27.3463 10.3964C27.2982 10.4917 27.2351 10.5793 27.1587 10.6557Z" fill="#FAFAFA"/>
<path d="M20.0877 10.6561C20.0113 10.7325 19.9236 10.7957 19.8265 10.8438C19.5889 10.9626 19.3164 10.9824 19.0638 10.8975C18.8111 10.8127 18.6056 10.6354 18.4858 10.3969L17.0716 7.56845C16.8783 7.18284 16.9528 6.71992 17.2583 6.41445C17.3346 6.33808 17.4223 6.27491 17.5204 6.22589C17.758 6.10709 18.0295 6.08824 18.2831 6.17215C18.5358 6.257 18.7413 6.43425 18.8611 6.67278L20.2753 9.5012C20.4676 9.88776 20.3922 10.3516 20.0877 10.6561Z" fill="#FAFAFA"/>
</g>
<defs>
<clipPath id="clip0_1151_9875">
<rect width="32" height="32" fill="white" transform="translate(0.372559 23) rotate(-45)"/>
</clipPath>
</defs>
</svg>
