<svg width="51" height="51" viewBox="0 0 51 51" fill="none" xmlns="http://www.w3.org/2000/svg">
<rect width="51" height="51" rx="6" fill="#008939"/>
<g clip-path="url(#clip0_1134_9693)">
<path d="M17.25 37.2492C15.182 37.2492 13.5 35.5672 13.5 33.4992V22.9992C13.5 20.9872 15.055 19.3592 17.056 19.2582L27.573 14.0002C27.89 13.8422 28.228 13.7612 28.578 13.7612C28.819 13.7612 29.06 13.8002 29.291 13.8772C29.861 14.0672 30.323 14.4682 30.592 15.0062L32.731 19.2842C34.581 19.5232 36 21.1142 36 22.9992V23.8782C36.885 24.1922 37.5 25.0402 37.5 25.9992V30.4992C37.5 31.4592 36.885 32.3072 36 32.6202V33.4992C36 35.5672 34.318 37.2492 32.25 37.2492H17.25ZM17.25 20.7492C16.009 20.7492 15 21.7582 15 22.9992V33.4992C15 34.7402 16.009 35.7492 17.25 35.7492H32.25C33.491 35.7492 34.5 34.7402 34.5 33.4992V32.7492H31.5C29.019 32.7492 27 30.7302 27 28.2492C27 25.7682 29.019 23.7492 31.5 23.7492H34.5V22.9992C34.5 21.7592 33.491 20.7492 32.251 20.7492C32.25 20.7492 17.25 20.7492 17.25 20.7492ZM31.5 25.2492C29.846 25.2492 28.5 26.5952 28.5 28.2492C28.5 29.9032 29.846 31.2492 31.5 31.2492H35.25C35.664 31.2492 36 30.9132 36 30.4992V25.9992C36 25.5862 35.664 25.2492 35.25 25.2492H31.5ZM31.036 19.2492L29.25 15.6772C29.16 15.4982 29.007 15.3642 28.817 15.3012C28.739 15.2752 28.659 15.2622 28.578 15.2622C28.462 15.2622 28.349 15.2892 28.244 15.3422L20.427 19.2492H31.036Z" fill="white"/>
<path d="M31.5 29.374C32.1213 29.374 32.625 28.8703 32.625 28.249C32.625 27.6277 32.1213 27.124 31.5 27.124C30.8787 27.124 30.375 27.6277 30.375 28.249C30.375 28.8703 30.8787 29.374 31.5 29.374Z" fill="white"/>
</g>
<defs>
<clipPath id="clip0_1134_9693">
<rect width="24" height="24" fill="white" transform="translate(13.5 13.5)"/>
</clipPath>
</defs>
</svg>
