<svg width="293" height="258" viewBox="0 0 293 258" fill="none" xmlns="http://www.w3.org/2000/svg">
<g clip-path="url(#clip0_3153_14404)">
<path d="M254.228 154.558H8.49894C6.51687 154.556 4.61663 153.767 3.21509 152.365C1.81355 150.962 1.02519 149.061 1.02295 147.077V8.43359H261.704V147.077C261.702 149.061 260.913 150.962 259.512 152.365C258.11 153.767 256.21 154.556 254.228 154.558Z" fill="#E6E6E6"/>
<path d="M244.449 140.239H18.278C17.257 140.238 16.278 139.832 15.556 139.109C14.834 138.387 14.4279 137.407 14.4268 136.385V26.6067C14.4279 25.5849 14.834 24.6054 15.556 23.8829C16.278 23.1605 17.257 22.7541 18.278 22.7529H244.449C245.47 22.7541 246.449 23.1605 247.171 23.8829C247.893 24.6054 248.299 25.5849 248.301 26.6067V136.385C248.299 137.407 247.893 138.387 247.171 139.109C246.449 139.832 245.47 140.238 244.449 140.239Z" fill="white"/>
<path d="M262.227 13.487H0.5V7.48078C0.502239 5.49744 1.2906 3.59598 2.69214 2.19354C4.09368 0.791111 5.99392 0.00224038 7.97599 0H254.751C256.733 0.00224038 258.634 0.791111 260.035 2.19354C261.437 3.59598 262.225 5.49744 262.227 7.48078V13.487Z" fill="#0062B0"/>
<path d="M71.7762 98.2065H31.5212C30.5001 98.2054 29.5212 97.799 28.7992 97.0765C28.0772 96.354 27.6711 95.3745 27.6699 94.3528V67.8723C27.6711 66.8506 28.0772 65.871 28.7992 65.1486C29.5212 64.4261 30.5001 64.0197 31.5212 64.0186H71.7762C72.7973 64.0197 73.7762 64.4261 74.4982 65.1485C75.2202 65.871 75.6264 66.8506 75.6275 67.8723V94.3528C75.6264 95.3745 75.2202 96.3541 74.4982 97.0765C73.7762 97.799 72.7973 98.2054 71.7762 98.2065Z" fill="#E6E6E6"/>
<path d="M232.915 68.3055H105.726C105.158 68.3055 104.613 68.0797 104.211 67.6777C103.81 67.2757 103.584 66.7305 103.584 66.162C103.584 65.5936 103.81 65.0483 104.211 64.6464C104.613 64.2444 105.158 64.0186 105.726 64.0186H232.915C233.483 64.0186 234.028 64.2444 234.43 64.6464C234.832 65.0483 235.057 65.5936 235.057 66.162C235.057 66.7305 234.832 67.2757 234.43 67.6777C234.028 68.0797 233.483 68.3055 232.915 68.3055Z" fill="#E6E6E6"/>
<path d="M232.915 83.6393H105.726C105.158 83.6393 104.613 83.4135 104.211 83.0115C103.81 82.6095 103.584 82.0644 103.584 81.4959C103.584 80.9275 103.81 80.3823 104.211 79.9803C104.613 79.5784 105.158 79.3525 105.726 79.3525H232.915C233.483 79.3525 234.028 79.5784 234.43 79.9803C234.832 80.3823 235.057 80.9275 235.057 81.4959C235.057 82.0644 234.832 82.6095 234.43 83.0115C234.028 83.4135 233.483 83.6393 232.915 83.6393Z" fill="#E6E6E6"/>
<path d="M232.915 98.9725H105.726C105.158 98.9725 104.613 98.7467 104.211 98.3447C103.81 97.9427 103.584 97.3975 103.584 96.829C103.584 96.2605 103.81 95.7153 104.211 95.3134C104.613 94.9114 105.158 94.6855 105.726 94.6855H232.915C233.483 94.6855 234.028 94.9114 234.43 95.3134C234.832 95.7153 235.057 96.2605 235.057 96.829C235.057 97.3975 234.832 97.9427 234.43 98.3447C234.028 98.7467 233.483 98.9725 232.915 98.9725Z" fill="#E6E6E6"/>
<path d="M190.593 252.221H185.038L182.396 230.781H190.594L190.593 252.221Z" fill="#A0616A"/>
<path d="M181.071 250.633H191.784V257.382H174.326C174.326 256.496 174.5 255.618 174.839 254.799C175.178 253.98 175.675 253.236 176.301 252.61C176.928 251.983 177.671 251.486 178.49 251.147C179.308 250.807 180.185 250.633 181.071 250.633Z" fill="#2F2E41"/>
<path d="M213.701 252.221H208.146L205.503 230.781H213.702L213.701 252.221Z" fill="#A0616A"/>
<path d="M204.178 250.633H214.891V257.382H197.433C197.433 256.496 197.608 255.618 197.947 254.799C198.286 253.98 198.782 253.236 199.409 252.61C200.035 251.983 200.779 251.486 201.597 251.147C202.415 250.807 203.292 250.633 204.178 250.633Z" fill="#2F2E41"/>
<path d="M212.993 247.294H207.339C206.828 247.291 206.337 247.098 205.961 246.751C205.585 246.405 205.352 245.931 205.307 245.422L200.515 187.662C200.501 187.494 200.425 187.338 200.303 187.222C200.18 187.107 200.018 187.042 199.85 187.039C199.682 187.036 199.518 187.095 199.391 187.206C199.264 187.317 199.183 187.471 199.163 187.638L192.281 245.495C192.222 245.99 191.983 246.447 191.61 246.779C191.237 247.11 190.755 247.293 190.256 247.294H183.313C182.775 247.293 182.258 247.079 181.877 246.699C181.495 246.319 181.279 245.803 181.275 245.265C181.26 241.63 181.235 237.97 181.211 234.309C180.99 201.701 180.762 167.983 187.567 154.773L187.629 154.653L212.183 154.232L212.244 154.367C219.673 170.612 217.419 206.903 215.238 241.998L215.028 245.38C214.995 245.898 214.767 246.384 214.389 246.739C214.011 247.095 213.512 247.293 212.993 247.294Z" fill="#2F2E41"/>
<path d="M201.361 110.818C207.507 110.818 212.49 105.832 212.49 99.6824C212.49 93.5324 207.507 88.5469 201.361 88.5469C195.215 88.5469 190.233 93.5324 190.233 99.6824C190.233 105.832 195.215 110.818 201.361 110.818Z" fill="#A0616A"/>
<path d="M186.189 156.699L186.496 143.932L184.288 133.97C183.731 131.503 183.763 128.94 184.383 126.488C185.004 124.036 186.194 121.766 187.857 119.862C189.475 117.967 191.517 116.482 193.818 115.527C196.119 114.573 198.613 114.176 201.096 114.369C201.256 114.381 201.417 114.395 201.578 114.409C203.7 114.6 205.761 115.217 207.64 116.222C209.518 117.228 211.175 118.601 212.512 120.261C213.876 121.93 214.891 123.857 215.495 125.927C216.1 127.997 216.281 130.168 216.03 132.309L213.359 155.666L186.189 156.699Z" fill="#0062B0"/>
<path d="M176.736 179.581C177.261 179.171 177.69 178.651 177.992 178.057C178.295 177.463 178.463 176.81 178.486 176.144C178.509 175.478 178.385 174.815 178.124 174.201C177.863 173.588 177.471 173.04 176.975 172.595L183.241 157.655L174.972 159.209L170.29 173.158C169.597 174.041 169.253 175.147 169.322 176.267C169.39 177.387 169.867 178.443 170.662 179.235C171.456 180.027 172.514 180.499 173.633 180.563C174.753 180.627 175.857 180.278 176.736 179.581Z" fill="#A0616A"/>
<path d="M224.013 181.372C223.512 180.933 223.114 180.389 222.846 179.779C222.578 179.168 222.447 178.507 222.462 177.841C222.477 177.174 222.638 176.519 222.934 175.922C223.229 175.325 223.652 174.799 224.172 174.383L218.766 159.111L226.934 161.134L230.815 175.326C231.456 176.247 231.737 177.371 231.604 178.485C231.472 179.6 230.936 180.627 230.098 181.372C229.259 182.117 228.177 182.529 227.056 182.529C225.934 182.529 224.852 182.117 224.013 181.372Z" fill="#A0616A"/>
<path d="M177.731 172.261C177.444 172.261 177.16 172.2 176.898 172.083L172.131 169.946C171.672 169.741 171.305 169.374 171.101 168.915C170.897 168.456 170.869 167.937 171.023 167.459L179.019 142.605L182.11 123.881C182.219 123.215 182.462 122.579 182.822 122.009C183.183 121.44 183.655 120.948 184.209 120.565C184.763 120.181 185.389 119.913 186.049 119.776C186.709 119.64 187.389 119.637 188.05 119.769C188.711 119.901 189.339 120.164 189.896 120.544C190.453 120.923 190.928 121.411 191.292 121.978C191.657 122.545 191.904 123.18 192.019 123.844C192.134 124.509 192.114 125.189 191.96 125.846L187.264 145.927L179.681 170.816C179.554 171.234 179.296 171.6 178.945 171.861C178.593 172.121 178.168 172.261 177.731 172.261Z" fill="#0062B0"/>
<path d="M223.204 172.26C222.767 172.26 222.342 172.12 221.991 171.86C221.639 171.6 221.381 171.233 221.254 170.815L213.675 145.94L208.975 125.845C208.821 125.189 208.801 124.508 208.916 123.843C209.031 123.179 209.278 122.544 209.643 121.977C210.008 121.41 210.483 120.922 211.04 120.543C211.597 120.163 212.224 119.9 212.885 119.768C213.546 119.636 214.227 119.639 214.887 119.775C215.547 119.912 216.172 120.18 216.727 120.564C217.281 120.947 217.752 121.439 218.113 122.008C218.473 122.578 218.716 123.214 218.826 123.88L221.924 142.637L229.912 167.458C230.066 167.937 230.039 168.455 229.834 168.914C229.63 169.373 229.263 169.74 228.804 169.945L224.038 172.082C223.775 172.199 223.492 172.26 223.204 172.26Z" fill="#0062B0"/>
<path d="M201.59 87.3729C198.497 86.0323 194.457 87.7004 193.209 90.8333C192.432 92.783 192.669 94.9821 193.097 97.0369C193.526 99.0917 194.136 101.142 194.071 103.24C194.005 105.338 193.102 107.565 191.242 108.535C190.131 109.115 188.831 109.18 187.626 109.526C186.421 109.872 185.178 110.68 185.004 111.922C184.742 113.801 187.019 115.233 187.004 117.13C186.988 119.14 184.478 120.334 184.152 122.318C184.096 122.899 184.188 123.484 184.421 124.019C184.653 124.555 185.017 125.022 185.479 125.378C186.412 126.079 187.471 126.592 188.598 126.889C197.274 129.664 206.512 130.19 215.446 128.42C217.222 128.065 219.049 127.586 220.428 126.413C221.808 125.24 222.597 123.187 221.804 121.558C220.615 119.117 216.841 118.978 215.526 116.602C214.737 115.177 215.1 113.428 215.266 111.808C215.695 107.623 216.685 102.734 215.646 98.6573C214.707 94.9743 212.669 90.2152 209.756 87.7761C207.665 86.026 203.675 86.8234 201.003 87.3633L201.59 87.3729Z" fill="#2F2E41"/>
<path d="M292.047 258H133.465C133.345 258 133.23 257.952 133.145 257.867C133.06 257.782 133.012 257.666 133.012 257.546C133.012 257.426 133.06 257.311 133.145 257.226C133.23 257.141 133.345 257.093 133.465 257.093H292.047C292.167 257.093 292.282 257.141 292.367 257.226C292.452 257.311 292.5 257.426 292.5 257.546C292.5 257.666 292.452 257.782 292.367 257.867C292.282 257.952 292.167 258 292.047 258Z" fill="#CCCCCC"/>
<path d="M275.349 247.676C268.815 256.431 255.253 257.353 255.253 257.353C255.253 257.353 252.284 244.079 258.817 235.324C265.351 226.569 278.913 225.647 278.913 225.647C278.913 225.647 281.882 238.921 275.349 247.676Z" fill="#E6E6E6"/>
<path d="M242.066 250.967C246.377 256.744 255.326 257.352 255.326 257.352C255.326 257.352 257.286 248.593 252.975 242.816C248.663 237.039 239.714 236.431 239.714 236.431C239.714 236.431 237.755 245.19 242.066 250.967Z" fill="#E6E6E6"/>
</g>
<defs>
<clipPath id="clip0_3153_14404">
<rect width="292" height="258" fill="white" transform="translate(0.5)"/>
</clipPath>
</defs>
</svg>
