<?xml version="1.0" encoding="UTF-8" standalone="no"?>
<!DOCTYPE svg PUBLIC "-//W3C//DTD SVG 1.1//EN" "http://www.w3.org/Graphics/SVG/1.1/DTD/svg11.dtd">
<!-- Created with Vectornator (http://vectornator.io/) -->
<svg height="100%" stroke-miterlimit="10" style="fill-rule:nonzero;clip-rule:evenodd;stroke-linecap:round;stroke-linejoin:round;" version="1.1" viewBox="0 0 192.626 146.552" width="100%" xml:space="preserve" xmlns="http://www.w3.org/2000/svg" xmlns:vectornator="http://vectornator.io" xmlns:xlink="http://www.w3.org/1999/xlink">
<defs/>
<clipPath id="ArtboardFrame">
<rect height="146.552" width="192.626" x="0" y="0"/>
</clipPath>
<g clip-path="url(#ArtboardFrame)" id="Untitled" vectornator:layerName="Untitled">
<path d="M34.3834 205.216C33.6154 205.216 32.9134 205.078 32.2774 204.802C31.6414 204.514 31.0954 204.106 30.6394 203.578C30.1834 203.038 29.8294 202.39 29.5774 201.634C29.3254 200.878 29.1994 200.02 29.1994 199.06C29.1994 198.112 29.3254 197.266 29.5774 196.522C29.8294 195.766 30.1834 195.13 30.6394 194.614C31.0954 194.098 31.6414 193.702 32.2774 193.426C32.9134 193.15 33.6154 193.012 34.3834 193.012C35.1514 193.012 35.8534 193.15 36.4894 193.426C37.1254 193.702 37.6714 194.098 38.1274 194.614C38.5954 195.13 38.9554 195.766 39.2074 196.522C39.4594 197.266 39.5854 198.112 39.5854 199.06C39.5854 200.02 39.4594 200.878 39.2074 201.634C38.9554 202.39 38.5954 203.038 38.1274 203.578C37.6714 204.106 37.1254 204.514 36.4894 204.802C35.8534 205.078 35.1514 205.216 34.3834 205.216ZM34.3834 203.398C34.8514 203.398 35.2714 203.296 35.6434 203.092C36.0154 202.888 36.3334 202.6 36.5974 202.228C36.8614 201.844 37.0654 201.388 37.2094 200.86C37.3534 200.32 37.4254 199.72 37.4254 199.06C37.4254 197.74 37.1494 196.708 36.5974 195.964C36.0574 195.208 35.3194 194.83 34.3834 194.83C33.4474 194.83 32.7034 195.208 32.1514 195.964C31.6114 196.708 31.3414 197.74 31.3414 199.06C31.3414 199.72 31.4134 200.32 31.5574 200.86C31.7014 201.388 31.9054 201.844 32.1694 202.228C32.4334 202.6 32.7514 202.888 33.1234 203.092C33.4954 203.296 33.9154 203.398 34.3834 203.398ZM41.7603 205L41.7603 196.162L43.4703 196.162L43.6143 197.35L43.6863 197.35C44.0823 196.966 44.5083 196.636 44.9643 196.36C45.4323 196.084 45.9723 195.946 46.5843 195.946C47.5323 195.946 48.2223 196.252 48.6543 196.864C49.0863 197.464 49.3023 198.328 49.3023 199.456L49.3023 205L47.2323 205L47.2323 199.726C47.2323 198.994 47.1243 198.478 46.9083 198.178C46.6923 197.878 46.3383 197.728 45.8463 197.728C45.4623 197.728 45.1203 197.824 44.8203 198.016C44.5323 198.196 44.2023 198.466 43.8303 198.826L43.8303 205L41.7603 205ZM53.2906 205L50.9506 196.162L53.0386 196.162L54.1006 200.752C54.1966 201.172 54.2746 201.592 54.3346 202.012C54.4066 202.432 54.4846 202.858 54.5686 203.29L54.6406 203.29C54.7246 202.858 54.8086 202.432 54.8926 202.012C54.9886 201.592 55.0906 201.172 55.1986 200.752L56.3506 196.162L58.2406 196.162L59.4106 200.752C59.5186 201.172 59.6206 201.592 59.7166 202.012C59.8126 202.432 59.9086 202.858 60.0046 203.29L60.0766 203.29C60.1606 202.858 60.2386 202.432 60.3106 202.012C60.3826 201.592 60.4606 201.172 60.5446 200.752L61.6066 196.162L63.5506 196.162L61.3006 205L58.8346 205L57.8086 200.878C57.7126 200.458 57.6226 200.044 57.5386 199.636C57.4546 199.216 57.3646 198.772 57.2686 198.304L57.1966 198.304C57.1126 198.772 57.0286 199.216 56.9446 199.636C56.8606 200.056 56.7706 200.476 56.6746 200.896L55.6666 205L53.2906 205ZM67.2636 205.216C66.4836 205.216 65.8536 204.982 65.3736 204.514C64.8936 204.034 64.6536 203.404 64.6536 202.624C64.6536 202.156 64.7496 201.742 64.9416 201.382C65.1456 201.01 65.4576 200.692 65.8776 200.428C66.3096 200.164 66.8496 199.942 67.4976 199.762C68.1576 199.582 68.9436 199.444 69.8556 199.348C69.8436 199.12 69.8076 198.904 69.7476 198.7C69.6996 198.484 69.6096 198.298 69.4776 198.142C69.3576 197.974 69.1956 197.848 68.9916 197.764C68.7876 197.668 68.5356 197.62 68.2356 197.62C67.8036 197.62 67.3776 197.704 66.9576 197.872C66.5496 198.04 66.1476 198.244 65.7516 198.484L64.9956 197.098C65.4876 196.786 66.0396 196.516 66.6516 196.288C67.2636 196.06 67.9236 195.946 68.6316 195.946C69.7356 195.946 70.5576 196.276 71.0976 196.936C71.6496 197.584 71.9256 198.526 71.9256 199.762L71.9256 205L70.2156 205L70.0716 204.028L69.9996 204.028C69.6036 204.364 69.1776 204.646 68.7216 204.874C68.2776 205.102 67.7916 205.216 67.2636 205.216ZM67.9296 203.596C68.2896 203.596 68.6136 203.512 68.9016 203.344C69.2016 203.176 69.5196 202.936 69.8556 202.624L69.8556 200.644C69.2556 200.716 68.7516 200.812 68.3436 200.932C67.9356 201.052 67.6056 201.19 67.3536 201.346C67.1016 201.49 66.9216 201.658 66.8136 201.85C66.7056 202.042 66.6516 202.246 66.6516 202.462C66.6516 202.858 66.7716 203.146 67.0116 203.326C67.2516 203.506 67.5576 203.596 67.9296 203.596ZM74.4029 205L74.4029 196.162L76.1129 196.162L76.2569 197.728L76.3289 197.728C76.6409 197.152 77.0189 196.714 77.4629 196.414C77.9069 196.102 78.3629 195.946 78.8309 195.946C79.2509 195.946 79.5869 196.006 79.8389 196.126L79.4789 197.926C79.3229 197.878 79.1789 197.842 79.0469 197.818C78.9149 197.794 78.7529 197.782 78.5609 197.782C78.2129 197.782 77.8469 197.92 77.4629 198.196C77.0789 198.46 76.7489 198.928 76.4729 199.6L76.4729 205L74.4029 205ZM84.0379 205.216C82.9219 205.216 82.0339 204.814 81.3739 204.01C80.7259 203.194 80.4019 202.054 80.4019 200.59C80.4019 199.87 80.5039 199.222 80.7079 198.646C80.9239 198.07 81.2059 197.584 81.5539 197.188C81.9019 196.792 82.2979 196.486 82.7419 196.27C83.1979 196.054 83.6659 195.946 84.1459 195.946C84.6499 195.946 85.0759 196.036 85.4239 196.216C85.7719 196.384 86.1199 196.618 86.4679 196.918L86.3959 195.496L86.3959 192.292L88.4659 192.292L88.4659 205L86.7559 205L86.6119 204.046L86.5399 204.046C86.2159 204.37 85.8379 204.646 85.4059 204.874C84.9739 205.102 84.5179 205.216 84.0379 205.216ZM84.5419 203.506C85.2019 203.506 85.8199 203.176 86.3959 202.516L86.3959 198.394C86.0839 198.118 85.7779 197.926 85.4779 197.818C85.1899 197.71 84.8959 197.656 84.5959 197.656C84.0199 197.656 83.5339 197.908 83.1379 198.412C82.7419 198.916 82.5439 199.636 82.5439 200.572C82.5439 201.532 82.7119 202.264 83.0479 202.768C83.3959 203.26 83.8939 203.506 84.5419 203.506ZM93.5681 205.216C92.9561 205.216 92.3501 205.102 91.7501 204.874C91.1621 204.634 90.6521 204.34 90.2201 203.992L91.1921 202.66C91.5881 202.972 91.9781 203.218 92.3621 203.398C92.7581 203.566 93.1841 203.65 93.6401 203.65C94.1201 203.65 94.4741 203.554 94.7021 203.362C94.9301 203.158 95.0441 202.9 95.0441 202.588C95.0441 202.408 94.9901 202.252 94.8821 202.12C94.7741 201.976 94.6301 201.85 94.4501 201.742C94.2701 201.634 94.0661 201.538 93.8381 201.454C93.6101 201.358 93.3821 201.262 93.1541 201.166C92.8661 201.058 92.5721 200.932 92.2721 200.788C91.9721 200.644 91.7021 200.47 91.4621 200.266C91.2341 200.062 91.0421 199.828 90.8861 199.564C90.7421 199.288 90.6701 198.964 90.6701 198.592C90.6701 197.812 90.9581 197.176 91.5341 196.684C92.1101 196.192 92.8961 195.946 93.8921 195.946C94.5041 195.946 95.0561 196.054 95.5481 196.27C96.0401 196.486 96.4661 196.732 96.8261 197.008L95.8721 198.268C95.5601 198.04 95.2421 197.86 94.9181 197.728C94.6061 197.584 94.2761 197.512 93.9281 197.512C93.4841 197.512 93.1541 197.608 92.9381 197.8C92.7341 197.98 92.6321 198.208 92.6321 198.484C92.6321 198.664 92.6801 198.82 92.7761 198.952C92.8841 199.072 93.0221 199.18 93.1901 199.276C93.3581 199.372 93.5501 199.462 93.7661 199.546C93.9941 199.63 94.2281 199.714 94.4681 199.798C94.7681 199.906 95.0681 200.032 95.3681 200.176C95.6681 200.308 95.9381 200.476 96.1781 200.68C96.4301 200.884 96.6281 201.136 96.7721 201.436C96.9281 201.724 97.0061 202.072 97.0061 202.48C97.0061 202.864 96.9281 203.224 96.7721 203.56C96.6281 203.884 96.4121 204.172 96.1241 204.424C95.8361 204.664 95.4761 204.856 95.0441 205C94.6121 205.144 94.1201 205.216 93.5681 205.216ZM105.572 205.216C105.056 205.216 104.618 205.138 104.258 204.982C103.91 204.826 103.622 204.61 103.394 204.334C103.178 204.046 103.016 203.71 102.908 203.326C102.812 202.93 102.764 202.492 102.764 202.012L102.764 197.8L101.504 197.8L101.504 196.252L102.872 196.162L103.124 193.75L104.852 193.75L104.852 196.162L107.102 196.162L107.102 197.8L104.852 197.8L104.852 202.012C104.852 203.044 105.266 203.56 106.094 203.56C106.25 203.56 106.406 203.542 106.562 203.506C106.73 203.47 106.88 203.422 107.012 203.362L107.372 204.892C107.132 204.976 106.856 205.048 106.544 205.108C106.244 205.18 105.92 205.216 105.572 205.216ZM112.298 205.216C111.746 205.216 111.218 205.114 110.714 204.91C110.21 204.706 109.76 204.406 109.364 204.01C108.98 203.614 108.674 203.128 108.446 202.552C108.218 201.976 108.104 201.322 108.104 200.59C108.104 199.858 108.218 199.204 108.446 198.628C108.674 198.052 108.98 197.566 109.364 197.17C109.76 196.774 110.21 196.474 110.714 196.27C111.218 196.054 111.746 195.946 112.298 195.946C112.85 195.946 113.378 196.054 113.882 196.27C114.398 196.474 114.848 196.774 115.232 197.17C115.616 197.566 115.922 198.052 116.15 198.628C116.39 199.204 116.51 199.858 116.51 200.59C116.51 201.322 116.39 201.976 116.15 202.552C115.922 203.128 115.616 203.614 115.232 204.01C114.848 204.406 114.398 204.706 113.882 204.91C113.378 205.114 112.85 205.216 112.298 205.216ZM112.298 203.524C112.946 203.524 113.456 203.26 113.828 202.732C114.2 202.192 114.386 201.478 114.386 200.59C114.386 199.69 114.2 198.976 113.828 198.448C113.456 197.908 112.946 197.638 112.298 197.638C111.65 197.638 111.14 197.908 110.768 198.448C110.408 198.976 110.228 199.69 110.228 200.59C110.228 201.478 110.408 202.192 110.768 202.732C111.14 203.26 111.65 203.524 112.298 203.524ZM124.719 205L124.719 194.992L121.317 194.992L121.317 193.228L130.209 193.228L130.209 194.992L126.807 194.992L126.807 205L124.719 205ZM131.989 205L131.989 192.292L134.059 192.292L134.059 195.568L133.987 197.278C134.359 196.93 134.767 196.624 135.211 196.36C135.667 196.084 136.201 195.946 136.813 195.946C137.761 195.946 138.451 196.252 138.883 196.864C139.315 197.464 139.531 198.328 139.531 199.456L139.531 205L137.461 205L137.461 199.726C137.461 198.994 137.353 198.478 137.137 198.178C136.921 197.878 136.567 197.728 136.075 197.728C135.691 197.728 135.349 197.824 135.049 198.016C134.761 198.196 134.431 198.466 134.059 198.826L134.059 205L131.989 205ZM142.026 205L142.026 196.162L144.096 196.162L144.096 205L142.026 205ZM143.07 194.614C142.698 194.614 142.392 194.506 142.152 194.29C141.912 194.074 141.792 193.792 141.792 193.444C141.792 193.096 141.912 192.814 142.152 192.598C142.392 192.37 142.698 192.256 143.07 192.256C143.442 192.256 143.748 192.37 143.988 192.598C144.228 192.814 144.348 193.096 144.348 193.444C144.348 193.792 144.228 194.074 143.988 194.29C143.748 194.506 143.442 194.614 143.07 194.614ZM149.203 205.216C148.591 205.216 147.985 205.102 147.385 204.874C146.797 204.634 146.287 204.34 145.855 203.992L146.827 202.66C147.223 202.972 147.613 203.218 147.997 203.398C148.393 203.566 148.819 203.65 149.275 203.65C149.755 203.65 150.109 203.554 150.337 203.362C150.565 203.158 150.679 202.9 150.679 202.588C150.679 202.408 150.625 202.252 150.517 202.12C150.409 201.976 150.265 201.85 150.085 201.742C149.905 201.634 149.701 201.538 149.473 201.454C149.245 201.358 149.017 201.262 148.789 201.166C148.501 201.058 148.207 200.932 147.907 200.788C147.607 200.644 147.337 200.47 147.097 200.266C146.869 200.062 146.677 199.828 146.521 199.564C146.377 199.288 146.305 198.964 146.305 198.592C146.305 197.812 146.593 197.176 147.169 196.684C147.745 196.192 148.531 195.946 149.527 195.946C150.139 195.946 150.691 196.054 151.183 196.27C151.675 196.486 152.101 196.732 152.461 197.008L151.507 198.268C151.195 198.04 150.877 197.86 150.553 197.728C150.241 197.584 149.911 197.512 149.563 197.512C149.119 197.512 148.789 197.608 148.573 197.8C148.369 197.98 148.267 198.208 148.267 198.484C148.267 198.664 148.315 198.82 148.411 198.952C148.519 199.072 148.657 199.18 148.825 199.276C148.993 199.372 149.185 199.462 149.401 199.546C149.629 199.63 149.863 199.714 150.103 199.798C150.403 199.906 150.703 200.032 151.003 200.176C151.303 200.308 151.573 200.476 151.813 200.68C152.065 200.884 152.263 201.136 152.407 201.436C152.563 201.724 152.641 202.072 152.641 202.48C152.641 202.864 152.563 203.224 152.407 203.56C152.263 203.884 152.047 204.172 151.759 204.424C151.471 204.664 151.111 204.856 150.679 205C150.247 205.144 149.755 205.216 149.203 205.216ZM158.272 205L158.272 193.228L162.034 193.228C162.646 193.228 163.204 193.282 163.708 193.39C164.224 193.486 164.668 193.648 165.04 193.876C165.424 194.092 165.718 194.386 165.922 194.758C166.138 195.13 166.246 195.586 166.246 196.126C166.246 196.69 166.102 197.212 165.814 197.692C165.526 198.172 165.124 198.502 164.608 198.682L164.608 198.754C165.256 198.898 165.79 199.204 166.21 199.672C166.642 200.128 166.858 200.752 166.858 201.544C166.858 202.132 166.744 202.642 166.516 203.074C166.288 203.506 165.97 203.866 165.562 204.154C165.166 204.442 164.692 204.658 164.14 204.802C163.588 204.934 162.988 205 162.34 205L158.272 205ZM160.36 198.088L161.854 198.088C162.682 198.088 163.276 197.938 163.636 197.638C164.008 197.338 164.194 196.936 164.194 196.432C164.194 195.856 164.002 195.448 163.618 195.208C163.234 194.968 162.658 194.848 161.89 194.848L160.36 194.848L160.36 198.088ZM160.36 203.38L162.124 203.38C162.988 203.38 163.654 203.224 164.122 202.912C164.59 202.588 164.824 202.096 164.824 201.436C164.824 200.812 164.596 200.362 164.14 200.086C163.684 199.798 163.012 199.654 162.124 199.654L160.36 199.654L160.36 203.38ZM172.613 205.216C172.001 205.216 171.431 205.114 170.903 204.91C170.375 204.694 169.913 204.388 169.517 203.992C169.121 203.596 168.809 203.116 168.581 202.552C168.365 201.976 168.257 201.322 168.257 200.59C168.257 199.87 168.371 199.222 168.599 198.646C168.827 198.07 169.127 197.584 169.499 197.188C169.883 196.792 170.321 196.486 170.813 196.27C171.305 196.054 171.809 195.946 172.325 195.946C172.925 195.946 173.453 196.048 173.909 196.252C174.365 196.456 174.743 196.744 175.043 197.116C175.355 197.488 175.589 197.932 175.745 198.448C175.901 198.964 175.979 199.528 175.979 200.14C175.979 200.344 175.967 200.536 175.943 200.716C175.931 200.896 175.913 201.04 175.889 201.148L170.273 201.148C170.369 201.94 170.645 202.552 171.101 202.984C171.569 203.404 172.163 203.614 172.883 203.614C173.267 203.614 173.621 203.56 173.945 203.452C174.281 203.332 174.611 203.17 174.935 202.966L175.637 204.262C175.217 204.538 174.749 204.766 174.233 204.946C173.717 205.126 173.177 205.216 172.613 205.216ZM170.255 199.744L174.179 199.744C174.179 199.06 174.029 198.526 173.729 198.142C173.441 197.746 172.991 197.548 172.379 197.548C171.851 197.548 171.389 197.734 170.993 198.106C170.597 198.478 170.351 199.024 170.255 199.744ZM179.887 205.216C179.107 205.216 178.477 204.982 177.997 204.514C177.517 204.034 177.277 203.404 177.277 202.624C177.277 202.156 177.373 201.742 177.565 201.382C177.769 201.01 178.081 200.692 178.501 200.428C178.933 200.164 179.473 199.942 180.121 199.762C180.781 199.582 181.567 199.444 182.479 199.348C182.467 199.12 182.431 198.904 182.371 198.7C182.323 198.484 182.233 198.298 182.101 198.142C181.981 197.974 181.819 197.848 181.615 197.764C181.411 197.668 181.159 197.62 180.859 197.62C180.427 197.62 180.001 197.704 179.581 197.872C179.173 198.04 178.771 198.244 178.375 198.484L177.619 197.098C178.111 196.786 178.663 196.516 179.275 196.288C179.887 196.06 180.547 195.946 181.255 195.946C182.359 195.946 183.181 196.276 183.721 196.936C184.273 197.584 184.549 198.526 184.549 199.762L184.549 205L182.839 205L182.695 204.028L182.623 204.028C182.227 204.364 181.801 204.646 181.345 204.874C180.901 205.102 180.415 205.216 179.887 205.216ZM180.553 203.596C180.913 203.596 181.237 203.512 181.525 203.344C181.825 203.176 182.143 202.936 182.479 202.624L182.479 200.644C181.879 200.716 181.375 200.812 180.967 200.932C180.559 201.052 180.229 201.19 179.977 201.346C179.725 201.49 179.545 201.658 179.437 201.85C179.329 202.042 179.275 202.246 179.275 202.462C179.275 202.858 179.395 203.146 179.635 203.326C179.875 203.506 180.181 203.596 180.553 203.596ZM189.654 205.216C188.706 205.216 188.016 204.916 187.584 204.316C187.152 203.704 186.936 202.834 186.936 201.706L186.936 196.162L189.006 196.162L189.006 201.436C189.006 202.168 189.114 202.684 189.33 202.984C189.546 203.284 189.894 203.434 190.374 203.434C190.758 203.434 191.094 203.338 191.382 203.146C191.682 202.954 192 202.642 192.336 202.21L192.336 196.162L194.406 196.162L194.406 205L192.714 205L192.552 203.704L192.498 203.704C192.114 204.16 191.694 204.526 191.238 204.802C190.794 205.078 190.266 205.216 189.654 205.216ZM200.142 205.216C199.626 205.216 199.188 205.138 198.828 204.982C198.48 204.826 198.192 204.61 197.964 204.334C197.748 204.046 197.586 203.71 197.478 203.326C197.382 202.93 197.334 202.492 197.334 202.012L197.334 197.8L196.074 197.8L196.074 196.252L197.442 196.162L197.694 193.75L199.422 193.75L199.422 196.162L201.672 196.162L201.672 197.8L199.422 197.8L199.422 202.012C199.422 203.044 199.836 203.56 200.664 203.56C200.82 203.56 200.976 203.542 201.132 203.506C201.3 203.47 201.45 203.422 201.582 203.362L201.942 204.892C201.702 204.976 201.426 205.048 201.114 205.108C200.814 205.18 200.49 205.216 200.142 205.216ZM203.532 205L203.532 196.162L205.602 196.162L205.602 205L203.532 205ZM204.576 194.614C204.204 194.614 203.898 194.506 203.658 194.29C203.418 194.074 203.298 193.792 203.298 193.444C203.298 193.096 203.418 192.814 203.658 192.598C203.898 192.37 204.204 192.256 204.576 192.256C204.948 192.256 205.254 192.37 205.494 192.598C205.734 192.814 205.854 193.096 205.854 193.444C205.854 193.792 205.734 194.074 205.494 194.29C205.254 194.506 204.948 194.614 204.576 194.614ZM208.603 205L208.603 197.8L207.415 197.8L207.415 196.252L208.603 196.162L208.603 195.244C208.603 194.788 208.657 194.368 208.765 193.984C208.873 193.588 209.047 193.252 209.287 192.976C209.527 192.688 209.827 192.466 210.187 192.31C210.559 192.154 211.009 192.076 211.537 192.076C211.849 192.076 212.143 192.106 212.419 192.166C212.707 192.226 212.953 192.298 213.157 192.382L212.761 193.93C212.437 193.786 212.113 193.714 211.789 193.714C211.045 193.714 210.673 194.212 210.673 195.208L210.673 196.162L212.401 196.162L212.401 197.8L210.673 197.8L210.673 205L208.603 205ZM216.584 205.216C215.636 205.216 214.946 204.916 214.514 204.316C214.082 203.704 213.866 202.834 213.866 201.706L213.866 196.162L215.936 196.162L215.936 201.436C215.936 202.168 216.044 202.684 216.26 202.984C216.476 203.284 216.824 203.434 217.304 203.434C217.688 203.434 218.024 203.338 218.312 203.146C218.612 202.954 218.93 202.642 219.266 202.21L219.266 196.162L221.336 196.162L221.336 205L219.644 205L219.482 203.704L219.428 203.704C219.044 204.16 218.624 204.526 218.168 204.802C217.724 205.078 217.196 205.216 216.584 205.216ZM225.974 205.216C225.23 205.216 224.708 204.994 224.408 204.55C224.108 204.106 223.958 203.5 223.958 202.732L223.958 192.292L226.028 192.292L226.028 202.84C226.028 203.092 226.076 203.272 226.172 203.38C226.268 203.476 226.37 203.524 226.478 203.524C226.526 203.524 226.568 203.524 226.604 203.524C226.652 203.524 226.718 203.512 226.802 203.488L227.072 205.036C226.796 205.156 226.43 205.216 225.974 205.216ZM236.066 205.216C235.274 205.216 234.506 205.066 233.762 204.766C233.03 204.466 232.382 204.04 231.818 203.488L233.042 202.066C233.462 202.462 233.942 202.786 234.482 203.038C235.022 203.278 235.562 203.398 236.102 203.398C236.774 203.398 237.284 203.26 237.632 202.984C237.98 202.708 238.154 202.342 238.154 201.886C238.154 201.646 238.106 201.442 238.01 201.274C237.926 201.106 237.8 200.962 237.632 200.842C237.476 200.71 237.284 200.59 237.056 200.482C236.84 200.374 236.6 200.266 236.336 200.158L234.716 199.456C234.428 199.336 234.14 199.186 233.852 199.006C233.576 198.826 233.324 198.61 233.096 198.358C232.868 198.106 232.682 197.812 232.538 197.476C232.406 197.14 232.34 196.756 232.34 196.324C232.34 195.856 232.436 195.424 232.628 195.028C232.832 194.62 233.108 194.266 233.456 193.966C233.804 193.666 234.218 193.432 234.698 193.264C235.19 193.096 235.724 193.012 236.3 193.012C236.984 193.012 237.644 193.15 238.28 193.426C238.916 193.69 239.462 194.05 239.918 194.506L238.856 195.838C238.472 195.526 238.076 195.28 237.668 195.1C237.26 194.92 236.804 194.83 236.3 194.83C235.736 194.83 235.286 194.956 234.95 195.208C234.614 195.448 234.446 195.784 234.446 196.216C234.446 196.444 234.494 196.642 234.59 196.81C234.698 196.966 234.836 197.11 235.004 197.242C235.184 197.362 235.388 197.476 235.616 197.584C235.844 197.68 236.078 197.776 236.318 197.872L237.92 198.538C238.268 198.682 238.586 198.85 238.874 199.042C239.162 199.234 239.408 199.456 239.612 199.708C239.828 199.96 239.996 200.254 240.116 200.59C240.236 200.914 240.296 201.292 240.296 201.724C240.296 202.204 240.2 202.654 240.008 203.074C239.816 203.494 239.534 203.866 239.162 204.19C238.802 204.502 238.358 204.754 237.83 204.946C237.314 205.126 236.726 205.216 236.066 205.216ZM246.036 205.216C245.424 205.216 244.854 205.114 244.326 204.91C243.798 204.694 243.336 204.388 242.94 203.992C242.544 203.596 242.232 203.116 242.004 202.552C241.788 201.976 241.68 201.322 241.68 200.59C241.68 199.87 241.794 199.222 242.022 198.646C242.25 198.07 242.55 197.584 242.922 197.188C243.306 196.792 243.744 196.486 244.236 196.27C244.728 196.054 245.232 195.946 245.748 195.946C246.348 195.946 246.876 196.048 247.332 196.252C247.788 196.456 248.166 196.744 248.466 197.116C248.778 197.488 249.012 197.932 249.168 198.448C249.324 198.964 249.402 199.528 249.402 200.14C249.402 200.344 249.39 200.536 249.366 200.716C249.354 200.896 249.336 201.04 249.312 201.148L243.696 201.148C243.792 201.94 244.068 202.552 244.524 202.984C244.992 203.404 245.586 203.614 246.306 203.614C246.69 203.614 247.044 203.56 247.368 203.452C247.704 203.332 248.034 203.17 248.358 202.966L249.06 204.262C248.64 204.538 248.172 204.766 247.656 204.946C247.14 205.126 246.6 205.216 246.036 205.216ZM243.678 199.744L247.602 199.744C247.602 199.06 247.452 198.526 247.152 198.142C246.864 197.746 246.414 197.548 245.802 197.548C245.274 197.548 244.812 197.734 244.416 198.106C244.02 198.478 243.774 199.024 243.678 199.744ZM251.379 205L251.379 196.162L253.089 196.162L253.233 197.728L253.305 197.728C253.617 197.152 253.995 196.714 254.439 196.414C254.883 196.102 255.339 195.946 255.807 195.946C256.227 195.946 256.563 196.006 256.815 196.126L256.455 197.926C256.299 197.878 256.155 197.842 256.023 197.818C255.891 197.794 255.729 197.782 255.537 197.782C255.189 197.782 254.823 197.92 254.439 198.196C254.055 198.46 253.725 198.928 253.449 199.6L253.449 205L251.379 205ZM260.356 205L257.278 196.162L259.384 196.162L260.788 200.752C260.908 201.184 261.028 201.622 261.148 202.066C261.28 202.51 261.406 202.96 261.526 203.416L261.598 203.416C261.73 202.96 261.856 202.51 261.976 202.066C262.096 201.622 262.222 201.184 262.354 200.752L263.758 196.162L265.756 196.162L262.75 205L260.356 205ZM267.288 205L267.288 196.162L269.358 196.162L269.358 205L267.288 205ZM268.332 194.614C267.96 194.614 267.654 194.506 267.414 194.29C267.174 194.074 267.054 193.792 267.054 193.444C267.054 193.096 267.174 192.814 267.414 192.598C267.654 192.37 267.96 192.256 268.332 192.256C268.704 192.256 269.01 192.37 269.25 192.598C269.49 192.814 269.61 193.096 269.61 193.444C269.61 193.792 269.49 194.074 269.25 194.29C269.01 194.506 268.704 194.614 268.332 194.614ZM275.689 205.216C275.089 205.216 274.525 205.114 273.997 204.91C273.481 204.706 273.031 204.406 272.647 204.01C272.263 203.614 271.963 203.128 271.747 202.552C271.531 201.976 271.423 201.322 271.423 200.59C271.423 199.858 271.543 199.204 271.783 198.628C272.023 198.052 272.347 197.566 272.755 197.17C273.163 196.774 273.631 196.474 274.159 196.27C274.699 196.054 275.263 195.946 275.851 195.946C276.427 195.946 276.919 196.042 277.327 196.234C277.747 196.426 278.119 196.66 278.443 196.936L277.435 198.286C277.195 198.082 276.955 197.926 276.715 197.818C276.487 197.698 276.235 197.638 275.959 197.638C275.239 197.638 274.657 197.908 274.213 198.448C273.769 198.976 273.547 199.69 273.547 200.59C273.547 201.478 273.763 202.192 274.195 202.732C274.639 203.26 275.209 203.524 275.905 203.524C276.253 203.524 276.577 203.452 276.877 203.308C277.189 203.152 277.471 202.972 277.723 202.768L278.569 204.136C278.149 204.496 277.687 204.766 277.183 204.946C276.691 205.126 276.193 205.216 275.689 205.216ZM283.654 205.216C283.042 205.216 282.472 205.114 281.944 204.91C281.416 204.694 280.954 204.388 280.558 203.992C280.162 203.596 279.85 203.116 279.622 202.552C279.406 201.976 279.298 201.322 279.298 200.59C279.298 199.87 279.412 199.222 279.64 198.646C279.868 198.07 280.168 197.584 280.54 197.188C280.924 196.792 281.362 196.486 281.854 196.27C282.346 196.054 282.85 195.946 283.366 195.946C283.966 195.946 284.494 196.048 284.95 196.252C285.406 196.456 285.784 196.744 286.084 197.116C286.396 197.488 286.63 197.932 286.786 198.448C286.942 198.964 287.02 199.528 287.02 200.14C287.02 200.344 287.008 200.536 286.984 200.716C286.972 200.896 286.954 201.04 286.93 201.148L281.314 201.148C281.41 201.94 281.686 202.552 282.142 202.984C282.61 203.404 283.204 203.614 283.924 203.614C284.308 203.614 284.662 203.56 284.986 203.452C285.322 203.332 285.652 203.17 285.976 202.966L286.678 204.262C286.258 204.538 285.79 204.766 285.274 204.946C284.758 205.126 284.218 205.216 283.654 205.216ZM281.296 199.744L285.22 199.744C285.22 199.06 285.07 198.526 284.77 198.142C284.482 197.746 284.032 197.548 283.42 197.548C282.892 197.548 282.43 197.734 282.034 198.106C281.638 198.478 281.392 199.024 281.296 199.744Z" fill="#ffffff" fill-rule="nonzero" opacity="1" stroke="none"/>
<g opacity="1">
<clipPath id="ClipPath">
<path d="M0.410529 0.473775L190.411 0.473775L190.411 0.473775L190.411 144.474L190.411 144.474L0.410529 144.474L0.410529 144.474L0.410529 0.473775L0.410529 0.473775Z"/>
</clipPath>
<g clip-path="url(#ClipPath)">
<path d="M76.4375 30.3361L75.7435 30.3361L75.7435 11.4212C75.7435 9.98357 75.4595 8.56 74.9075 7.2318C74.3555 5.9036 73.5455 4.69676 72.5255 3.6802C71.5045 2.66364 70.2935 1.85726 68.9595 1.3071C67.6265 0.756941 66.1975 0.473776 64.7545 0.473775L24.5253 0.473775C21.6106 0.473769 18.8153 1.62714 16.7543 3.68017C14.6934 5.73321 13.5355 8.51772 13.5355 11.4212L13.5355 115.19C13.5355 116.627 13.8198 118.051 14.372 119.379C14.9243 120.707 15.7338 121.914 16.7543 122.931C17.7748 123.947 18.9863 124.754 20.3197 125.304C21.653 125.854 23.0821 126.137 24.5253 126.137L64.7545 126.137C67.6685 126.137 70.4645 124.984 72.5255 122.931C74.5865 120.878 75.7435 118.093 75.7435 115.19L75.7435 43.8L76.4375 43.8L76.4375 30.3361Z" fill="#3f3d56" fill-rule="nonzero" opacity="1" stroke="none"/>
<path d="M65.2005 3.3224L59.9495 3.3224C60.1905 3.91217 60.2825 4.55205 60.2175 5.18567C60.1525 5.81929 59.9315 6.4272 59.5745 6.95585C59.2185 7.4845 58.7365 7.91767 58.1725 8.21719C57.6085 8.51672 56.9785 8.6734 56.3395 8.67345L33.2924 8.67345C32.653 8.67341 32.0234 8.51672 31.4591 8.2172C30.8948 7.91767 30.4131 7.48451 30.0565 6.95586C29.6998 6.4272 29.4792 5.81929 29.4139 5.18567C29.3487 4.55205 29.4409 3.91217 29.6823 3.3224L24.7777 3.3224C23.7 3.3224 22.6327 3.53387 21.637 3.94472C20.6413 4.35557 19.7365 4.95776 18.9744 5.71692C18.2124 6.47608 17.6078 7.37733 17.1954 8.36921C16.7829 9.3611 16.5707 10.4242 16.5707 11.4978L16.5707 115.114C16.5707 116.188 16.7829 117.251 17.1954 118.243C17.6078 119.235 18.2123 120.136 18.9744 120.895C19.7365 121.654 20.6413 122.256 21.637 122.667C22.6327 123.078 23.6999 123.29 24.7777 123.29L65.2005 123.29C66.2785 123.29 67.3455 123.078 68.3405 122.667C69.3365 122.256 70.2415 121.654 71.0035 120.895C71.7655 120.136 72.3705 119.235 72.7825 118.243C73.1955 117.251 73.4075 116.188 73.4075 115.114L73.4075 11.4978C73.4075 10.4242 73.1955 9.3611 72.7825 8.36921C72.3705 7.37732 71.7655 6.47608 71.0035 5.71692C70.2415 4.95776 69.3365 4.35557 68.3405 3.94472C67.3455 3.53387 66.2785 3.3224 65.2005 3.3224Z" fill="#ffffff" fill-rule="nonzero" opacity="1" stroke="none"/>
<path d="M89.3335 126.155L0.643329 126.155C0.58153 126.155 0.52233 126.131 0.478728 126.087C0.435031 126.044 0.410529 125.985 0.410529 125.923C0.410529 125.862 0.435031 125.803 0.478728 125.759C0.52233 125.716 0.58153 125.691 0.643329 125.691L89.3335 125.691C89.3945 125.691 89.4545 125.716 89.4975 125.759C89.5415 125.803 89.5655 125.862 89.5655 125.923C89.5655 125.985 89.5415 126.044 89.4975 126.087C89.4545 126.131 89.3945 126.155 89.3335 126.155Z" fill="#cbcbcb" fill-rule="nonzero" opacity="1" stroke="none"/>
<path d="M44.9895 80.6309C55.8465 80.6309 64.6475 71.8639 64.6475 61.0492C64.6475 50.2345 55.8465 41.4675 44.9895 41.4675C34.1333 41.4675 25.3324 50.2345 25.3324 61.0492C25.3324 71.8639 34.1333 80.6309 44.9895 80.6309Z" fill="#008939" fill-rule="nonzero" opacity="1" stroke="none"/>
<path d="M43.0395 68.519C42.5975 68.5197 42.1665 68.3772 41.8135 68.1129L41.7915 68.0965L37.1714 64.5762C36.9575 64.4128 36.7779 64.209 36.643 63.9765C36.5081 63.7439 36.4205 63.4872 36.3852 63.221C36.3499 62.9547 36.3676 62.6842 36.4373 62.4247C36.5069 62.1653 36.6272 61.922 36.7912 61.7089C36.9553 61.4958 37.1598 61.3169 37.3933 61.1825C37.6265 61.0481 37.8845 60.9609 38.1515 60.9257C38.4185 60.8905 38.6905 60.9081 38.9515 60.9775C39.2115 61.0469 39.4555 61.1668 39.6695 61.3302L42.6615 63.616L49.7325 54.4266C49.8965 54.2136 50.1015 54.0348 50.3345 53.9005C50.5685 53.7661 50.8255 53.6789 51.0925 53.6437C51.3605 53.6086 51.6315 53.6262 51.8915 53.6956C52.1525 53.7649 52.3965 53.8847 52.6105 54.0481L52.6105 54.0485L52.5665 54.1092L52.6115 54.0485C53.0435 54.3788 53.3255 54.8662 53.3965 55.4036C53.4685 55.9411 53.3225 56.4847 52.9915 56.9152L44.6745 67.719C44.4825 67.968 44.2345 68.1694 43.9515 68.3077C43.6685 68.446 43.3565 68.5175 43.0415 68.5166L43.0395 68.519Z" fill="#ffffff" fill-rule="nonzero" opacity="1" stroke="none"/>
<path d="M162.019 128.078C162.258 127.693 162.54 127.336 162.859 127.013C162.99 126.877 163.129 126.749 163.272 126.625C164.141 125.854 165.2 125.328 166.341 125.1C167.482 124.873 168.663 124.952 169.763 125.33C170.863 125.708 171.842 126.371 172.6 127.251C173.357 128.131 173.866 129.196 174.073 130.337C175.033 126.8 172.534 123.316 170.021 120.64C167.507 117.965 164.634 115.031 164.649 111.365C164.656 109.326 165.657 107.506 167.169 106.157C167.216 106.116 167.263 106.075 167.31 106.036C169.138 104.475 171.49 103.659 173.895 103.75C178.364 103.988 182.267 106.98 184.977 110.53C189.339 116.24 191.25 124.256 188.196 130.757C185.51 136.475 179.782 139.87 173.935 142.599C173.119 142.98 172.304 143.35 171.491 143.708C171.485 143.71 171.479 143.714 171.474 143.715C171.435 143.732 171.396 143.749 171.359 143.767C171.191 143.841 171.023 143.915 170.857 143.987L170.934 144.038L171.174 144.193C171.091 144.142 171.009 144.094 170.925 144.043C170.901 144.028 170.874 144.014 170.85 143.998C167.978 142.282 165.067 140.466 163.083 137.787C161.025 135.005 160.198 131.02 162.019 128.078Z" fill="#f1f1f1" fill-rule="nonzero" opacity="1" stroke="none"/>
<path d="M181.175 121.618C181.811 123.059 182.233 124.584 182.427 126.146C182.579 127.539 182.522 128.947 182.257 130.323C181.686 133.151 180.443 135.801 178.631 138.05C177.263 139.758 175.685 141.286 173.933 142.6C173.116 142.981 172.301 143.35 171.488 143.709C171.483 143.71 171.477 143.714 171.472 143.715C171.433 143.732 171.393 143.75 171.357 143.767C171.189 143.841 171.021 143.915 170.855 143.988L170.932 144.038L171.172 144.193C171.089 144.143 171.006 144.094 170.923 144.044C170.898 144.028 170.872 144.014 170.847 143.999C171.479 141.797 171.572 139.476 171.118 137.231C170.664 134.986 169.677 132.882 168.238 131.095C166.792 129.331 164.948 127.932 162.856 127.013C162.988 126.877 163.126 126.749 163.269 126.625C164.075 126.994 164.846 127.432 165.575 127.936C168.179 129.729 170.134 132.31 171.152 135.296C172.06 138.005 172.173 140.917 171.479 143.688C171.623 143.594 171.767 143.498 171.908 143.402C174.583 141.605 177.049 139.446 178.906 136.8C180.508 134.563 181.532 131.968 181.89 129.244C182.246 126.268 181.499 123.342 180.165 120.686C178.692 117.845 176.836 115.219 174.649 112.879C172.452 110.474 169.968 108.347 167.252 106.543C167.191 106.502 167.148 106.439 167.132 106.367C167.116 106.295 167.129 106.22 167.167 106.157C167.196 106.1 167.247 106.057 167.308 106.036C167.339 106.028 167.371 106.028 167.403 106.034C167.434 106.04 167.464 106.054 167.489 106.073C167.825 106.296 168.157 106.52 168.485 106.752C171.22 108.681 173.704 110.941 175.88 113.48C177.982 115.928 179.895 118.647 181.175 121.618Z" fill="#ffffff" fill-rule="nonzero" opacity="1" stroke="none"/>
<path d="M122.633 9.56543C124.938 9.56543 126.807 7.70355 126.807 5.40681C126.807 3.11006 124.938 1.24819 122.633 1.24819C120.327 1.24819 118.458 3.11006 118.458 5.40681C118.458 7.70355 120.327 9.56543 122.633 9.56543Z" fill="#f1f1f1" fill-rule="nonzero" opacity="1" stroke="none"/>
<path d="M174.542 65.217C175.948 65.217 177.087 64.0819 177.087 62.6816C177.087 61.2813 175.948 60.1462 174.542 60.1462C173.136 60.1462 171.997 61.2813 171.997 62.6816C171.997 64.0819 173.136 65.217 174.542 65.217Z" fill="#f1f1f1" fill-rule="nonzero" opacity="1" stroke="none"/>
<path d="M100.05 72.1741C101.456 72.1741 102.595 71.0389 102.595 69.6386C102.595 68.2383 101.456 67.1032 100.05 67.1032C98.6435 67.1032 97.5045 68.2383 97.5045 69.6386C97.5045 71.0389 98.6435 72.1741 100.05 72.1741Z" fill="#f1f1f1" fill-rule="nonzero" opacity="1" stroke="none"/>
<path d="M101.488 144.474L190.177 144.474C190.239 144.474 190.298 144.45 190.342 144.406C190.386 144.363 190.41 144.304 190.41 144.243C190.41 144.181 190.386 144.122 190.342 144.079C190.298 144.035 190.239 144.011 190.177 144.011L101.488 144.011C101.426 144.011 101.367 144.035 101.323 144.079C101.279 144.122 101.255 144.181 101.255 144.243C101.255 144.304 101.279 144.363 101.323 144.406C101.367 144.45 101.426 144.474 101.488 144.474Z" fill="#cbcbcb" fill-rule="nonzero" opacity="1" stroke="none"/>
<path d="M180.392 22.8828C180.508 22.0592 180.318 21.2217 179.856 20.5289C179.393 19.8361 178.692 19.3362 177.885 19.1239C177.078 18.9116 176.22 19.0018 175.475 19.3772C174.73 19.7526 174.149 20.3872 173.842 21.1608L166.645 29.3798L168.757 35.255L175.995 25.6514C176.467 25.8022 176.967 25.8479 177.459 25.7854C177.951 25.7229 178.423 25.5537 178.842 25.2897C179.262 25.0258 179.618 24.6735 179.885 24.2576C180.153 23.8418 180.326 23.3725 180.392 22.8828Z" fill="#ffb7b7" fill-rule="nonzero" opacity="1" stroke="none"/>
<path d="M150.559 54.8618L174.449 29.4638L171.227 24.3605L141.263 49.6043L150.559 54.8618Z" fill="#3f3d56" fill-rule="nonzero" opacity="1" stroke="none"/>
<path d="M145.225 39.4302C149.853 39.4302 153.605 35.6928 153.605 31.0824C153.605 26.472 149.853 22.7345 145.225 22.7345C140.597 22.7345 136.845 26.472 136.845 31.0824C136.845 35.6928 140.597 39.4302 145.225 39.4302Z" fill="#2f2e41" fill-rule="nonzero" opacity="1" stroke="none"/>
<path d="M145.899 26.3669C147.703 24.5454 149.885 23.1397 152.292 22.2489C153.838 21.6786 155.52 21.3262 157.135 21.6501C158.751 21.974 160.279 23.0873 160.729 24.6664C161.098 25.9576 160.717 27.3478 160.145 28.5633C159.574 29.7788 158.81 30.9059 158.347 32.1668C157.875 33.4533 157.733 34.8368 157.934 36.1918C158.135 37.5468 158.673 38.8304 159.498 39.9259C160.323 41.0215 161.41 41.8944 162.66 42.4654C163.91 43.0364 165.283 43.2875 166.655 43.1957C165.068 43.4077 163.604 44.1508 162.053 44.5464C160.501 44.9419 158.67 44.9151 157.517 43.8078C156.297 42.6362 156.272 40.7313 156.331 39.0443C156.419 36.5365 156.507 34.0287 156.594 31.5208C156.639 30.2419 156.677 28.922 156.214 27.7283C155.751 26.5345 154.651 25.4893 153.366 25.5001C152.393 25.5083 151.531 26.0959 150.75 26.6753C149.969 27.2547 149.143 27.8729 148.173 27.9591C147.203 28.0453 146.096 27.3304 146.169 26.3632L145.899 26.3669Z" fill="#2f2e41" fill-rule="nonzero" opacity="1" stroke="none"/>
<path d="M113.399 87.1333C112.594 87.356 111.736 87.2769 110.986 86.9111C110.236 86.5453 109.647 85.9182 109.33 85.1486C109.013 84.379 108.991 83.5204 109.267 82.7355C109.543 81.9506 110.099 81.2939 110.829 80.8899L118.069 72.7082L124.192 74.026L115.58 82.429C115.791 82.8758 115.902 83.3633 115.904 83.8574C115.906 84.3514 115.8 84.8399 115.592 85.2884C115.384 85.7369 115.08 86.1345 114.701 86.4533C114.322 86.772 113.877 87.0042 113.399 87.1333L113.399 87.1333Z" fill="#ffb7b7" fill-rule="nonzero" opacity="1" stroke="none"/>
<path d="M137.217 57.843L119.173 80.4053L113.673 77.8898L134.881 44.9982L137.217 57.843Z" fill="#3f3d56" fill-rule="nonzero" opacity="1" stroke="none"/>
<path d="M122.817 125.971L118.516 125.904L119.034 140.505L122.816 140.505L122.817 125.971Z" fill="#ffb7b7" fill-rule="nonzero" opacity="1" stroke="none"/>
<path d="M123.784 139.275L116.334 139.275L116.334 139.275C115.075 139.275 113.868 139.773 112.977 140.66C112.087 141.547 111.587 142.75 111.587 144.004L111.587 144.157L123.783 144.158L123.784 139.275Z" fill="#2f2e41" fill-rule="nonzero" opacity="1" stroke="none"/>
<path d="M151.292 122.099L146.595 125.104L155.992 136.365L159.175 134.33L151.292 122.099Z" fill="#ffb7b7" fill-rule="nonzero" opacity="1" stroke="none"/>
<path d="M159.319 132.774L153.051 136.783L153.05 136.783C151.991 137.461 151.245 138.53 150.977 139.756C150.709 140.981 150.94 142.262 151.62 143.318L151.704 143.447L161.967 136.883L159.319 132.774Z" fill="#2f2e41" fill-rule="nonzero" opacity="1" stroke="none"/>
<path d="M152.965 77.5147C152.965 77.5147 142.527 42.9809 139.173 42.5142C135.818 42.0475 130.414 51.3752 130.414 51.3752C123.406 60.2814 116.181 89.1307 116.181 89.1307C116.181 89.1307 128.226 89.8816 137.032 94.5483C145.837 99.2151 156.229 94.3121 156.229 94.3121L152.965 77.5147Z" fill="#3f3d56" fill-rule="nonzero" opacity="1" stroke="none"/>
<path d="M152.965 77.5156C152.965 77.5156 142.527 42.9817 139.173 42.515C135.818 42.0483 131.786 51.4706 131.786 51.4706C128.295 65.8475 116.181 89.1316 116.181 89.1316C116.181 89.1316 128.226 89.8824 137.032 94.5492C145.837 99.2159 156.229 94.3129 156.229 94.3129L152.965 77.5156Z" fill="#000000" fill-rule="nonzero" opacity="0.1" stroke="none"/>
<path d="M144.402 67.182L144.402 84.535L146.452 109.672L156.695 128.687L151.806 132.165L137.84 114.078L132.315 96.1188L123.64 135.875L117.122 135.412L121.649 80.2899L130.238 64.7746L144.402 67.182Z" fill="#2f2e41" fill-rule="nonzero" opacity="1" stroke="none"/>
<path d="M133.88 50.3974C130.621 53.6438 133.647 57.122 133.647 57.122L129.923 65.4699L144.588 69.4119L149.713 46.5996L146.221 42.8894C139.238 42.6575 139.234 42.5134 139.234 42.5134C138.01 43.7061 133.88 50.3974 133.88 50.3974Z" fill="#0077c8" fill-rule="nonzero" opacity="1" stroke="none"/>
<path d="M150.302 44.2362C149.636 43.7464 148.879 43.3932 148.075 43.1969C147.271 43.0006 146.436 42.9652 145.618 43.0927C144.8 43.2203 144.016 43.5082 143.31 43.9398C142.605 44.3715 141.992 44.9382 141.508 45.6073C137.822 50.7209 134.413 58.978 139.11 69.2761C146.652 85.8117 153.215 94.2766 155.883 94.2757C155.999 94.2766 156.115 94.2585 156.226 94.222C157.868 93.667 160.243 90.8986 160.672 88.4591C160.826 87.5859 160.79 86.3696 159.741 85.5345C156.73 83.1354 151.325 75.6652 149.638 65.8327C148.706 60.3998 150.514 55.4508 152.194 52.256C152.903 50.934 153.111 49.4016 152.779 47.9395C152.446 46.4775 151.596 45.1838 150.383 44.2956L150.302 44.2362Z" fill="#3f3d56" fill-rule="nonzero" opacity="1" stroke="none"/>
<path d="M145.656 38.6104C148.645 36.9826 149.744 33.2489 148.11 30.271C146.475 27.2932 142.727 26.1987 139.738 27.8266C136.748 29.4545 135.65 33.1881 137.284 36.166C138.918 39.1439 142.666 40.2383 145.656 38.6104Z" fill="#ffb7b7" fill-rule="nonzero" opacity="1" stroke="none"/>
<path d="M134.024 32.7539L142.932 32.7539L143.023 31.4799L143.48 32.7539L144.851 32.7539L145.032 30.229L145.938 32.7539L148.592 32.7539L148.592 32.6288C148.59 30.871 147.888 29.1857 146.64 27.9428C145.392 26.6998 143.7 26.0007 141.936 25.9987L140.68 25.9987C138.915 26.0007 137.224 26.6998 135.976 27.9428C134.728 29.1857 134.026 30.871 134.024 32.6288L134.024 32.7539Z" fill="#2f2e41" fill-rule="nonzero" opacity="1" stroke="none"/>
<path d="M147.243 37.333L151.044 36.1044L151.044 26.9089L143.864 26.9089L144.042 27.0857C146.515 29.5462 149.266 38.2757 147.243 37.333Z" fill="#2f2e41" fill-rule="nonzero" opacity="1" stroke="none"/>
</g>
</g>
</g>
</svg>
