<svg width="24" height="25" viewBox="0 0 24 25" fill="none" xmlns="http://www.w3.org/2000/svg">
<g clip-path="url(#clip0_652_6936)">
<path d="M9 12.8649H2.25C1.85218 12.8649 1.47064 12.7054 1.18934 12.4215C0.908035 12.1377 0.75 11.7527 0.75 11.3512V2.26949C0.75 1.86805 0.908035 1.48305 1.18934 1.19919C1.47064 0.91533 1.85218 0.755859 2.25 0.755859H20.25C20.6478 0.755859 21.0294 0.91533 21.3107 1.19919C21.592 1.48305 21.75 1.86805 21.75 2.26949V8.32399" stroke="#0077C8" stroke-width="1.5" stroke-linecap="round" stroke-linejoin="round"/>
<path d="M23.25 17.4061C23.25 18.6035 22.8981 19.7741 22.2388 20.7698C21.5795 21.7654 20.6425 22.5415 19.5461 22.9997C18.4497 23.458 17.2433 23.5779 16.0795 23.3442C14.9156 23.1106 13.8465 22.534 13.0074 21.6873C12.1682 20.8405 11.5968 19.7617 11.3653 18.5872C11.1338 17.4128 11.2526 16.1954 11.7067 15.0891C12.1609 13.9828 12.9299 13.0372 13.9166 12.3719C14.9033 11.7067 16.0633 11.3516 17.25 11.3516" stroke="#0077C8" stroke-width="1.5" stroke-linecap="round" stroke-linejoin="round"/>
<path d="M23.25 12.8652L17.78 18.3849C17.7104 18.4552 17.6278 18.511 17.5369 18.549C17.4459 18.5871 17.3484 18.6067 17.25 18.6067C17.1516 18.6067 17.0541 18.5871 16.9631 18.549C16.8722 18.511 16.7896 18.4552 16.72 18.3849L15 16.6503" stroke="#0077C8" stroke-width="1.5" stroke-linecap="round" stroke-linejoin="round"/>
<path d="M5.25 6.4336C5.32417 6.4336 5.39667 6.45579 5.45834 6.49737C5.52001 6.53895 5.56807 6.59805 5.59646 6.66719C5.62484 6.73634 5.63227 6.81242 5.6178 6.88583C5.60333 6.95923 5.56761 7.02665 5.51517 7.07958C5.46272 7.1325 5.3959 7.16854 5.32316 7.18314C5.25042 7.19774 5.17502 7.19024 5.1065 7.1616C5.03797 7.13296 4.97941 7.08446 4.9382 7.02223C4.89699 6.96 4.875 6.88684 4.875 6.812C4.87487 6.76227 4.88448 6.713 4.90328 6.66703C4.92208 6.62106 4.94969 6.5793 4.98454 6.54413C5.01939 6.50897 5.06078 6.4811 5.10634 6.46213C5.1519 6.44316 5.20072 6.43346 5.25 6.4336Z" stroke="#0077C8" stroke-width="1.5" stroke-linecap="round" stroke-linejoin="round"/>
<path d="M11.25 6.4336C11.3242 6.4336 11.3967 6.45579 11.4583 6.49737C11.52 6.53895 11.5681 6.59805 11.5965 6.66719C11.6248 6.73634 11.6323 6.81242 11.6178 6.88583C11.6033 6.95923 11.5676 7.02665 11.5152 7.07958C11.4627 7.1325 11.3959 7.16854 11.3232 7.18314C11.2504 7.19774 11.175 7.19024 11.1065 7.1616C11.038 7.13296 10.9794 7.08446 10.9382 7.02223C10.897 6.96 10.875 6.88684 10.875 6.812C10.8749 6.76227 10.8845 6.713 10.9033 6.66703C10.9221 6.62106 10.9497 6.5793 10.9845 6.54413C11.0194 6.50897 11.0608 6.4811 11.1063 6.46213C11.1519 6.44316 11.2007 6.43346 11.25 6.4336Z" stroke="#0077C8" stroke-width="1.5" stroke-linecap="round" stroke-linejoin="round"/>
<path d="M17.25 6.4336C17.3242 6.4336 17.3967 6.45579 17.4583 6.49737C17.52 6.53895 17.5681 6.59805 17.5965 6.66719C17.6248 6.73634 17.6323 6.81242 17.6178 6.88583C17.6033 6.95923 17.5676 7.02665 17.5152 7.07958C17.4627 7.1325 17.3959 7.16854 17.3232 7.18314C17.2504 7.19774 17.175 7.19024 17.1065 7.1616C17.038 7.13296 16.9794 7.08446 16.9382 7.02223C16.897 6.96 16.875 6.88684 16.875 6.812C16.8749 6.76227 16.8845 6.713 16.9033 6.66703C16.9221 6.62106 16.9497 6.5793 16.9845 6.54413C17.0194 6.50897 17.0608 6.4811 17.1063 6.46213C17.1519 6.44316 17.2007 6.43346 17.25 6.4336Z" stroke="#0077C8" stroke-width="1.5" stroke-linecap="round" stroke-linejoin="round"/>
</g>
<defs>
<clipPath id="clip0_652_6936">
<rect width="24" height="24.218" fill="white"/>
</clipPath>
</defs>
</svg>
