<svg width="41" height="40" viewBox="0 0 41 40" fill="none" xmlns="http://www.w3.org/2000/svg">
<g clip-path="url(#clip0_49_16829)">
<path d="M21.8031 23.75V34.1967C21.8031 35.4043 21.3296 36.5624 20.4867 37.4164C19.6439 38.2703 18.5007 38.75 17.3087 38.75H6.55805C5.36591 38.75 4.22257 38.2703 3.37945 37.4165C2.53633 36.5626 2.06245 35.4044 2.06201 34.1967V8.305C2.06245 7.09707 2.53628 5.93875 3.37935 5.08462C4.22243 4.23048 5.36576 3.75044 6.55805 3.75H10.6987" stroke="#008939" stroke-width="1.5" stroke-linecap="round" stroke-linejoin="round"/>
<path d="M2.06201 31.25H21.8031" stroke="#008939" stroke-width="1.5" stroke-linecap="round" stroke-linejoin="round"/>
<path d="M34.1411 1.25H20.5691C19.2601 1.25 18.0048 1.77678 17.0793 2.71447C16.1538 3.65215 15.6338 4.92392 15.6338 6.25V13.75C15.6338 15.0761 16.1538 16.3479 17.0793 17.2855C18.0048 18.2232 19.2601 18.75 20.5691 18.75H26.7382V25L32.9073 18.75H34.1411C35.45 18.75 36.7053 18.2232 37.6308 17.2855C38.5564 16.3479 39.0763 15.0761 39.0763 13.75V6.25C39.0763 4.92392 38.5564 3.65215 37.6308 2.71447C36.7053 1.77678 35.45 1.25 34.1411 1.25Z" stroke="#008939" stroke-width="1.5" stroke-linecap="round" stroke-linejoin="round"/>
<path d="M21.1862 9.375C21.0642 9.375 20.945 9.41166 20.8435 9.48033C20.7421 9.54901 20.663 9.64662 20.6163 9.76082C20.5696 9.87503 20.5574 10.0007 20.5812 10.1219C20.605 10.2432 20.6637 10.3545 20.75 10.4419C20.8363 10.5293 20.9462 10.5889 21.0659 10.613C21.1856 10.6371 21.3096 10.6247 21.4223 10.5774C21.5351 10.5301 21.6314 10.45 21.6992 10.3472C21.767 10.2445 21.8032 10.1236 21.8032 10C21.8032 9.83424 21.7382 9.67527 21.6225 9.55806C21.5068 9.44085 21.3499 9.375 21.1862 9.375Z" stroke="#008939" stroke-width="1.5" stroke-linecap="round" stroke-linejoin="round"/>
<path d="M27.3552 9.375C27.2332 9.375 27.1139 9.41166 27.0125 9.48033C26.911 9.54901 26.8319 9.64662 26.7852 9.76082C26.7385 9.87503 26.7263 10.0007 26.7501 10.1219C26.7739 10.2432 26.8327 10.3545 26.919 10.4419C27.0052 10.5293 27.1152 10.5889 27.2348 10.613C27.3545 10.6371 27.4785 10.6247 27.5913 10.5774C27.704 10.5301 27.8003 10.45 27.8681 10.3472C27.9359 10.2445 27.9721 10.1236 27.9721 10C27.9721 9.83424 27.9071 9.67527 27.7914 9.55806C27.6757 9.44085 27.5188 9.375 27.3552 9.375Z" stroke="#008939" stroke-width="1.5" stroke-linecap="round" stroke-linejoin="round"/>
<path d="M33.5241 9.375C33.4021 9.375 33.2828 9.41166 33.1814 9.48033C33.0799 9.54901 33.0009 9.64662 32.9542 9.76082C32.9075 9.87503 32.8953 10.0007 32.9191 10.1219C32.9429 10.2432 33.0016 10.3545 33.0879 10.4419C33.1742 10.5293 33.2841 10.5889 33.4038 10.613C33.5235 10.6371 33.6475 10.6247 33.7602 10.5774C33.8729 10.5301 33.9693 10.45 34.0371 10.3472C34.1049 10.2445 34.141 10.1236 34.141 10C34.141 9.83424 34.076 9.67527 33.9604 9.55806C33.8447 9.44085 33.6877 9.375 33.5241 9.375Z" stroke="#008939" stroke-width="1.5" stroke-linecap="round" stroke-linejoin="round"/>
</g>
<defs>
<clipPath id="clip0_49_16829">
<rect width="39.4822" height="40" fill="white" transform="translate(0.828125)"/>
</clipPath>
</defs>
</svg>
