<?xml version="1.0" encoding="utf-8"?>
<!-- Generator: Adobe Illustrator 27.4.1, SVG Export Plug-In . SVG Version: 6.00 Build 0)  -->
<svg version="1.1" id="Layer_1" xmlns="http://www.w3.org/2000/svg" xmlns:xlink="http://www.w3.org/1999/xlink" x="0px" y="0px"
	 viewBox="0 0 51 51" style="enable-background:new 0 0 51 51;" xml:space="preserve">
<style type="text/css">
	.st0{fill:#008939;}
	.st1{clip-path:url(#SVGID_00000092436792710061692330000006921414126844046227_);}
	.st2{fill:#FFFFFF;}
</style>
<path class="st0" d="M6,0h39c3.3,0,6,2.7,6,6v39c0,3.3-2.7,6-6,6H6c-3.3,0-6-2.7-6-6V6C0,2.7,2.7,0,6,0z"/>
<g>
	<defs>
		<rect id="SVGID_1_" x="13" y="13" width="24" height="24"/>
	</defs>
	<clipPath id="SVGID_00000127743178124991668580000003755365784489771964_">
		<use xlink:href="#SVGID_1_"  style="overflow:visible;"/>
	</clipPath>
	<g style="clip-path:url(#SVGID_00000127743178124991668580000003755365784489771964_);">
		<path class="st2" d="M30.8,37.5c-0.4,0-0.8-0.3-0.8-0.8s0.3-0.8,0.8-0.8h4.5c0.4,0,0.8-0.3,0.8-0.8V24.8c0-0.4-0.3-0.8-0.8-0.8
			H21.8c-0.4,0-0.8,0.3-0.8,0.8v3.8c0,0.4-0.3,0.8-0.8,0.8s-0.8-0.3-0.8-0.8v-3.8c0-1.2,1-2.2,2.2-2.2h0.8v-3c0-3.3,2.7-6,6-6
			s6,2.7,6,6v3h0.8c1.2,0,2.2,1,2.2,2.2v10.5c0,1.2-1,2.2-2.2,2.2H30.8z M33,22.5v-3c0-2.5-2-4.5-4.5-4.5S24,17,24,19.5v3H33z"/>
		<path class="st2" d="M30,32.4c-0.2,0-0.4-0.1-0.6-0.2c-0.1-0.1-0.2-0.3-0.2-0.5c0-0.2,0.1-0.4,0.2-0.5c0.5-0.4,0.6-1.1,0.4-1.7
			c-0.2-0.6-0.8-0.9-1.4-0.9c-0.2,0-0.4,0-0.6,0.1c-0.4,0.1-0.7,0.4-0.8,0.8c-0.2,0.4-0.2,0.8,0,1.1c0.1,0.2,0.1,0.4,0,0.6
			c-0.1,0.2-0.2,0.3-0.4,0.4c-0.1,0-0.2,0.1-0.3,0.1c-0.3,0-0.6-0.2-0.7-0.5c-0.3-0.7-0.3-1.6,0-2.3c0.3-0.7,0.9-1.3,1.6-1.6
			c0.4-0.1,0.7-0.2,1.1-0.2c1.2,0,2.3,0.7,2.8,1.9c0.5,1.2,0.2,2.5-0.8,3.3C30.4,32.3,30.2,32.4,30,32.4z"/>
		<path class="st2" d="M31,28.9c0.6,0,1.1-0.5,1.1-1.1s-0.5-1.1-1.1-1.1s-1.1,0.5-1.1,1.1S30.4,28.9,31,28.9z"/>
	</g>
</g>
<path class="st2" d="M17.6,32c-1.2,0-2.1,1-2.1,2.1c0,1.2,1,2.1,2.1,2.1c1.2,0,2.1-1,2.1-2.1C19.7,32.9,18.8,32,17.6,32z M17.6,37.6
	c-2,0-3.6-1.6-3.6-3.6c0-2,1.6-3.6,3.6-3.6c1.7,0,3.1,1.2,3.5,2.8h6.5c0.4,0,0.7,0.3,0.7,0.7v2.1c0,0.4-0.3,0.7-0.7,0.7
	c-0.4,0-0.7-0.3-0.7-0.7v-1.4h-1.4v0.7c0,0.4-0.3,0.7-0.7,0.7S24,35.9,24,35.5v-0.7h-2.9C20.8,36.4,19.3,37.6,17.6,37.6z"/>
</svg>
