<svg width="24" height="24" viewBox="0 0 24 24" fill="none" xmlns="http://www.w3.org/2000/svg">
<g clip-path="url(#clip0_652_6942)">
<path d="M18.002 21H21.002" stroke="#5E6873" stroke-width="1.5" stroke-linecap="round" stroke-linejoin="round"/>
<path d="M19.502 19.5V22.5" stroke="#5E6873" stroke-width="1.5" stroke-linecap="round" stroke-linejoin="round"/>
<path d="M0.751953 5.25H5.25195" stroke="#5E6873" stroke-width="1.5" stroke-linecap="round" stroke-linejoin="round"/>
<path d="M3.00195 3V7.5" stroke="#5E6873" stroke-width="1.5" stroke-linecap="round" stroke-linejoin="round"/>
<path d="M16.6905 9.77156C18.0491 9.77156 19.1505 8.67018 19.1505 7.31156C19.1505 5.95294 18.0491 4.85156 16.6905 4.85156C15.3318 4.85156 14.2305 5.95294 14.2305 7.31156C14.2305 8.67018 15.3318 9.77156 16.6905 9.77156Z" stroke="#5E6873" stroke-width="1.5" stroke-linecap="round" stroke-linejoin="round"/>
<path d="M10.8545 10.2464L1.35452 19.7464C0.969952 20.131 0.753906 20.6526 0.753906 21.1964C0.753906 21.7403 0.969952 22.2619 1.35452 22.6464C1.73908 23.031 2.26066 23.247 2.80452 23.247C3.34837 23.247 3.86995 23.031 4.25452 22.6464L5.69952 21.2004L7.15752 22.6584C7.46517 22.9661 7.88243 23.1389 8.31752 23.1389C8.7526 23.1389 9.16987 22.9661 9.47752 22.6584C9.78517 22.3508 9.958 21.9335 9.958 21.4984C9.958 21.0633 9.78517 20.6461 9.47752 20.3384L8.02052 18.8804L13.7545 13.1464C15.1472 13.8495 16.7448 14.0334 18.2608 13.665C19.7768 13.2965 21.1119 12.4 22.0265 11.1361C22.9412 9.87228 23.3756 8.32386 23.2517 6.76868C23.1279 5.21351 22.4539 3.75336 21.3508 2.6502C20.2476 1.54704 18.7874 0.873078 17.2323 0.749231C15.6771 0.625384 14.1287 1.05976 12.8648 1.97442C11.601 2.88908 10.7044 4.22416 10.336 5.74013C9.96758 7.25611 10.1514 8.85376 10.8545 10.2464V10.2464Z" stroke="#5E6873" stroke-width="1.5" stroke-linecap="round" stroke-linejoin="round"/>
</g>
<defs>
<clipPath id="clip0_652_6942">
<rect width="24" height="24" fill="white"/>
</clipPath>
</defs>
</svg>
