<?xml version="1.0" encoding="UTF-8" standalone="no"?>
<!DOCTYPE svg PUBLIC "-//W3C//DTD SVG 1.1//EN" "http://www.w3.org/Graphics/SVG/1.1/DTD/svg11.dtd">
<!-- Created with Vectornator (http://vectornator.io/) -->
<svg height="100%" stroke-miterlimit="10" style="fill-rule:nonzero;clip-rule:evenodd;stroke-linecap:round;stroke-linejoin:round;" version="1.1" viewBox="0 0 311 217" width="100%" xml:space="preserve" xmlns="http://www.w3.org/2000/svg" xmlns:vectornator="http://vectornator.io" xmlns:xlink="http://www.w3.org/1999/xlink">
<defs/>
<g id="Untitled" vectornator:layerName="Untitled">
<g opacity="1" vectornator:layerName="rect">
<clipPath id="ClipPath">
<path d="M79.3278 47.1478L236.45 47.1478L236.45 47.1478L236.45 181.931L236.45 181.931L79.3278 181.931L79.3278 181.931L79.3278 47.1478L79.3278 47.1478Z"/>
</clipPath>
<g clip-path="url(#ClipPath)">
<path d="M160.236 114.259C160.798 116.52 160.046 118.642 158.555 118.997C157.063 119.353 155.399 117.809 154.837 115.547C154.599 114.647 154.588 113.703 154.805 112.795L152.547 103.185L157.242 102.226L158.97 111.8C159.59 112.509 160.024 113.352 160.236 114.259Z" fill="#fdadb0" fill-rule="nonzero" opacity="1" stroke="none" vectornator:layerName="path"/>
<path d="M140.55 169.206L140.84 175.504L140.55 177.247L141.564 179.28L149.531 180.152L149.965 176.376L145.765 174.197L145.643 170.639L140.55 169.206Z" fill="#fdadb0" fill-rule="nonzero" opacity="1" stroke="none" vectornator:layerName="path"/>
<path d="M148.951 178.699L148.517 179.28L140.174 176.869C140.174 176.869 140.55 180.587 140.55 181.313C140.55 182.039 154.311 182.039 156.382 181.749C158.452 181.459 157.787 179.57 157.787 179.57L149.2 175.495L148.951 178.699Z" fill="#2f2e43" fill-rule="nonzero" opacity="1" stroke="none" vectornator:layerName="path"/>
<path d="M119.794 164.57L118.058 170.63L117.227 172.188L117.539 174.439L124.808 177.822L126.425 174.384L123.141 170.972L125.201 165.615L119.794 164.57Z" fill="#fdadb0" fill-rule="nonzero" opacity="1" stroke="none" vectornator:layerName="path"/>
<path d="M124.723 176.26L124.126 176.67L116.991 171.709C116.991 171.709 116.161 175.353 115.929 176.04C115.697 176.728 128.735 181.144 130.789 181.533C132.844 181.922 132.816 179.921 132.816 179.921L125.982 173.304L124.723 176.26Z" fill="#2f2e43" fill-rule="nonzero" opacity="1" stroke="none" vectornator:layerName="path"/>
<path d="M141.112 65.2264L141.416 70.1797L132.191 70.6489L135.048 64.1229L141.112 65.2264Z" fill="#fdadb0" fill-rule="nonzero" opacity="1" stroke="none" vectornator:layerName="path"/>
<path d="M141.652 69.4388C139.179 70.5445 135.224 70.242 130.742 69.4388L130.042 100.572C130.042 100.572 144.062 103.398 148.882 98.1836L146.345 72.7457L141.652 69.4388Z" fill="#e0e1e2" fill-rule="nonzero" opacity="1" stroke="none" vectornator:layerName="path"/>
<path d="M147.36 98.9469L127.567 100.908L117.799 167.405L125.284 167.405L138.1 121.841L139.115 173.479L145.965 173.479L151.8 110.266L147.36 98.9469Z" fill="#2f2e43" fill-rule="nonzero" opacity="1" stroke="none" vectornator:layerName="path"/>
<path d="M133.556 67.5313L126.906 71.4771C124.387 72.9718 123.199 75.9892 124.022 78.806L129.161 96.4068C129.161 96.4068 120.792 110.823 123.512 112.095C129.623 114.953 138.743 114.258 138.743 114.258L136.704 79.7413L133.556 67.5313Z" fill="#3f3d58" fill-rule="nonzero" opacity="1" stroke="none" vectornator:layerName="path"/>
<path d="M141.363 69.3079L148.882 72.2369L150.658 93.986L155.632 111.507C147.208 114.59 147.994 113.153 147.994 113.153L146.599 82.9207L141.363 69.3079Z" fill="#3f3d58" fill-rule="nonzero" opacity="1" stroke="none" vectornator:layerName="path"/>
<path d="M152.348 111.137L152.322 111.018L144.635 75.3734C144.421 74.3775 144.695 73.3791 145.389 72.6343C146.082 71.8893 147.057 71.5462 148.063 71.6929C149.304 71.8737 150.297 72.7798 150.593 74.0013L159.036 108.796L152.348 111.137Z" fill="#3f3d58" fill-rule="nonzero" opacity="1" stroke="none" vectornator:layerName="path"/>
<path d="M137.109 66.543C141.243 66.543 144.594 63.1833 144.594 59.039C144.594 54.8947 141.243 51.535 137.109 51.535C132.976 51.535 129.625 54.8947 129.625 59.039C129.625 63.1833 132.976 66.543 137.109 66.543Z" fill="#fdadb0" fill-rule="nonzero" opacity="1" stroke="none" vectornator:layerName="path"/>
<path d="M140.67 49.3167C142.319 49.8976 143.262 50.23 144.126 51.0646C145.586 52.4745 145.826 54.3585 146.05 56.1091C146.225 57.4786 146.452 59.2491 145.652 61.2721C145.379 61.9625 144.055 65.0384 141.521 65.4271C141.023 65.5034 139.854 65.5235 140.191 65.2742C143.308 62.9668 144.639 61.5739 144.529 58.0179C144.462 55.8084 141.094 53.4228 139.095 52.9939C138.253 52.8133 137.131 52.9783 136.327 53.6401C134.647 55.0234 134.718 60.7434 132.946 61.9391C132.217 62.4309 132.703 58.9694 132.189 59.5308C131.176 60.6384 131.826 62.3345 132.008 62.9805C132.872 66.0445 134.5 66.3444 135.344 68.9609C136.254 71.7858 135.108 74.4455 134.836 75.0761C134.364 76.1732 133.552 78.0562 131.698 78.9594C129.345 80.1061 127.49 78.613 126.396 79.893C125.785 80.6086 126.115 81.3664 125.011 83.5921C124.65 84.3187 124.47 84.682 124.31 84.6691C123.555 84.6081 122.332 78.5462 124.31 72.9007C125.14 70.5315 125.953 68.2103 128.133 66.3952C129.285 65.4356 130.252 65.0903 130.527 63.9697C130.92 62.3687 129.288 61.6854 128.961 59.1594C128.737 57.4318 128.58 54.961 129.189 53.3774C129.763 51.8819 130.262 50.5838 131.567 49.4067C131.881 49.124 134.411 47.2023 137.095 47.1481C138.33 47.1231 139.238 48.8119 140.67 49.3167Z" fill="#2f2e43" fill-rule="nonzero" opacity="1" stroke="none" vectornator:layerName="path"/>
<path d="M174.418 96.5141C174.418 106.446 166.388 114.495 156.485 114.495C146.581 114.495 138.551 106.446 138.551 96.5141C138.551 86.582 146.581 78.5325 156.485 78.5325C166.388 78.5325 174.418 86.582 174.418 96.5141Z" fill="#0077c8" fill-rule="nonzero" opacity="1" stroke="#ffffff" stroke-linecap="butt" stroke-linejoin="miter" stroke-width="0.790165" vectornator:layerName="path"/>
<path d="M151.853 108.487C152.964 104.468 154.075 100.45 155.186 96.4307C155.423 95.575 155.606 94.6246 156.147 93.8985C156.566 93.3371 157.225 92.9698 157.922 93.2007C159.583 93.7511 159.556 96.1551 159.527 97.5573C159.482 99.6744 159.005 101.787 158.128 103.714C158.008 103.978 158.053 104.293 158.32 104.451C158.551 104.585 158.934 104.523 159.055 104.257C159.934 102.328 160.456 100.262 160.577 98.1426C160.682 96.3145 160.69 93.9028 159.11 92.6564C158.337 92.0473 157.351 91.8663 156.444 92.2874C155.549 92.7034 155.003 93.5649 154.659 94.4569C154.277 95.4485 154.049 96.5126 153.766 97.5357L152.855 100.833C152.175 103.29 151.496 105.746 150.817 108.201C150.632 108.87 151.668 109.155 151.853 108.487Z" fill="#ffffff" fill-rule="nonzero" opacity="1" stroke="none" vectornator:layerName="path"/>
<path d="M156.614 102.89C157.301 100.302 157.652 97.6266 157.655 94.948C157.656 94.2556 156.582 94.2545 156.581 94.948C156.579 97.5357 156.243 100.104 155.578 102.604C155.4 103.274 156.436 103.56 156.614 102.89Z" fill="#ffffff" fill-rule="nonzero" opacity="1" stroke="none" vectornator:layerName="path"/>
<path d="M145.575 102.859C146.295 99.3802 147.074 95.8908 148.073 92.4803C148.882 89.715 150.279 86.5815 153.226 85.5788C154.689 85.0809 156.276 85.1611 157.774 85.45C159.26 85.7365 160.764 86.163 162.134 86.8151C163.43 87.4325 164.629 88.2835 165.482 89.4558C166.325 90.613 166.849 91.9559 167.132 93.3544C167.788 96.5997 167.016 99.9149 166.15 103.043C166.035 103.459 165.917 103.875 165.8 104.291C165.61 104.958 166.646 105.243 166.835 104.576C167.791 101.205 168.784 97.6817 168.339 94.1422C168.146 92.6115 167.718 91.1078 166.955 89.7606C166.173 88.3802 165.045 87.2517 163.691 86.4315C162.327 85.6043 160.792 85.0777 159.254 84.6825C157.62 84.2627 155.92 84.0043 154.238 84.2389C152.652 84.4601 151.223 85.2143 150.099 86.3528C148.948 87.5193 148.17 88.9768 147.596 90.5001C146.963 92.1801 146.549 93.9449 146.113 95.6845C145.653 97.5223 145.223 99.3683 144.825 101.221C144.728 101.672 144.633 102.122 144.54 102.573C144.481 102.857 144.623 103.155 144.915 103.235C145.181 103.308 145.516 103.145 145.575 102.859Z" fill="#ffffff" fill-rule="nonzero" opacity="1" stroke="none" vectornator:layerName="path"/>
<path d="M151.109 91.7311C151.947 89.1836 154.643 87.6065 157.253 87.7813C160.147 87.975 162.655 90.0939 163.671 92.7601C164.275 94.3444 164.452 96.0881 164.198 97.7643C164.155 98.0518 164.27 98.3429 164.573 98.4263C164.827 98.4963 165.19 98.34 165.234 98.051C165.741 94.6999 164.808 91.0489 162.178 88.7831C160.945 87.7206 159.434 86.9852 157.818 86.765C156.263 86.5532 154.695 86.8418 153.318 87.6008C151.808 88.4333 150.615 89.7981 150.074 91.4448C149.857 92.1043 150.894 92.387 151.109 91.7311Z" fill="#ffffff" fill-rule="nonzero" opacity="1" stroke="none" vectornator:layerName="path"/>
<path d="M148.824 96.6682C148.594 99.4301 147.9 102.161 146.777 104.693C146.659 104.959 146.7 105.272 146.969 105.43C147.198 105.564 147.585 105.504 147.704 105.237C148.909 102.518 149.651 99.6334 149.898 96.6682C149.922 96.3785 149.634 96.1298 149.361 96.1298C149.051 96.1298 148.849 96.3778 148.824 96.6682Z" fill="#ffffff" fill-rule="nonzero" opacity="1" stroke="none" vectornator:layerName="path"/>
<path d="M161.794 99.7511C161.564 102.512 160.869 105.243 159.746 107.776C159.629 108.041 159.67 108.355 159.939 108.513C160.168 108.647 160.555 108.586 160.673 108.319C161.879 105.601 162.621 102.716 162.868 99.7511C162.892 99.4607 162.604 99.2127 162.331 99.2127C162.02 99.2127 161.819 99.4599 161.794 99.7511Z" fill="#ffffff" fill-rule="nonzero" opacity="1" stroke="none" vectornator:layerName="path"/>
<path d="M151.526 97.608C152.217 94.8632 153.36 92.2617 154.913 89.8969C155.293 89.3164 154.364 88.7766 153.986 89.3535C152.387 91.7893 151.202 94.4946 150.491 97.322C150.322 97.9937 151.357 98.2804 151.526 97.608Z" fill="#ffffff" fill-rule="nonzero" opacity="1" stroke="none" vectornator:layerName="path"/>
<path d="M79.3278 181.584C79.3278 181.725 79.4416 181.84 79.5834 181.84L236.195 181.84C236.336 181.84 236.45 181.725 236.45 181.584C236.45 181.441 236.336 181.327 236.195 181.327L79.5834 181.327C79.4416 181.327 79.3278 181.441 79.3278 181.584Z" fill="#3f3d58" fill-rule="nonzero" opacity="1" stroke="none" vectornator:layerName="path"/>
<path d="M141.033 92.7708C143.345 92.527 145.335 93.5698 145.479 95.1C145.623 96.6302 143.866 98.0674 141.554 98.3109C140.632 98.4219 139.698 98.3005 138.831 97.9587L129.026 98.8627L128.731 94.0676L138.429 93.6851C139.215 93.1685 140.108 92.855 141.033 92.7708Z" fill="#fdadb0" fill-rule="nonzero" opacity="1" stroke="none" vectornator:layerName="path"/>
<path d="M129.087 71.7048C126.713 71.3696 124.487 72.9344 123.993 75.2861C122.272 83.491 119.184 100.969 124.035 101.261C130.377 101.642 136.466 100.115 136.466 100.115L134.944 91.3396L129.997 90.8308L132.907 77.1832C133.459 74.5918 131.704 72.0743 129.087 71.7048Z" fill="#3f3d58" fill-rule="nonzero" opacity="1" stroke="none" vectornator:layerName="path"/>
</g>
</g>
<g opacity="1" vectornator:layerName="rect">
<clipPath id="ClipPath_2">
<path d="M202.196 20.3401L310.916 20.3401L310.916 20.3401L310.916 161.08L310.916 161.08L202.196 161.08L202.196 161.08L202.196 20.3401L202.196 20.3401Z"/>
</clipPath>
<g clip-path="url(#ClipPath_2)">
<path d="M310.916 111.177L291.449 96.9996C291.449 96.9996 280.299 78.0969 278.409 65.9991C276.519 53.9013 268.014 32.352 268.014 32.352L268.014 21.0104C268.014 21.0104 258.186 17.2298 257.43 27.6264C256.674 38.0229 259.509 51.4439 259.509 51.4439C259.509 51.4439 262.344 68.4564 255.918 72.8041L232.482 111.177C232.482 111.177 254.973 131.781 272.55 134.428L310.916 161.08L310.916 111.177Z" fill="#ffb8b8" fill-rule="nonzero" opacity="1" stroke="none" vectornator:layerName="path"/>
<path d="M209.708 56.8312L209.066 56.8312C203.285 56.8312 200.035 63.6581 203.834 68.0171C205.057 69.4201 206.915 70.3913 209.708 70.4412L209.708 56.8312Z" fill="#ffb8b8" fill-rule="nonzero" opacity="1" stroke="none" vectornator:layerName="path"/>
<path d="M209.708 70.4415L209.066 70.4415C203.285 70.4415 200.035 77.2685 203.834 81.6274C205.057 83.0304 206.915 84.0017 209.708 84.0516L209.708 70.4415Z" fill="#ffb8b8" fill-rule="nonzero" opacity="1" stroke="none" vectornator:layerName="path"/>
<path d="M209.708 84.0512L209.066 84.0512C203.285 84.0512 200.035 90.878 203.834 95.237C205.057 96.6399 206.915 97.6117 209.708 97.6616L209.708 84.0512Z" fill="#ffb8b8" fill-rule="nonzero" opacity="1" stroke="none" vectornator:layerName="path"/>
<path d="M209.708 97.6616L209.066 97.6616C203.285 97.6616 200.035 104.489 203.834 108.847C205.057 110.251 206.915 111.222 209.708 111.272L209.708 97.6616Z" fill="#ffb8b8" fill-rule="nonzero" opacity="1" stroke="none" vectornator:layerName="path"/>
<path d="M259.887 53.5813L259.325 53.5813L259.325 38.1701C259.325 36.9988 259.094 35.839 258.646 34.7568C258.197 33.6746 257.541 32.6913 256.713 31.863C255.884 31.0347 254.902 30.3777 253.82 29.9295C252.737 29.4812 251.577 29.2506 250.406 29.2506L217.761 29.2506C216.59 29.2506 215.43 29.4812 214.348 29.9295C213.266 30.3777 212.283 31.0347 211.455 31.863C210.627 32.6913 209.97 33.6746 209.522 34.7568C209.074 35.839 208.843 36.9988 208.843 38.1701L208.843 122.717C208.843 123.888 209.074 125.049 209.522 126.131C209.97 127.213 210.627 128.196 211.455 129.024C212.283 129.852 213.266 130.509 214.348 130.957C215.43 131.406 216.59 131.637 217.761 131.637L250.406 131.637C251.577 131.637 252.737 131.406 253.82 130.957C254.902 130.509 255.884 129.852 256.713 129.024C257.541 128.196 258.197 127.213 258.646 126.131C259.094 125.049 259.325 123.888 259.325 122.717L259.325 64.5513L259.887 64.5513L259.887 53.5813Z" fill="#3f3d56" fill-rule="nonzero" opacity="1" stroke="none" vectornator:layerName="path"/>
<path d="M257.426 38.2325L257.426 122.654C257.425 123.642 257.205 124.617 256.782 125.509C256.359 126.401 255.744 127.189 254.98 127.815C254.812 127.953 254.636 128.082 254.453 128.202C253.362 128.93 252.079 129.318 250.766 129.315L217.964 129.315C217.432 129.317 216.902 129.253 216.386 129.126C214.936 128.773 213.648 127.943 212.726 126.769C211.805 125.596 211.303 124.147 211.303 122.654L211.303 38.2325C211.303 36.4658 212.006 34.7715 213.254 33.5223C214.503 32.2731 216.197 31.5712 217.964 31.5711L221.944 31.5711C221.748 32.0515 221.673 32.5728 221.726 33.089C221.779 33.6052 221.958 34.1005 222.248 34.5311C222.537 34.9618 222.928 35.3147 223.386 35.5586C223.844 35.8026 224.355 35.9301 224.873 35.93L243.575 35.93C244.094 35.9295 244.604 35.8016 245.062 35.5575C245.519 35.3134 245.91 34.9607 246.199 34.5302C246.489 34.0998 246.668 33.6049 246.721 33.0889C246.775 32.5729 246.701 32.0517 246.506 31.5711L250.766 31.5711C252.532 31.5712 254.226 32.2731 255.476 33.5223C256.724 34.7715 257.426 36.4658 257.426 38.2325Z" fill="#0077c8" fill-rule="nonzero" opacity="1" stroke="none" vectornator:layerName="path"/>
<path d="M227.481 95.1893C227.481 95.1893 230.701 104.135 228.197 109.145C225.692 114.154 232.132 119.879 232.132 119.879C232.132 119.879 248.947 111.292 246.8 106.997C244.654 102.704 241.076 96.9787 241.792 93.4001L227.481 95.1893Z" fill="#ffb8b8" fill-rule="nonzero" opacity="1" stroke="none" vectornator:layerName="path"/>
<path d="M233.742 98.5887C240.065 98.5887 245.19 93.4622 245.19 87.1382C245.19 80.8142 240.065 75.6876 233.742 75.6876C227.419 75.6876 222.294 80.8142 222.294 87.1382C222.294 93.4622 227.419 98.5887 233.742 98.5887Z" fill="#ffb8b8" fill-rule="nonzero" opacity="1" stroke="none" vectornator:layerName="path"/>
<path d="M256.001 127.318C255.701 127.703 255.358 128.053 254.98 128.362C254.811 128.5 254.636 128.63 254.453 128.75C253.397 129.452 252.131 129.674 250.766 129.674L221.793 129.674L222.294 115.765L225.514 108.608C226.237 109.175 227.011 109.674 227.826 110.1C228.018 110.204 228.223 110.307 228.436 110.409C231.452 111.867 236.383 113.149 241.163 109.58C242.668 108.457 244.157 106.852 245.569 104.622L254.493 109.682L254.962 115.164L256.001 127.318Z" fill="#ffffff" fill-rule="nonzero" opacity="1" stroke="none" vectornator:layerName="path"/>
<path d="M229.12 103.253L228.672 107.936L228.436 110.409L228.083 114.094L226.573 129.863L217.964 129.863C217.432 129.864 216.902 129.8 216.386 129.674L212.991 113.975L213.09 113.911L229.12 103.253Z" fill="#2f2e41" fill-rule="nonzero" opacity="1" stroke="none" vectornator:layerName="path"/>
<path d="M257.427 106.471L257.427 123.202C257.425 124.189 257.205 125.164 256.782 126.056C256.359 126.948 255.744 127.736 254.98 128.362C254.812 128.5 254.636 128.63 254.453 128.75C253.362 129.477 252.079 129.865 250.766 129.863L239.247 129.863C239.498 124.576 239.942 119.415 240.462 114.92C240.685 113.005 240.921 111.211 241.163 109.58C241.942 104.321 242.777 100.75 243.376 100.269L247.337 102.883L257.427 106.471Z" fill="#2f2e41" fill-rule="nonzero" opacity="1" stroke="none" vectornator:layerName="path"/>
<path d="M221.22 126.857L220.808 129.863L217.964 129.863C217.432 129.864 216.902 129.8 216.386 129.674C214.936 129.321 213.648 128.49 212.726 127.317C211.805 126.143 211.303 124.694 211.303 123.202L211.303 122.596L212.634 113.975L213.09 113.911L215.138 113.618L221.22 126.857Z" fill="#2f2e41" fill-rule="nonzero" opacity="1" stroke="none" vectornator:layerName="path"/>
<path d="M257.426 108.652L257.426 123.201C257.425 124.188 257.205 125.163 256.782 126.056C256.359 126.948 255.744 127.735 254.98 128.362C254.812 128.5 254.636 128.63 254.453 128.75L252.703 121.132L254.962 115.164L257.426 108.652Z" fill="#2f2e41" fill-rule="nonzero" opacity="1" stroke="none" vectornator:layerName="path"/>
<path d="M244.66 76.782C242.928 73.9702 240.218 71.8982 237.051 70.9648L234.725 72.826L235.63 70.6551C234.87 70.5391 234.1 70.4946 233.33 70.5223L231.238 73.2136L232.104 70.6144C228.488 71.0755 225.05 73.0457 222.965 76.0511C220.302 79.8926 219.853 85.2349 222.472 89.1064C223.192 86.8959 224.065 84.8217 224.784 82.6112C224.949 82.6821 225.578 82.6777 226.488 82.6195L227.363 80.5774L227.607 82.5331C230.319 82.2968 234.342 81.778 236.913 81.3026L236.663 79.8023L238.159 81.049C238.946 80.8676 239.414 80.7032 239.375 80.5774C241.288 83.6607 243.182 85.63 245.094 88.7132C245.82 84.3642 247.102 80.7492 244.66 76.782Z" fill="#2f2e41" fill-rule="nonzero" opacity="1" stroke="none" vectornator:layerName="path"/>
<path d="M244.026 88.3292C244.453 88.3292 244.8 87.6351 244.8 86.7789C244.8 85.9227 244.453 85.2286 244.026 85.2286C243.598 85.2286 243.251 85.9227 243.251 86.7789C243.251 87.6351 243.598 88.3292 244.026 88.3292Z" fill="#ffb8b8" fill-rule="nonzero" opacity="1" stroke="none" vectornator:layerName="path"/>
<path d="M269.242 127.245C277.123 127.245 283.511 112.942 283.511 95.2988C283.511 77.6554 277.123 63.3528 269.242 63.3528C261.361 63.3528 254.973 77.6554 254.973 95.2988C254.973 112.942 261.361 127.245 269.242 127.245Z" fill="#ffb8b8" fill-rule="nonzero" opacity="1" stroke="none" vectornator:layerName="path"/>
<path d="M217.923 55.4135C217.175 55.4135 216.444 55.1919 215.822 54.7764C215.201 54.361 214.716 53.7706 214.43 53.0798C214.144 52.389 214.069 51.6288 214.215 50.8955C214.361 50.1621 214.721 49.4885 215.249 48.9598C215.778 48.431 216.452 48.0709 217.185 47.9251C217.918 47.7792 218.678 47.8541 219.369 48.1403C220.06 48.4264 220.65 48.9109 221.065 49.5326C221.481 50.1543 221.702 50.8853 221.702 51.633C221.701 52.6353 221.303 53.5963 220.594 54.305C219.886 55.0137 218.924 55.4124 217.923 55.4135ZM217.923 48.2305C217.249 48.2305 216.592 48.4301 216.032 48.8039C215.473 49.1778 215.037 49.7092 214.779 50.3309C214.522 50.9527 214.455 51.6368 214.586 52.2968C214.717 52.9568 215.041 53.5631 215.517 54.039C215.992 54.5148 216.599 54.8388 217.258 54.9702C217.918 55.1015 218.602 55.0341 219.224 54.7765C219.846 54.519 220.377 54.0828 220.751 53.5233C221.125 52.9638 221.324 52.3059 221.324 51.633C221.323 50.7309 220.965 49.8661 220.326 49.2282C219.689 48.5903 218.824 48.2315 217.923 48.2305Z" fill="#000000" fill-rule="nonzero" opacity="0.2" stroke="none" vectornator:layerName="path"/>
<path d="M216.41 51.2548C216.724 51.2548 216.977 51.0009 216.977 50.6877C216.977 50.3745 216.724 50.1206 216.41 50.1206C216.097 50.1206 215.844 50.3745 215.844 50.6877C215.844 51.0009 216.097 51.2548 216.41 51.2548Z" fill="#000000" fill-rule="nonzero" opacity="0.2" stroke="none" vectornator:layerName="path"/>
<path d="M219.245 51.2548C219.559 51.2548 219.813 51.0009 219.813 50.6877C219.813 50.3745 219.559 50.1206 219.245 50.1206C218.932 50.1206 218.678 50.3745 218.678 50.6877C218.678 51.0009 218.932 51.2548 219.245 51.2548Z" fill="#000000" fill-rule="nonzero" opacity="0.2" stroke="none" vectornator:layerName="path"/>
<path d="M219.245 52.9559L216.41 52.9559C216.36 52.9559 216.312 52.9359 216.277 52.9005C216.241 52.865 216.221 52.817 216.221 52.7668C216.221 52.7167 216.241 52.6686 216.277 52.6331C216.312 52.5977 216.36 52.5778 216.41 52.5778L219.245 52.5778C219.296 52.5778 219.343 52.5977 219.379 52.6331C219.414 52.6686 219.434 52.7167 219.434 52.7668C219.434 52.817 219.414 52.865 219.379 52.9005C219.343 52.9359 219.296 52.9559 219.245 52.9559Z" fill="#000000" fill-rule="nonzero" opacity="0.2" stroke="none" vectornator:layerName="path"/>
<path d="M250.807 55.4135C250.06 55.4135 249.329 55.1919 248.707 54.7764C248.086 54.361 247.602 53.7706 247.316 53.0798C247.03 52.389 246.955 51.6288 247.1 50.8955C247.246 50.1621 247.606 49.4885 248.135 48.9598C248.664 48.431 249.337 48.0709 250.07 47.9251C250.804 47.7792 251.563 47.8541 252.254 48.1403C252.945 48.4264 253.535 48.9109 253.951 49.5326C254.366 50.1543 254.587 50.8853 254.587 51.633C254.587 52.6353 254.188 53.5963 253.479 54.3051C252.77 55.0137 251.81 55.4124 250.807 55.4135ZM250.807 48.2305C250.135 48.2305 249.477 48.4301 248.917 48.8039C248.358 49.1778 247.922 49.7092 247.665 50.3309C247.407 50.9527 247.34 51.6368 247.471 52.2968C247.602 52.9568 247.926 53.5631 248.402 54.039C248.878 54.5148 249.484 54.8388 250.144 54.9702C250.804 55.1015 251.488 55.0341 252.11 54.7765C252.731 54.519 253.263 54.0828 253.636 53.5233C254.01 52.9638 254.21 52.3059 254.21 51.633C254.209 50.7309 253.85 49.8661 253.212 49.2282C252.574 48.5903 251.71 48.2316 250.807 48.2305Z" fill="#000000" fill-rule="nonzero" opacity="0.2" stroke="none" vectornator:layerName="path"/>
<path d="M249.296 51.2548C249.608 51.2548 249.862 51.0009 249.862 50.6877C249.862 50.3745 249.608 50.1206 249.296 50.1206C248.982 50.1206 248.729 50.3745 248.729 50.6877C248.729 51.0009 248.982 51.2548 249.296 51.2548Z" fill="#000000" fill-rule="nonzero" opacity="0.2" stroke="none" vectornator:layerName="path"/>
<path d="M252.131 51.2548C252.444 51.2548 252.697 51.0009 252.697 50.6877C252.697 50.3745 252.444 50.1206 252.131 50.1206C251.818 50.1206 251.564 50.3745 251.564 50.6877C251.564 51.0009 251.818 51.2548 252.131 51.2548Z" fill="#000000" fill-rule="nonzero" opacity="0.2" stroke="none" vectornator:layerName="path"/>
<path d="M252.131 53.3345C252.097 53.3345 252.065 53.3258 252.036 53.3093C251.641 53.0583 251.182 52.9251 250.713 52.9251C250.244 52.9251 249.786 53.0583 249.39 53.3093C249.369 53.3217 249.345 53.3298 249.32 53.3331C249.296 53.3363 249.27 53.3347 249.247 53.3283C249.222 53.3219 249.2 53.3107 249.18 53.2956C249.16 53.2805 249.144 53.2616 249.131 53.24C249.119 53.2184 249.111 53.1947 249.108 53.17C249.104 53.1454 249.107 53.1204 249.113 53.0963C249.119 53.0723 249.13 53.0499 249.146 53.0302C249.161 53.0105 249.18 52.994 249.201 52.9816C249.655 52.6988 250.179 52.5487 250.713 52.5487C251.247 52.5487 251.772 52.6988 252.225 52.9816C252.261 53.0024 252.289 53.0345 252.305 53.073C252.321 53.1115 252.324 53.1542 252.313 53.1944C252.303 53.2346 252.279 53.2702 252.245 53.2955C252.213 53.3208 252.172 53.3345 252.131 53.3345Z" fill="#000000" fill-rule="nonzero" opacity="0.2" stroke="none" vectornator:layerName="path"/>
<path d="M234.554 59.3089C233.036 59.3089 231.553 58.8588 230.291 58.0153C229.028 57.1719 228.045 55.9732 227.464 54.5706C226.883 53.168 226.731 51.6247 227.027 50.1358C227.323 48.6469 228.054 47.2791 229.127 46.2057C230.201 45.1322 231.568 44.4012 233.057 44.105C234.546 43.8089 236.089 43.9609 237.491 44.5419C238.894 45.1228 240.092 46.1066 240.935 47.3689C241.778 48.6311 242.228 50.1151 242.228 51.6332C242.226 53.6682 241.417 55.6192 239.978 57.0582C238.539 58.4972 236.589 59.3066 234.554 59.3089ZM234.554 44.7251C233.188 44.7251 231.853 45.1303 230.717 45.8893C229.581 46.6484 228.696 47.7273 228.173 48.9896C227.65 50.2519 227.513 51.6409 227.78 52.981C228.046 54.321 228.704 55.5519 229.67 56.518C230.636 57.4841 231.867 58.142 233.207 58.4086C234.546 58.6751 235.935 58.5383 237.197 58.0155C238.459 57.4926 239.538 56.6072 240.297 55.4712C241.056 54.3351 241.461 52.9995 241.461 51.6332C241.459 49.8017 240.731 48.0458 239.436 46.7507C238.141 45.4556 236.386 44.7272 234.554 44.7251Z" fill="#ffffff" fill-rule="nonzero" opacity="1" stroke="none" vectornator:layerName="path"/>
<path d="M231.484 50.8656C232.12 50.8656 232.636 50.3502 232.636 49.7142C232.636 49.0784 232.12 48.5629 231.484 48.5629C230.848 48.5629 230.333 49.0784 230.333 49.7142C230.333 50.3502 230.848 50.8656 231.484 50.8656Z" fill="#ffffff" fill-rule="nonzero" opacity="1" stroke="none" vectornator:layerName="path"/>
<path d="M237.24 50.8656C237.876 50.8656 238.391 50.3502 238.391 49.7142C238.391 49.0784 237.876 48.5629 237.24 48.5629C236.605 48.5629 236.089 49.0784 236.089 49.7142C236.089 50.3502 236.605 50.8656 237.24 50.8656Z" fill="#ffffff" fill-rule="nonzero" opacity="1" stroke="none" vectornator:layerName="path"/>
<path d="M234.558 55.3803C233.526 55.3803 232.431 55.0061 231.276 54.2577C231.19 54.2022 231.131 54.1152 231.109 54.0158C231.088 53.9163 231.107 53.8125 231.163 53.7272C231.218 53.6419 231.305 53.5821 231.405 53.5608C231.504 53.5395 231.607 53.5585 231.693 53.6138C233.726 54.9325 235.46 54.942 236.992 53.643C237.069 53.5774 237.17 53.5452 237.271 53.5536C237.373 53.562 237.467 53.6104 237.532 53.6879C237.598 53.7655 237.63 53.866 237.622 53.9673C237.614 54.0687 237.565 54.1626 237.488 54.2284C236.583 54.9964 235.603 55.3803 234.558 55.3803Z" fill="#ffffff" fill-rule="nonzero" opacity="1" stroke="none" vectornator:layerName="path"/>
<path d="M247.217 64.2978L242.228 64.2978L242.228 63.5305L246.45 63.5305L246.45 59.3088L247.217 59.3088L247.217 64.2978Z" fill="#ffffff" fill-rule="nonzero" opacity="1" stroke="none" vectornator:layerName="path"/>
<path d="M222.659 43.9574L221.891 43.9574L221.891 38.9682L226.879 38.9682L226.879 39.7358L222.659 39.7358L222.659 43.9574Z" fill="#ffffff" fill-rule="nonzero" opacity="1" stroke="none" vectornator:layerName="path"/>
</g>
</g>
</g>
</svg>
