<svg width="24" height="24" viewBox="0 0 24 24" fill="none" xmlns="http://www.w3.org/2000/svg">
<g clip-path="url(#clip0_3207_2832)">
<path d="M13.3131 2.27472C13.1834 2.04003 12.9933 1.84437 12.7623 1.70812C12.5314 1.57187 12.2682 1.5 12.0001 1.5C11.732 1.5 11.4688 1.57187 11.2378 1.70812C11.0069 1.84437 10.8167 2.04003 10.6871 2.27472L0.93709 20.2747C0.811008 20.5031 0.74666 20.7604 0.750398 21.0212C0.754136 21.282 0.82583 21.5374 0.958404 21.7621C1.09098 21.9867 1.27985 22.1729 1.50637 22.3023C1.73289 22.4316 1.98923 22.4997 2.25009 22.4997H21.7501C22.0109 22.4997 22.2673 22.4316 22.4938 22.3023C22.7203 22.1729 22.9092 21.9867 23.0418 21.7621C23.1743 21.5374 23.246 21.282 23.2498 21.0212C23.2535 20.7604 23.1892 20.5031 23.0631 20.2747L13.3131 2.27472Z" fill="#DA362D" stroke="white" stroke-width="1.5" stroke-linecap="round" stroke-linejoin="round"/>
<path fill-rule="evenodd" clip-rule="evenodd" d="M12 17.25C12.2984 17.25 12.5845 17.3685 12.7955 17.5795C13.0065 17.7905 13.125 18.0766 13.125 18.375C13.125 18.6734 13.0065 18.9595 12.7955 19.1705C12.5845 19.3815 12.2984 19.5 12 19.5C11.7016 19.5 11.4155 19.3815 11.2045 19.1705C10.9935 18.9595 10.875 18.6734 10.875 18.375C10.875 18.0766 10.9935 17.7905 11.2045 17.5795C11.4155 17.3685 11.7016 17.25 12 17.25Z" fill="white"/>
<path d="M12 15V8.25" stroke="white" stroke-width="1.5" stroke-linecap="round" stroke-linejoin="round"/>
</g>
<defs>
<clipPath id="clip0_3207_2832">
<rect width="24" height="24" fill="white"/>
</clipPath>
</defs>
</svg>
