<svg width="28" height="24" viewBox="0 0 28 24" fill="none" xmlns="http://www.w3.org/2000/svg">
<g clip-path="url(#clip0_49_16831)">
<path d="M0 1.7789V22.2211C0 22.6929 0.188819 23.1454 0.52492 23.479C0.861021 23.8126 1.31687 24 1.79219 24H14.0974C23.3961 24 27.4286 18.8305 27.4286 11.9764C27.4286 5.14902 23.3961 0 14.0974 0H1.79219C1.31687 0 0.861021 0.187419 0.52492 0.521027C0.188819 0.854635 0 1.3071 0 1.7789Z" fill="white"/>
<path d="M14.0944 22.3662H3.39238C2.93622 22.3657 2.49888 22.1857 2.17632 21.8655C1.85377 21.5453 1.67235 21.1112 1.67188 20.6585V3.34178C1.67235 2.889 1.85377 2.4549 2.17632 2.13474C2.49888 1.81458 2.93622 1.6345 3.39238 1.63403H14.0944C24.2445 1.63403 25.7607 8.11367 25.7607 11.9765C25.7607 18.6785 21.6172 22.3662 14.0944 22.3662ZM3.39238 2.20328C3.08816 2.20352 2.79646 2.32351 2.58127 2.53694C2.36607 2.75038 2.24495 3.03982 2.24448 3.34178V20.6585C2.24495 20.9604 2.36607 21.2499 2.58127 21.4633C2.79646 21.6767 3.08816 21.7967 3.39238 21.797H14.0944C21.2471 21.797 25.1872 18.3094 25.1872 11.9765C25.1872 3.47341 18.2371 2.20328 14.0944 2.20328H3.39238Z" fill="black"/>
<path d="M8.23438 5.01911V20.1193H14.8565C20.8729 20.1193 23.4814 16.7447 23.4814 11.9844C23.4814 7.42418 20.8729 3.88062 14.8565 3.88062H9.38138C9.07717 3.88062 8.78543 4.00056 8.57032 4.21407C8.35522 4.42758 8.23438 4.71716 8.23438 5.01911Z" fill="#00B0F0"/>
<path d="M15.0752 9.94922L16.5923 12.3694H16.6021V9.94922H17.3504V13.5559H16.5511L15.0393 11.1411H15.0295V13.5559H14.2812V9.94922H15.0752Z" fill="white"/>
<path d="M13.5728 9.94946H12.7734V13.5562H13.5728V9.94946Z" fill="white"/>
<path d="M12.0924 10.9499C12.0184 10.742 11.9001 10.5524 11.7456 10.394C11.5983 10.2452 11.4191 10.1312 11.2214 10.0605C11.0121 9.98515 10.7908 9.9475 10.5682 9.94928H9V13.556H10.5682C10.817 13.5617 11.0642 13.5144 11.2931 13.4172C11.4912 13.3299 11.667 13.1995 11.8075 13.0357C11.9486 12.8668 12.0532 12.6709 12.1148 12.4602C12.1849 12.224 12.2194 11.9788 12.217 11.7326C12.2222 11.4665 12.18 11.2015 12.0924 10.9499ZM11.3415 12.3134C11.2984 12.4385 11.2291 12.5531 11.1381 12.6496C11.0572 12.7328 10.9577 12.7959 10.8477 12.8338C10.7397 12.871 10.6261 12.89 10.5117 12.8898H9.79484V10.6164H10.3648C10.5341 10.6116 10.7027 10.6397 10.8612 10.6991C10.9881 10.75 11.0996 10.8328 11.1847 10.9392C11.2709 11.0504 11.332 11.1788 11.3639 11.3155C11.4006 11.4771 11.4184 11.6425 11.4168 11.8082C11.4215 11.9797 11.3961 12.1507 11.3415 12.3134Z" fill="white"/>
<path d="M5.23941 14.3708C5.57618 14.3708 5.89915 14.5036 6.13727 14.74C6.3754 14.9764 6.50918 15.2969 6.50918 15.6312V20.1194C5.83542 20.1194 5.18925 19.8537 4.71282 19.3808C4.2364 18.9079 3.96875 18.2665 3.96875 17.5978V15.6312C3.96875 15.4656 4.00162 15.3016 4.06549 15.1487C4.12936 14.9957 4.22297 14.8567 4.34097 14.7397C4.45898 14.6226 4.59906 14.5298 4.75322 14.4665C4.90738 14.4032 5.07259 14.3707 5.23941 14.3708Z" fill="black"/>
<path d="M5.23909 13.414C6.16505 13.414 6.91569 12.6689 6.91569 11.7499C6.91569 10.8308 6.16505 10.0857 5.23909 10.0857C4.31314 10.0857 3.5625 10.8308 3.5625 11.7499C3.5625 12.6689 4.31314 13.414 5.23909 13.414Z" fill="black"/>
</g>
<defs>
<clipPath id="clip0_49_16831">
<rect width="27.4286" height="24" fill="white"/>
</clipPath>
</defs>
</svg>
