<?xml version="1.0" encoding="UTF-8" standalone="no"?>
<svg
   width="41"
   height="36"
   viewBox="0 0 41 36"
   fill="none"
   version="1.1"
   id="svg8"
   sodipodi:docname="idin.svg"
   inkscape:version="1.3 (0e150ed, 2023-07-21)"
   xmlns:inkscape="http://www.inkscape.org/namespaces/inkscape"
   xmlns:sodipodi="http://sodipodi.sourceforge.net/DTD/sodipodi-0.dtd"
   xmlns="http://www.w3.org/2000/svg"
   xmlns:svg="http://www.w3.org/2000/svg">
  <sodipodi:namedview
     id="namedview8"
     pagecolor="#ffffff"
     bordercolor="#000000"
     borderopacity="0.25"
     inkscape:showpageshadow="2"
     inkscape:pageopacity="0.0"
     inkscape:pagecheckerboard="true"
     inkscape:deskcolor="#d1d1d1"
     inkscape:zoom="14.793279"
     inkscape:cx="14.837819"
     inkscape:cy="24.200179"
     inkscape:window-width="1920"
     inkscape:window-height="928"
     inkscape:window-x="0"
     inkscape:window-y="25"
     inkscape:window-maximized="1"
     inkscape:current-layer="g8" />
  <g
     clip-path="url(#clip0_7090_1931)"
     id="g8">
    <path
       d="M0 2.66835V33.3317C0 34.0393 0.282246 34.718 0.784647 35.2185C1.28705 35.7189 1.96845 36 2.67895 36H21.0726C34.9724 36 41 28.2458 41 17.9646C41 7.72353 34.9724 0 21.0726 0H2.67895C1.96845 0 1.28705 0.281129 0.784647 0.781541C0.282246 1.28195 0 1.96066 0 2.66835Z"
       fill="white"
       id="path1" />
    <path
       d="M21.0682 33.5514H5.07088C4.38901 33.5507 3.73528 33.2806 3.25313 32.8003C2.77098 32.3201 2.49979 31.6689 2.49908 30.9898V5.01474C2.49979 4.33557 2.77098 3.68443 3.25313 3.20418C3.73528 2.72394 4.38901 2.45383 5.07088 2.45312H21.0682C36.2405 2.45312 38.5069 12.1726 38.5069 17.9669C38.5069 28.0199 32.3131 33.5514 21.0682 33.5514ZM5.07088 3.307C4.61614 3.30735 4.18011 3.48734 3.85844 3.80749C3.53677 4.12764 3.35572 4.5618 3.35501 5.01474V30.9898C3.35572 31.4427 3.53677 31.8769 3.85844 32.197C4.18011 32.5172 4.61614 32.6971 5.07088 32.6975H21.0682C31.7599 32.6975 37.6496 27.4662 37.6496 17.9669C37.6496 5.21219 27.2606 3.307 21.0682 3.307H5.07088Z"
       fill="black"
       id="path2"
       style="fill:#5e6873;fill-opacity:1" />
    <path
       d="M12.3088 7.52805V30.1783H22.2075C31.2007 30.1783 35.0999 25.1165 35.0999 17.976C35.0999 11.1357 31.2007 5.82031 22.2075 5.82031H14.0233C13.5686 5.82031 13.1325 6.00023 12.811 6.3205C12.4894 6.64076 12.3088 7.07513 12.3088 7.52805Z"
       fill="#B2B6BE"
       id="path3"
       style="fill:#5e6873;fill-opacity:1" />
    <path
       d="M22.5342 14.9238L24.802 18.5541H24.8167V14.9238H25.9352V20.3339H24.7404L22.4807 16.7116H22.4659V20.3339H21.3475V14.9238H22.5342Z"
       fill="white"
       id="path4" />
    <path
       d="M20.2884 14.9238H19.0936V20.3339H20.2884V14.9238Z"
       fill="white"
       id="path5" />
    <path
       d="M18.0757 16.4249C17.965 16.1131 17.7882 15.8287 17.5573 15.591C17.337 15.3678 17.0692 15.1968 16.7737 15.0907C16.4607 14.9777 16.1301 14.9212 15.7972 14.9239H13.4531V20.334H15.7972C16.1692 20.3426 16.5387 20.2716 16.8808 20.1259C17.1769 19.9949 17.4397 19.7993 17.6497 19.5535C17.8606 19.3002 18.017 19.0063 18.1091 18.6903C18.2139 18.336 18.2654 17.9682 18.2618 17.5989C18.2696 17.1997 18.2066 16.8023 18.0757 16.4249ZM16.9532 18.4702C16.8887 18.6578 16.7851 18.8296 16.6491 18.9745C16.5282 19.0992 16.3795 19.1938 16.2151 19.2506C16.0536 19.3066 15.8838 19.335 15.7128 19.3347H14.6412V15.9245H15.4931C15.7463 15.9174 15.9983 15.9595 16.2352 16.0486C16.425 16.125 16.5916 16.2491 16.7188 16.4089C16.8477 16.5757 16.939 16.7681 16.9867 16.9732C17.0416 17.2157 17.0681 17.4638 17.0657 17.7123C17.0728 17.9695 17.0347 18.226 16.9532 18.4702Z"
       fill="white"
       id="path6" />
    <path
       d="M7.83181 21.5566C8.3352 21.5566 8.81797 21.7558 9.17392 22.1104C9.52988 22.4649 9.72985 22.9458 9.72985 23.4472V30.1794C8.72271 30.1794 7.75682 29.7809 7.04467 29.0716C6.33252 28.3622 5.93243 27.4002 5.93243 26.397V23.4472C5.93243 23.1988 5.98157 22.9528 6.07704 22.7234C6.17251 22.4939 6.31244 22.2855 6.48883 22.1099C6.66522 21.9343 6.87462 21.7951 7.10505 21.7002C7.33549 21.6052 7.58244 21.5565 7.83181 21.5566Z"
       fill="black"
       id="path7"
       style="fill:#5e6873;fill-opacity:1" />
    <path
       d="M7.83135 20.1214C9.21547 20.1214 10.3375 19.0038 10.3375 17.6251C10.3375 16.2465 9.21547 15.1289 7.83135 15.1289C6.44724 15.1289 5.3252 16.2465 5.3252 17.6251C5.3252 19.0038 6.44724 20.1214 7.83135 20.1214Z"
       fill="black"
       id="path8"
       style="fill:#5e6873;fill-opacity:1" />
  </g>
  <defs
     id="defs8">
    <clipPath
       id="clip0_7090_1931">
      <rect
         width="41"
         height="36"
         fill="white"
         id="rect8" />
    </clipPath>
  </defs>
</svg>
