<svg width="24" height="24" viewBox="0 0 24 24" fill="none" xmlns="http://www.w3.org/2000/svg">
<g clip-path="url(#clip0_652_6921)">
<path d="M6.65616 6.04316L10.7242 7.29917L13.6852 4.84916C13.7507 4.78931 13.8324 4.75 13.9201 4.73608C14.0078 4.72217 14.0976 4.73426 14.1785 4.77087C14.2593 4.80747 14.3277 4.86698 14.3751 4.94204C14.4225 5.0171 14.4469 5.10441 14.4452 5.19316L14.3262 9.53116L18.0172 11.5702C18.0944 11.6184 18.1561 11.6877 18.1952 11.77C18.2343 11.8522 18.249 11.9439 18.2376 12.0342C18.2263 12.1245 18.1893 12.2097 18.1311 12.2797C18.0729 12.3497 17.9959 12.4015 17.9092 12.4292L13.8732 13.8732L12.4292 17.9092C12.4017 17.9959 12.35 18.073 12.2801 18.1313C12.2102 18.1896 12.125 18.2266 12.0348 18.238C11.9445 18.2493 11.8528 18.2346 11.7706 18.1954C11.6885 18.1563 11.6192 18.0944 11.5712 18.0172L9.53117 14.3262L5.19316 14.4452C5.10441 14.4469 5.0171 14.4225 4.94204 14.3751C4.86698 14.3277 4.80747 14.2593 4.77087 14.1785C4.73426 14.0976 4.72217 14.0078 4.73608 13.9201C4.75 13.8324 4.78931 13.7507 4.84916 13.6852L7.30016 10.7232L6.04416 6.65516C6.02156 6.57045 6.02163 6.48128 6.04437 6.3966C6.06711 6.31192 6.11171 6.23471 6.17371 6.17271C6.23571 6.11071 6.31292 6.06611 6.3976 6.04337C6.48228 6.02063 6.57145 6.02056 6.65616 6.04316V6.04316Z" stroke="#0077C8" stroke-width="1.5" stroke-linecap="round" stroke-linejoin="round"/>
<path d="M13.873 13.873L23.25 23.25" stroke="#0077C8" stroke-width="1.5" stroke-linecap="round" stroke-linejoin="round"/>
<path d="M18 2.25H21" stroke="#0077C8" stroke-width="1.5" stroke-linecap="round" stroke-linejoin="round"/>
<path d="M19.5 0.75V3.75" stroke="#0077C8" stroke-width="1.5" stroke-linecap="round" stroke-linejoin="round"/>
<path d="M2.25 20.25H5.25" stroke="#0077C8" stroke-width="1.5" stroke-linecap="round" stroke-linejoin="round"/>
<path d="M3.75 18.75V21.75" stroke="#0077C8" stroke-width="1.5" stroke-linecap="round" stroke-linejoin="round"/>
<path d="M9 3V0.75" stroke="#0077C8" stroke-width="1.5" stroke-linecap="round" stroke-linejoin="round"/>
<path d="M0.75 9.75H3" stroke="#0077C8" stroke-width="1.5" stroke-linecap="round" stroke-linejoin="round"/>
</g>
<defs>
<clipPath id="clip0_652_6921">
<rect width="24" height="24" fill="white"/>
</clipPath>
</defs>
</svg>
